G75*
G70*
%OFA0B0*%
%FSLAX24Y24*%
%IPPOS*%
%LPD*%
%AMOC8*
5,1,8,0,0,1.08239X$1,22.5*
%
%ADD10C,0.0030*%
D10*
X008562Y007665D02*
X008439Y007788D01*
X008439Y007912D01*
X008562Y008035D01*
X008745Y007912D02*
X008684Y007850D01*
X008684Y007665D01*
X008807Y007665D02*
X008807Y007850D01*
X008745Y007912D01*
X008807Y007850D02*
X008869Y007912D01*
X008931Y007912D01*
X008931Y007665D01*
X009052Y007727D02*
X009052Y007850D01*
X009114Y007912D01*
X009237Y007912D01*
X009299Y007850D01*
X009299Y007727D01*
X009237Y007665D01*
X009114Y007665D01*
X009052Y007727D01*
X009420Y007665D02*
X009606Y007665D01*
X009667Y007727D01*
X009667Y007850D01*
X009606Y007912D01*
X009420Y007912D01*
X009790Y007727D02*
X009790Y007665D01*
X009851Y007665D01*
X009851Y007727D01*
X009790Y007727D01*
X009974Y007665D02*
X010097Y007665D01*
X010035Y007665D02*
X010035Y008035D01*
X010097Y008035D01*
X010281Y008035D02*
X010281Y008097D01*
X010281Y007912D02*
X010281Y007665D01*
X010343Y007665D02*
X010219Y007665D01*
X010464Y007665D02*
X010649Y007665D01*
X010711Y007727D01*
X010649Y007788D01*
X010464Y007788D01*
X010464Y007850D02*
X010464Y007665D01*
X010464Y007850D02*
X010526Y007912D01*
X010649Y007912D01*
X010832Y007850D02*
X010832Y007665D01*
X010956Y007665D02*
X010956Y007850D01*
X010894Y007912D01*
X010832Y007850D01*
X010956Y007850D02*
X011017Y007912D01*
X011079Y007912D01*
X011079Y007665D01*
X011201Y007665D02*
X011386Y007665D01*
X011447Y007727D01*
X011447Y007850D01*
X011386Y007912D01*
X011201Y007912D01*
X011201Y007603D01*
X011262Y007542D01*
X011324Y007542D01*
X011569Y007727D02*
X011631Y007665D01*
X011754Y007665D01*
X011816Y007727D01*
X011816Y007974D01*
X011754Y008035D01*
X011631Y008035D01*
X011569Y007974D01*
X011569Y007850D01*
X011631Y007788D01*
X011631Y007912D01*
X011754Y007912D01*
X011754Y007788D01*
X011631Y007788D01*
X011937Y007788D02*
X012184Y007788D01*
X012184Y007727D02*
X012184Y007850D01*
X012122Y007912D01*
X011999Y007912D01*
X011937Y007850D01*
X011937Y007788D01*
X011999Y007665D02*
X012122Y007665D01*
X012184Y007727D01*
X012306Y007665D02*
X012306Y007850D01*
X012367Y007912D01*
X012552Y007912D01*
X012552Y007665D01*
X012675Y007665D02*
X012798Y007665D01*
X012736Y007665D02*
X012736Y007912D01*
X012798Y007912D01*
X012919Y007912D02*
X012919Y007665D01*
X013105Y007665D01*
X013166Y007727D01*
X013166Y007912D01*
X013288Y007912D02*
X013473Y007912D01*
X013535Y007850D01*
X013535Y007727D01*
X013473Y007665D01*
X013288Y007665D01*
X013288Y007603D02*
X013288Y007912D01*
X013656Y007850D02*
X013656Y007665D01*
X013656Y007850D02*
X013718Y007912D01*
X013903Y007912D01*
X013903Y007665D01*
X014024Y007788D02*
X014271Y007788D01*
X014271Y007727D02*
X014271Y007850D01*
X014209Y007912D01*
X014086Y007912D01*
X014024Y007850D01*
X014024Y007788D01*
X014086Y007665D02*
X014209Y007665D01*
X014271Y007727D01*
X014393Y007727D02*
X014454Y007665D01*
X014640Y007665D01*
X014640Y007542D02*
X014640Y007912D01*
X014454Y007912D01*
X014393Y007850D01*
X014393Y007727D01*
X014761Y007788D02*
X015008Y007788D01*
X015008Y007727D02*
X015008Y007850D01*
X014946Y007912D01*
X014823Y007912D01*
X014761Y007850D01*
X014761Y007788D01*
X014823Y007665D02*
X014946Y007665D01*
X015008Y007727D01*
X015129Y007665D02*
X015314Y007665D01*
X015376Y007727D01*
X015376Y007850D01*
X015314Y007912D01*
X015129Y007912D01*
X015498Y007850D02*
X015498Y007665D01*
X015683Y007665D01*
X015744Y007727D01*
X015683Y007788D01*
X015498Y007788D01*
X015498Y007850D02*
X015559Y007912D01*
X015683Y007912D01*
X015866Y007850D02*
X015866Y007727D01*
X015928Y007665D01*
X016113Y007665D01*
X016113Y007542D02*
X016113Y007912D01*
X015928Y007912D01*
X015866Y007850D01*
X016234Y007912D02*
X016419Y007912D01*
X016481Y007850D01*
X016419Y007788D01*
X016296Y007788D01*
X016234Y007727D01*
X016296Y007665D01*
X016481Y007665D01*
X016603Y007665D02*
X016727Y007788D01*
X016727Y007912D01*
X016603Y008035D01*
X016777Y008365D02*
X016777Y008735D01*
X016591Y008735D01*
X016530Y008674D01*
X016530Y008550D01*
X016591Y008488D01*
X016777Y008488D01*
X017266Y008365D02*
X017513Y008365D01*
X017266Y008612D01*
X017266Y008674D01*
X017328Y008735D01*
X017452Y008735D01*
X017513Y008674D01*
X018003Y008612D02*
X018065Y008612D01*
X018189Y008488D01*
X018189Y008365D02*
X018189Y008612D01*
X018310Y008550D02*
X018310Y008427D01*
X018372Y008365D01*
X018495Y008365D01*
X018557Y008427D01*
X018557Y008550D01*
X018495Y008612D01*
X018372Y008612D01*
X018310Y008550D01*
X018678Y008550D02*
X018678Y008427D01*
X018740Y008365D01*
X018863Y008365D01*
X018925Y008427D01*
X018925Y008550D01*
X018863Y008612D01*
X018740Y008612D01*
X018678Y008550D01*
X019047Y008427D02*
X019047Y008674D01*
X019108Y008735D01*
X019293Y008735D01*
X019293Y008365D01*
X019108Y008365D01*
X019047Y008427D01*
X019119Y008035D02*
X019119Y007665D01*
X018998Y007727D02*
X018936Y007665D01*
X018751Y007665D01*
X018751Y007850D01*
X018813Y007912D01*
X018936Y007912D01*
X018936Y007788D02*
X018751Y007788D01*
X018630Y007788D02*
X018506Y007912D01*
X018444Y007912D01*
X018323Y007912D02*
X018199Y007912D01*
X018261Y007974D02*
X018261Y007727D01*
X018199Y007665D01*
X018077Y007727D02*
X018015Y007665D01*
X017954Y007727D01*
X017892Y007665D01*
X017830Y007727D01*
X017830Y007912D01*
X017709Y007912D02*
X017647Y007912D01*
X017647Y007665D01*
X017709Y007665D02*
X017585Y007665D01*
X017463Y007727D02*
X017402Y007665D01*
X017216Y007665D01*
X017216Y007603D02*
X017216Y007912D01*
X017402Y007912D01*
X017463Y007850D01*
X017463Y007727D01*
X017340Y007542D02*
X017278Y007542D01*
X017216Y007603D01*
X017647Y008035D02*
X017647Y008097D01*
X018077Y007912D02*
X018077Y007727D01*
X018630Y007665D02*
X018630Y007912D01*
X018936Y007788D02*
X018998Y007727D01*
X019119Y007850D02*
X019366Y007850D01*
X019366Y007665D02*
X019366Y008035D01*
X019856Y007850D02*
X019856Y007665D01*
X019856Y007850D02*
X019918Y007912D01*
X020103Y007912D01*
X020103Y007665D01*
X020224Y007665D02*
X020409Y007665D01*
X020471Y007727D01*
X020409Y007788D01*
X020224Y007788D01*
X020224Y007850D02*
X020224Y007665D01*
X020224Y007850D02*
X020286Y007912D01*
X020409Y007912D01*
X020593Y008035D02*
X020717Y008035D01*
X020655Y008035D02*
X020655Y007665D01*
X020717Y007665D02*
X020593Y007665D01*
X020520Y008365D02*
X020520Y008612D01*
X020643Y008735D01*
X020767Y008612D01*
X020767Y008365D01*
X020767Y008550D02*
X020520Y008550D01*
X020398Y008365D02*
X020398Y008735D01*
X020275Y008612D01*
X020152Y008735D01*
X020152Y008365D01*
X019907Y008365D02*
X019907Y008735D01*
X020030Y008735D02*
X019783Y008735D01*
X016408Y008427D02*
X016347Y008488D01*
X016161Y008488D01*
X016161Y008550D02*
X016161Y008365D01*
X016347Y008365D01*
X016408Y008427D01*
X016347Y008612D02*
X016223Y008612D01*
X016161Y008550D01*
X016040Y008612D02*
X016040Y008365D01*
X015793Y008365D02*
X015793Y008550D01*
X015855Y008612D01*
X016040Y008612D01*
X015672Y008550D02*
X015672Y008427D01*
X015610Y008365D01*
X015487Y008365D01*
X015425Y008488D02*
X015672Y008488D01*
X015672Y008550D02*
X015610Y008612D01*
X015487Y008612D01*
X015425Y008550D01*
X015425Y008488D01*
X015303Y008365D02*
X015180Y008365D01*
X015242Y008365D02*
X015242Y008735D01*
X015303Y008735D01*
X014690Y008735D02*
X014690Y008365D01*
X014443Y008365D02*
X014443Y008735D01*
X014566Y008612D01*
X014690Y008735D01*
X014321Y008735D02*
X014321Y008365D01*
X014074Y008365D01*
X013953Y008365D02*
X013768Y008365D01*
X013706Y008427D01*
X013706Y008488D01*
X013768Y008550D01*
X013953Y008550D01*
X013953Y008365D02*
X013953Y008735D01*
X013768Y008735D01*
X013706Y008674D01*
X013706Y008612D01*
X013768Y008550D01*
X012736Y008097D02*
X012736Y008035D01*
X013288Y007603D02*
X013349Y007542D01*
X013411Y007542D01*
X010343Y007912D02*
X010281Y007912D01*
M02*
