%
M48
M72
T01C0.0236
T02C0.0354
T03C0.0394
T04C0.0400
T05C0.1260
T06C0.1400
%
T01
X2932Y4400
X4532Y5650
X4982Y5100
X7482Y5000
X7882Y5400
X8282Y5800
X8832Y6750
X8232Y7000
X8632Y7400
X7832Y7400
X7382Y6950
X6332Y7450
X4832Y8200
X4232Y8750
X5932Y9700
X10682Y7300
X10482Y6800
X12682Y6750
X13932Y4950
X11332Y5000
X8382Y2950
X16532Y3900
X17982Y3800
X19532Y4600
X22682Y3500
X25632Y7000
X22832Y9700
X24632Y11000
X17032Y6950
X14382Y8750
X13382Y8750
X12082Y10100
X11282Y10400
X15732Y9750
T02
X17166Y9606
X18898Y9606
T03
X22032Y9200
X23032Y8700
X22032Y8200
X23032Y7700
X22032Y7200
X23032Y6700
X22032Y6200
X23032Y5700
T04
X5282Y2250
X6282Y2250
X7282Y2250
X7282Y3250
X6282Y3250
X5282Y3250
X9232Y2200
X10232Y2200
X11232Y2200
X12232Y2200
X13232Y2200
X14232Y2200
X15232Y2200
X16232Y2200
X17232Y2200
X18232Y2200
X19232Y2200
X20232Y2200
X21232Y2200
X22232Y2200
X23232Y2200
X9232Y10500
X8232Y10600
X7232Y10500
X6232Y10600
T05
X25532Y9700
X25532Y5200
T06
X25232Y3050
X3732Y3050
M30
