G75*
G70*
%OFA0B0*%
%FSLAX24Y24*%
%IPPOS*%
%LPD*%
%AMOC8*
5,1,8,0,0,1.08239X$1,22.5*
%
%ADD10C,0.1460*%
%ADD11OC8,0.0760*%
%ADD12C,0.0414*%
%ADD13C,0.0760*%
%ADD14C,0.0800*%
%ADD15R,0.0800X0.0800*%
%ADD16C,0.1320*%
%ADD17C,0.0436*%
D10*
X003732Y003050D03*
X025232Y003050D03*
D11*
X005282Y002250D03*
X006282Y002250D03*
X007282Y002250D03*
X007282Y003250D03*
X006282Y003250D03*
X005282Y003250D03*
D12*
X017166Y009606D03*
X018898Y009606D03*
D13*
X019232Y002200D03*
X020232Y002200D03*
X021232Y002200D03*
X022232Y002200D03*
X023232Y002200D03*
X018232Y002200D03*
X017232Y002200D03*
X016232Y002200D03*
X015232Y002200D03*
X014232Y002200D03*
X013232Y002200D03*
X012232Y002200D03*
X011232Y002200D03*
X010232Y002200D03*
X009232Y002200D03*
D14*
X022032Y006200D03*
X023032Y006700D03*
X022032Y007200D03*
X023032Y007700D03*
X022032Y008200D03*
X023032Y008700D03*
X022032Y009200D03*
X009232Y010500D03*
X008232Y010600D03*
X007232Y010500D03*
D15*
X006232Y010600D03*
X023032Y005700D03*
D16*
X025532Y005200D03*
X025532Y009700D03*
D17*
X024632Y011000D03*
X022832Y009700D03*
X025632Y007000D03*
X019532Y004600D03*
X017982Y003800D03*
X016532Y003900D03*
X013932Y004950D03*
X011332Y005000D03*
X008282Y005800D03*
X007882Y005400D03*
X007482Y005000D03*
X004982Y005100D03*
X004532Y005650D03*
X002932Y004400D03*
X007382Y006950D03*
X007832Y007400D03*
X008632Y007400D03*
X008232Y007000D03*
X008832Y006750D03*
X010482Y006800D03*
X010682Y007300D03*
X012682Y006750D03*
X013382Y008750D03*
X014382Y008750D03*
X015732Y009750D03*
X012082Y010100D03*
X011282Y010400D03*
X005932Y009700D03*
X004232Y008750D03*
X004832Y008200D03*
X006332Y007450D03*
X008382Y002950D03*
X017032Y006950D03*
X022682Y003500D03*
M02*
