G75*
G70*
%OFA0B0*%
%FSLAX24Y24*%
%IPPOS*%
%LPD*%
%AMOC8*
5,1,8,0,0,1.08239X$1,22.5*
%
%ADD10C,0.0030*%
%ADD11R,0.0551X0.0256*%
%ADD12C,0.0050*%
%ADD13C,0.0040*%
%ADD14R,0.0079X0.0079*%
%ADD15C,0.0080*%
%ADD16C,0.0100*%
%ADD17R,0.0256X0.0551*%
%ADD18C,0.0200*%
D10*
X004046Y004878D02*
X004046Y005064D01*
X004108Y005125D01*
X004232Y005125D01*
X004293Y005064D01*
X004293Y004878D01*
X004417Y004878D02*
X004046Y004878D01*
X004293Y005002D02*
X004417Y005125D01*
X004232Y005247D02*
X004232Y005494D01*
X004417Y005432D02*
X004046Y005432D01*
X004232Y005247D01*
X004293Y005865D02*
X004293Y006050D01*
X004232Y006112D01*
X004108Y006112D01*
X004046Y006050D01*
X004046Y005865D01*
X004417Y005865D01*
X004293Y005988D02*
X004417Y006112D01*
X004355Y006233D02*
X004293Y006233D01*
X004232Y006295D01*
X004232Y006418D01*
X004293Y006480D01*
X004355Y006480D01*
X004417Y006418D01*
X004417Y006295D01*
X004355Y006233D01*
X004232Y006295D02*
X004170Y006233D01*
X004108Y006233D01*
X004046Y006295D01*
X004046Y006418D01*
X004108Y006480D01*
X004170Y006480D01*
X004232Y006418D01*
X004108Y006728D02*
X004355Y006728D01*
X004417Y006790D01*
X004417Y006914D01*
X004355Y006975D01*
X004417Y007097D02*
X004170Y007344D01*
X004108Y007344D01*
X004046Y007282D01*
X004046Y007158D01*
X004108Y007097D01*
X004108Y006975D02*
X004046Y006914D01*
X004046Y006790D01*
X004108Y006728D01*
X004417Y007097D02*
X004417Y007344D01*
X004464Y008067D02*
X004402Y008129D01*
X004464Y008067D02*
X004587Y008067D01*
X004649Y008129D01*
X004649Y008190D01*
X004587Y008252D01*
X004525Y008252D01*
X004587Y008252D02*
X004649Y008314D01*
X004649Y008376D01*
X004587Y008437D01*
X004464Y008437D01*
X004402Y008376D01*
X004281Y008437D02*
X004034Y008067D01*
X004281Y008067D02*
X004034Y008437D01*
X004510Y008927D02*
X004572Y008865D01*
X004695Y008865D01*
X004757Y008927D01*
X004878Y008927D02*
X004940Y008865D01*
X005064Y008865D01*
X005125Y008927D01*
X005125Y008988D01*
X005064Y009050D01*
X005002Y009050D01*
X005064Y009050D02*
X005125Y009112D01*
X005125Y009174D01*
X005064Y009235D01*
X004940Y009235D01*
X004878Y009174D01*
X004757Y009174D02*
X004695Y009235D01*
X004572Y009235D01*
X004510Y009174D01*
X004510Y008927D01*
X004494Y010565D02*
X004370Y010688D01*
X004432Y010688D02*
X004247Y010688D01*
X004247Y010565D02*
X004247Y010935D01*
X004432Y010935D01*
X004494Y010874D01*
X004494Y010750D01*
X004432Y010688D01*
X004615Y010627D02*
X004677Y010565D01*
X004800Y010565D01*
X004862Y010627D01*
X004862Y010874D01*
X004800Y010935D01*
X004677Y010935D01*
X004615Y010874D01*
X004615Y010812D01*
X004677Y010750D01*
X004862Y010750D01*
X009433Y008930D02*
X009433Y008683D01*
X009495Y008621D01*
X009618Y008621D01*
X009680Y008683D01*
X009802Y008621D02*
X010048Y008621D01*
X009925Y008621D02*
X009925Y008991D01*
X009802Y008868D01*
X009680Y008930D02*
X009618Y008991D01*
X009495Y008991D01*
X009433Y008930D01*
X010917Y008294D02*
X010917Y008171D01*
X010979Y008109D01*
X010979Y007987D02*
X011102Y007987D01*
X011164Y007926D01*
X011164Y007741D01*
X011164Y007864D02*
X011287Y007987D01*
X011287Y008109D02*
X011041Y008356D01*
X010979Y008356D01*
X010917Y008294D01*
X011287Y008356D02*
X011287Y008109D01*
X010979Y007987D02*
X010917Y007926D01*
X010917Y007741D01*
X011287Y007741D01*
X011646Y007758D02*
X011646Y007943D01*
X011708Y008005D01*
X011832Y008005D01*
X011893Y007943D01*
X011893Y007758D01*
X011893Y007881D02*
X012017Y008005D01*
X012017Y008126D02*
X012017Y008373D01*
X012017Y008249D02*
X011646Y008249D01*
X011770Y008126D01*
X011646Y007758D02*
X012017Y007758D01*
X011882Y007412D02*
X011882Y007165D01*
X012005Y007288D02*
X011758Y007288D01*
X012803Y006768D02*
X012803Y006521D01*
X012865Y006459D01*
X012988Y006459D01*
X013050Y006521D01*
X013171Y006521D02*
X013171Y006583D01*
X013233Y006645D01*
X013356Y006645D01*
X013418Y006583D01*
X013418Y006521D01*
X013356Y006459D01*
X013233Y006459D01*
X013171Y006521D01*
X013233Y006645D02*
X013171Y006706D01*
X013171Y006768D01*
X013233Y006830D01*
X013356Y006830D01*
X013418Y006768D01*
X013418Y006706D01*
X013356Y006645D01*
X013647Y006588D02*
X013832Y006588D01*
X013894Y006650D01*
X013894Y006774D01*
X013832Y006835D01*
X013647Y006835D01*
X013647Y006465D01*
X013770Y006588D02*
X013894Y006465D01*
X014015Y006527D02*
X014077Y006465D01*
X014200Y006465D01*
X014262Y006527D01*
X014262Y006588D01*
X014200Y006650D01*
X014015Y006650D01*
X014015Y006527D01*
X014015Y006650D02*
X014138Y006774D01*
X014262Y006835D01*
X014510Y006774D02*
X014510Y006527D01*
X014572Y006465D01*
X014695Y006465D01*
X014757Y006527D01*
X014878Y006650D02*
X015125Y006650D01*
X015064Y006465D02*
X015064Y006835D01*
X014878Y006650D01*
X014757Y006774D02*
X014695Y006835D01*
X014572Y006835D01*
X014510Y006774D01*
X015408Y007288D02*
X015655Y007288D01*
X015731Y007194D02*
X015669Y007132D01*
X015545Y007132D01*
X015484Y007194D01*
X015484Y007441D01*
X015545Y007503D01*
X015669Y007503D01*
X015731Y007441D01*
X015852Y007503D02*
X015852Y007317D01*
X015975Y007379D01*
X016037Y007379D01*
X016099Y007317D01*
X016099Y007194D01*
X016037Y007132D01*
X015914Y007132D01*
X015852Y007194D01*
X015852Y007503D02*
X016099Y007503D01*
X015532Y007412D02*
X015532Y007165D01*
X013050Y006768D02*
X012988Y006830D01*
X012865Y006830D01*
X012803Y006768D01*
X011612Y006185D02*
X011612Y006124D01*
X011365Y005877D01*
X011365Y005815D01*
X011244Y005815D02*
X011120Y005938D01*
X011182Y005938D02*
X010997Y005938D01*
X010997Y005815D02*
X010997Y006185D01*
X011182Y006185D01*
X011244Y006124D01*
X011244Y006000D01*
X011182Y005938D01*
X011213Y005692D02*
X011090Y005692D01*
X011028Y005630D01*
X011028Y005383D01*
X011090Y005321D01*
X011213Y005321D01*
X011275Y005383D01*
X011396Y005383D02*
X011458Y005321D01*
X011581Y005321D01*
X011643Y005383D01*
X011643Y005630D01*
X011581Y005692D01*
X011458Y005692D01*
X011396Y005630D01*
X011396Y005568D01*
X011458Y005506D01*
X011643Y005506D01*
X011275Y005630D02*
X011213Y005692D01*
X011365Y006185D02*
X011612Y006185D01*
X009534Y006419D02*
X009359Y006244D01*
X009447Y006331D02*
X009185Y006593D01*
X009185Y006419D01*
X009055Y006376D02*
X008968Y006376D01*
X008881Y006289D01*
X008881Y006202D01*
X009055Y006027D01*
X009143Y006027D01*
X009230Y006115D01*
X009230Y006202D01*
X008969Y005854D02*
X008707Y006115D01*
X008663Y006072D02*
X008751Y006159D01*
X009013Y005897D02*
X008925Y005810D01*
X011092Y003985D02*
X011277Y003985D01*
X011339Y003924D01*
X011339Y003800D01*
X011277Y003738D01*
X011092Y003738D01*
X011092Y003615D02*
X011092Y003985D01*
X011460Y003985D02*
X011460Y003615D01*
X011707Y003615D01*
X011828Y003677D02*
X011890Y003615D01*
X012014Y003615D01*
X012075Y003677D01*
X012075Y003738D01*
X012014Y003800D01*
X011828Y003800D01*
X011828Y003677D01*
X011828Y003800D02*
X011952Y003924D01*
X012075Y003985D01*
X012196Y003994D02*
X012196Y003747D01*
X012382Y003747D01*
X012320Y003870D01*
X012320Y003932D01*
X012382Y003994D01*
X012505Y003994D01*
X012567Y003932D01*
X012567Y003808D01*
X012505Y003747D01*
X012567Y003625D02*
X012443Y003502D01*
X012443Y003564D02*
X012443Y003378D01*
X012567Y003378D02*
X012196Y003378D01*
X012196Y003564D01*
X012258Y003625D01*
X012382Y003625D01*
X012443Y003564D01*
X011707Y003985D02*
X011460Y003985D01*
X011460Y003800D02*
X011584Y003800D01*
X011375Y003035D02*
X011128Y003035D01*
X011128Y002850D01*
X011252Y002912D01*
X011314Y002912D01*
X011375Y002850D01*
X011375Y002727D01*
X011314Y002665D01*
X011190Y002665D01*
X011128Y002727D01*
X010325Y002727D02*
X010264Y002665D01*
X010140Y002665D01*
X010078Y002727D01*
X010078Y002850D01*
X010264Y002850D01*
X010325Y002788D01*
X010325Y002727D01*
X010202Y002974D02*
X010078Y002850D01*
X010202Y002974D02*
X010325Y003035D01*
X009625Y003485D02*
X009378Y003485D01*
X009378Y003115D01*
X009375Y002985D02*
X009128Y002985D01*
X009010Y003115D02*
X009010Y003485D01*
X009195Y003485D01*
X009257Y003424D01*
X009257Y003300D01*
X009195Y003238D01*
X009010Y003238D01*
X009378Y003300D02*
X009502Y003300D01*
X009375Y002985D02*
X009375Y002924D01*
X009128Y002677D01*
X009128Y002615D01*
X012078Y002850D02*
X012325Y002850D01*
X012264Y002665D02*
X012264Y003035D01*
X012078Y002850D01*
X013078Y002962D02*
X013202Y003085D01*
X013202Y002715D01*
X013325Y002715D02*
X013078Y002715D01*
X013246Y003428D02*
X013246Y003614D01*
X013308Y003675D01*
X013432Y003675D01*
X013493Y003614D01*
X013493Y003428D01*
X013617Y003428D02*
X013246Y003428D01*
X013493Y003552D02*
X013617Y003675D01*
X013555Y003797D02*
X013617Y003858D01*
X013617Y003982D01*
X013555Y004044D01*
X013493Y004044D01*
X013432Y003982D01*
X013432Y003920D01*
X013432Y003982D02*
X013370Y004044D01*
X013308Y004044D01*
X013246Y003982D01*
X013246Y003858D01*
X013308Y003797D01*
X014078Y003024D02*
X014140Y003085D01*
X014264Y003085D01*
X014325Y003024D01*
X014078Y002777D01*
X014140Y002715D01*
X014264Y002715D01*
X014325Y002777D01*
X014325Y003024D01*
X014078Y003024D02*
X014078Y002777D01*
X015242Y002827D02*
X015303Y002765D01*
X015427Y002765D01*
X015489Y002827D01*
X015489Y002950D01*
X015365Y002950D01*
X015242Y002827D02*
X015242Y003074D01*
X015303Y003135D01*
X015427Y003135D01*
X015489Y003074D01*
X015610Y003135D02*
X015857Y002765D01*
X015857Y003135D01*
X015978Y003135D02*
X016164Y003135D01*
X016225Y003074D01*
X016225Y002827D01*
X016164Y002765D01*
X015978Y002765D01*
X015978Y003135D01*
X015610Y003135D02*
X015610Y002765D01*
X015580Y003615D02*
X015457Y003738D01*
X015518Y003738D02*
X015333Y003738D01*
X015333Y003615D02*
X015333Y003985D01*
X015518Y003985D01*
X015580Y003924D01*
X015580Y003800D01*
X015518Y003738D01*
X015212Y003615D02*
X015212Y003985D01*
X014965Y003985D02*
X014965Y003615D01*
X015088Y003738D01*
X015212Y003615D01*
X014844Y003800D02*
X014782Y003738D01*
X014597Y003738D01*
X014597Y003615D02*
X014597Y003985D01*
X014782Y003985D01*
X014844Y003924D01*
X014844Y003800D01*
X018742Y003024D02*
X018742Y002962D01*
X018803Y002900D01*
X018927Y002900D01*
X018989Y002838D01*
X018989Y002777D01*
X018927Y002715D01*
X018803Y002715D01*
X018742Y002777D01*
X019110Y002715D02*
X019110Y003085D01*
X019357Y002715D01*
X019357Y003085D01*
X019478Y003024D02*
X019478Y002962D01*
X019540Y002900D01*
X019664Y002900D01*
X019725Y002838D01*
X019725Y002777D01*
X019664Y002715D01*
X019540Y002715D01*
X019478Y002777D01*
X019478Y003024D02*
X019540Y003085D01*
X019664Y003085D01*
X019725Y003024D01*
X020342Y003024D02*
X020342Y002962D01*
X020403Y002900D01*
X020527Y002900D01*
X020589Y002838D01*
X020589Y002777D01*
X020527Y002715D01*
X020403Y002715D01*
X020342Y002777D01*
X020342Y003024D02*
X020403Y003085D01*
X020527Y003085D01*
X020589Y003024D01*
X020710Y003024D02*
X020710Y002777D01*
X020772Y002715D01*
X020895Y002715D01*
X020957Y002777D01*
X020957Y003024D01*
X020895Y003085D01*
X020772Y003085D01*
X020710Y003024D01*
X021078Y003085D02*
X021078Y002715D01*
X021325Y002715D01*
X022292Y002827D02*
X022353Y002765D01*
X022477Y002765D01*
X022539Y002827D01*
X022539Y002950D01*
X022415Y002950D01*
X022292Y002827D02*
X022292Y003074D01*
X022353Y003135D01*
X022477Y003135D01*
X022539Y003074D01*
X022660Y003135D02*
X022907Y002765D01*
X022907Y003135D01*
X023028Y003135D02*
X023214Y003135D01*
X023275Y003074D01*
X023275Y002827D01*
X023214Y002765D01*
X023028Y002765D01*
X023028Y003135D01*
X022660Y003135D02*
X022660Y002765D01*
X018989Y003024D02*
X018927Y003085D01*
X018803Y003085D01*
X018742Y003024D01*
X020646Y010434D02*
X021017Y010434D01*
X021017Y010681D01*
X021017Y010802D02*
X021017Y011049D01*
X021017Y010925D02*
X020646Y010925D01*
X020770Y010802D01*
X018478Y010559D02*
X018232Y010559D01*
X018110Y010559D02*
X018110Y010929D01*
X018232Y010806D02*
X018355Y010929D01*
X018355Y010559D01*
X018110Y010559D02*
X017863Y010929D01*
X017863Y010559D01*
X017742Y010620D02*
X017680Y010559D01*
X017557Y010559D01*
X017495Y010620D01*
X017495Y010867D01*
X017557Y010929D01*
X017680Y010929D01*
X017742Y010867D01*
X014187Y010490D02*
X013940Y010490D01*
X014063Y010490D02*
X014063Y010860D01*
X013940Y010737D01*
X013819Y010860D02*
X013819Y010552D01*
X013757Y010490D01*
X013633Y010490D01*
X013572Y010552D01*
X013572Y010860D01*
D11*
X011882Y009421D03*
X011053Y009454D03*
X011053Y008874D03*
X011882Y008841D03*
X011282Y007192D03*
X011282Y006612D03*
X013932Y006142D03*
X013932Y005562D03*
X013931Y004238D03*
X012881Y004238D03*
X012881Y003658D03*
X013931Y003658D03*
D12*
X003282Y004550D02*
X003282Y000950D01*
X005782Y000950D01*
X005782Y001250D01*
X003582Y001250D01*
X003582Y004250D01*
X008982Y004250D01*
X008982Y001250D01*
X006682Y001250D01*
X006682Y000950D01*
X005782Y000950D01*
X006682Y000950D02*
X009282Y000950D01*
X009282Y004550D01*
X003282Y004550D01*
X002840Y007716D02*
X003861Y007716D01*
X003882Y007715D01*
X003903Y007717D01*
X003923Y007722D01*
X003942Y007730D01*
X003959Y007741D01*
X003975Y007754D01*
X003988Y007770D01*
X003999Y007788D01*
X004007Y007807D01*
X004012Y007827D01*
X004012Y009573D01*
X004007Y009593D01*
X003999Y009612D01*
X003988Y009630D01*
X003975Y009646D01*
X003959Y009659D01*
X003942Y009670D01*
X003923Y009678D01*
X003903Y009683D01*
X003882Y009685D01*
X003861Y009684D01*
X002876Y009684D01*
X002857Y009682D01*
X002838Y009678D01*
X002820Y009670D01*
X002803Y009660D01*
X002788Y009648D01*
X002776Y009633D01*
X002766Y009616D01*
X002758Y009598D01*
X002754Y009579D01*
X002752Y009560D01*
X002752Y007804D01*
X002754Y007787D01*
X002759Y007770D01*
X002767Y007755D01*
X002778Y007742D01*
X002791Y007731D01*
X002806Y007723D01*
X002823Y007718D01*
X002840Y007716D01*
X003106Y007913D02*
X003657Y007913D01*
X003658Y007913D02*
X003688Y007917D01*
X003718Y007925D01*
X003747Y007936D01*
X003775Y007951D01*
X003800Y007969D01*
X003823Y007990D01*
X003843Y008014D01*
X003860Y008040D01*
X003874Y008067D01*
X003885Y008097D01*
X003892Y008127D01*
X003895Y008158D01*
X003894Y008189D01*
X003894Y008188D02*
X003894Y009251D01*
X003893Y009251D02*
X003894Y009280D01*
X003891Y009308D01*
X003884Y009336D01*
X003874Y009362D01*
X003860Y009387D01*
X003844Y009410D01*
X003824Y009430D01*
X003802Y009448D01*
X003778Y009463D01*
X003752Y009475D01*
X003725Y009483D01*
X003697Y009487D01*
X003145Y009487D01*
X003146Y009487D02*
X003115Y009488D01*
X003084Y009485D01*
X003054Y009478D01*
X003024Y009467D01*
X002997Y009453D01*
X002971Y009436D01*
X002947Y009416D01*
X002926Y009393D01*
X002908Y009368D01*
X002893Y009340D01*
X002882Y009312D01*
X002874Y009282D01*
X002870Y009251D01*
X002870Y008149D01*
X002872Y008121D01*
X002877Y008093D01*
X002885Y008065D01*
X002897Y008039D01*
X002912Y008015D01*
X002929Y007993D01*
X002950Y007972D01*
X002972Y007955D01*
X002996Y007940D01*
X003022Y007928D01*
X003050Y007920D01*
X003078Y007915D01*
X003106Y007913D01*
X016496Y008189D02*
X019567Y008189D01*
X019292Y008189D02*
X018858Y008189D01*
X019567Y009173D02*
X019567Y010236D01*
X019567Y011811D02*
X016496Y011811D01*
X016496Y010236D02*
X016496Y009173D01*
X016772Y008189D02*
X017205Y008189D01*
D13*
X017259Y006330D02*
X016952Y006023D01*
X017028Y006100D02*
X017259Y005870D01*
X017412Y005870D02*
X017719Y005870D01*
X017566Y005870D02*
X017566Y006330D01*
X017412Y006177D01*
X016952Y006330D02*
X016952Y005870D01*
X010799Y010350D02*
X010738Y010290D01*
X010618Y010290D01*
X010558Y010350D01*
X010678Y010470D02*
X010738Y010470D01*
X010799Y010410D01*
X010799Y010350D01*
X010738Y010470D02*
X010799Y010530D01*
X010799Y010590D01*
X010738Y010650D01*
X010618Y010650D01*
X010558Y010590D01*
X010430Y010590D02*
X010430Y010470D01*
X010370Y010410D01*
X010190Y010410D01*
X010190Y010290D02*
X010190Y010650D01*
X010370Y010650D01*
X010430Y010590D01*
X010062Y010650D02*
X009942Y010650D01*
X010002Y010650D02*
X010002Y010350D01*
X009942Y010290D01*
X009882Y010290D01*
X009822Y010350D01*
X018440Y011380D02*
X018440Y011380D01*
X006124Y004180D02*
X006004Y004120D01*
X005884Y004000D01*
X006064Y004000D01*
X006124Y003940D01*
X006124Y003880D01*
X006064Y003820D01*
X005944Y003820D01*
X005884Y003880D01*
X005884Y004000D01*
X005756Y004000D02*
X005696Y003940D01*
X005516Y003940D01*
X005516Y003820D02*
X005516Y004180D01*
X005696Y004180D01*
X005756Y004120D01*
X005756Y004000D01*
X005387Y003940D02*
X005387Y003880D01*
X005327Y003820D01*
X005207Y003820D01*
X005147Y003880D01*
X005207Y004000D02*
X005327Y004000D01*
X005387Y003940D01*
X005387Y004120D02*
X005327Y004180D01*
X005207Y004180D01*
X005147Y004120D01*
X005147Y004060D01*
X005207Y004000D01*
X005022Y003820D02*
X004902Y003820D01*
X004962Y003820D02*
X004962Y004180D01*
X004902Y004180D02*
X005022Y004180D01*
D14*
X011821Y004350D03*
X014992Y004350D03*
D15*
X016871Y003517D02*
X016871Y005683D01*
X020965Y005683D02*
X020965Y003517D01*
X021595Y004450D02*
X026713Y004450D01*
X026713Y010450D01*
X021595Y010450D01*
X021595Y004450D01*
X015172Y008050D02*
X012592Y008050D01*
X012592Y009350D01*
X015172Y009350D01*
X015172Y008050D01*
X010043Y006961D02*
X010043Y006739D01*
X007593Y004289D01*
X007370Y004289D01*
X004921Y006739D01*
X004921Y006961D01*
X007370Y009411D01*
X007593Y009411D01*
X010043Y006961D01*
X009482Y010050D02*
X008982Y010050D01*
X008732Y010300D01*
X008482Y010050D01*
X007982Y010050D01*
X007732Y010300D01*
X007482Y010050D01*
X006982Y010050D01*
X006732Y010300D01*
X006482Y010050D01*
X005982Y010050D01*
X005732Y010300D01*
X005732Y010800D01*
X005982Y011050D01*
X006482Y011050D01*
X006732Y010800D01*
X006982Y011050D01*
X007482Y011050D01*
X007732Y010800D01*
X007982Y011050D01*
X008482Y011050D01*
X008732Y010800D01*
X008982Y011050D01*
X009482Y011050D01*
X009732Y010800D01*
X009732Y010300D01*
X009482Y010050D01*
D16*
X009598Y006850D02*
X009600Y006870D01*
X009605Y006890D01*
X009615Y006908D01*
X009627Y006925D01*
X009642Y006939D01*
X009660Y006949D01*
X009679Y006957D01*
X009699Y006961D01*
X009719Y006961D01*
X009739Y006957D01*
X009758Y006949D01*
X009776Y006939D01*
X009791Y006925D01*
X009803Y006908D01*
X009813Y006890D01*
X009818Y006870D01*
X009820Y006850D01*
X009818Y006830D01*
X009813Y006810D01*
X009803Y006792D01*
X009791Y006775D01*
X009776Y006761D01*
X009758Y006751D01*
X009739Y006743D01*
X009719Y006739D01*
X009699Y006739D01*
X009679Y006743D01*
X009660Y006751D01*
X009642Y006761D01*
X009627Y006775D01*
X009615Y006792D01*
X009605Y006810D01*
X009600Y006830D01*
X009598Y006850D01*
D17*
X003670Y006151D03*
X003090Y006151D03*
X003094Y005349D03*
X003674Y005349D03*
X003820Y010601D03*
X003240Y010601D03*
D18*
X017182Y004850D02*
X017182Y004350D01*
M02*
