G75*
G70*
%OFA0B0*%
%FSLAX24Y24*%
%IPPOS*%
%LPD*%
%AMOC8*
5,1,8,0,0,1.08239X$1,22.5*
%
%ADD10OC8,0.0700*%
%ADD11C,0.0700*%
%ADD12C,0.0740*%
%ADD13R,0.0740X0.0740*%
%ADD14C,0.0160*%
%ADD15C,0.0376*%
%ADD16C,0.0140*%
%ADD17C,0.0320*%
D10*
X005282Y002250D03*
X006282Y002250D03*
X007282Y002250D03*
X007282Y003250D03*
X006282Y003250D03*
X005282Y003250D03*
D11*
X009232Y002200D03*
X010232Y002200D03*
X011232Y002200D03*
X012232Y002200D03*
X013232Y002200D03*
X014232Y002200D03*
X015232Y002200D03*
X016232Y002200D03*
X017232Y002200D03*
X018232Y002200D03*
X019232Y002200D03*
X020232Y002200D03*
X021232Y002200D03*
X022232Y002200D03*
X023232Y002200D03*
D12*
X022032Y006200D03*
X023032Y006700D03*
X022032Y007200D03*
X023032Y007700D03*
X022032Y008200D03*
X023032Y008700D03*
X022032Y009200D03*
X009232Y010500D03*
X008232Y010600D03*
X007232Y010500D03*
D13*
X006232Y010600D03*
X023032Y005700D03*
D14*
X002462Y001780D02*
X002462Y011320D01*
X007741Y011320D01*
X007662Y011241D01*
X007402Y010981D01*
X007333Y011010D01*
X007130Y011010D01*
X006943Y010932D01*
X006799Y010789D01*
X006742Y010650D01*
X006742Y011028D01*
X006660Y011110D01*
X005804Y011110D01*
X005722Y011028D01*
X005722Y010401D01*
X005512Y010191D01*
X005512Y009809D01*
X005604Y009717D01*
X005604Y009635D01*
X005654Y009514D01*
X005746Y009422D01*
X005866Y009372D01*
X005997Y009372D01*
X006118Y009422D01*
X006210Y009514D01*
X006260Y009635D01*
X006260Y009765D01*
X006210Y009886D01*
X006118Y009978D01*
X005997Y010028D01*
X005971Y010028D01*
X006033Y010090D01*
X006660Y010090D01*
X006742Y010172D01*
X006742Y010350D01*
X006799Y010211D01*
X006943Y010068D01*
X007130Y009990D01*
X007311Y009990D01*
X006341Y009020D01*
X004991Y009020D01*
X004862Y008891D01*
X004612Y008641D01*
X004612Y008444D01*
X004554Y008386D01*
X004504Y008265D01*
X004504Y008135D01*
X004554Y008014D01*
X004646Y007922D01*
X004766Y007872D01*
X004897Y007872D01*
X005018Y007922D01*
X005110Y008014D01*
X005160Y008135D01*
X005160Y008265D01*
X005110Y008386D01*
X005052Y008444D01*
X005052Y008459D01*
X005173Y008580D01*
X006523Y008580D01*
X008061Y010119D01*
X008130Y010090D01*
X008211Y010090D01*
X006891Y008770D01*
X006762Y008641D01*
X006762Y007391D01*
X004891Y005520D01*
X004762Y005391D01*
X004762Y005344D01*
X004704Y005286D01*
X004654Y005165D01*
X004654Y005035D01*
X004704Y004914D01*
X004796Y004822D01*
X004916Y004772D01*
X005047Y004772D01*
X005168Y004822D01*
X005260Y004914D01*
X005310Y005035D01*
X005310Y005165D01*
X005265Y005273D01*
X007086Y007093D01*
X007054Y007015D01*
X007054Y006933D01*
X005691Y005570D01*
X005562Y005441D01*
X005562Y003663D01*
X005485Y003740D01*
X005079Y003740D01*
X004792Y003453D01*
X004792Y003047D01*
X005079Y002760D01*
X005481Y002760D01*
X005461Y002740D01*
X005079Y002740D01*
X004792Y002453D01*
X004792Y002047D01*
X005059Y001780D01*
X002462Y001780D01*
X002462Y001867D02*
X004972Y001867D01*
X004813Y002026D02*
X002462Y002026D01*
X002462Y002184D02*
X003392Y002184D01*
X003547Y002120D02*
X003917Y002120D01*
X004259Y002262D01*
X004520Y002523D01*
X004662Y002865D01*
X004662Y003235D01*
X004520Y003577D01*
X004259Y003838D01*
X003917Y003980D01*
X003547Y003980D01*
X003205Y003838D01*
X002943Y003577D01*
X002802Y003235D01*
X002802Y002865D01*
X002943Y002523D01*
X003205Y002262D01*
X003547Y002120D01*
X003124Y002343D02*
X002462Y002343D01*
X002462Y002501D02*
X002965Y002501D01*
X002887Y002660D02*
X002462Y002660D01*
X002462Y002818D02*
X002821Y002818D01*
X002802Y002977D02*
X002462Y002977D01*
X002462Y003135D02*
X002802Y003135D01*
X002826Y003294D02*
X002462Y003294D01*
X002462Y003452D02*
X002892Y003452D01*
X002977Y003611D02*
X002462Y003611D01*
X002462Y003769D02*
X003135Y003769D01*
X003420Y003928D02*
X002462Y003928D01*
X002462Y004086D02*
X005562Y004086D01*
X005562Y003928D02*
X004043Y003928D01*
X004328Y003769D02*
X005562Y003769D01*
X004949Y003611D02*
X004486Y003611D01*
X004572Y003452D02*
X004792Y003452D01*
X004792Y003294D02*
X004637Y003294D01*
X004662Y003135D02*
X004792Y003135D01*
X004862Y002977D02*
X004662Y002977D01*
X004642Y002818D02*
X005021Y002818D01*
X004998Y002660D02*
X004577Y002660D01*
X004498Y002501D02*
X004840Y002501D01*
X004792Y002343D02*
X004339Y002343D01*
X004071Y002184D02*
X004792Y002184D01*
X005282Y002250D02*
X005782Y002750D01*
X005782Y005350D01*
X007382Y006950D01*
X007054Y006939D02*
X006932Y006939D01*
X006901Y006781D02*
X006773Y006781D01*
X006743Y006622D02*
X006615Y006622D01*
X006584Y006464D02*
X006456Y006464D01*
X006426Y006305D02*
X006298Y006305D01*
X006267Y006147D02*
X006139Y006147D01*
X006109Y005988D02*
X005981Y005988D01*
X005950Y005830D02*
X005822Y005830D01*
X005792Y005671D02*
X005664Y005671D01*
X005633Y005513D02*
X005505Y005513D01*
X005562Y005354D02*
X005347Y005354D01*
X005297Y005196D02*
X005562Y005196D01*
X005562Y005037D02*
X005310Y005037D01*
X005224Y004879D02*
X005562Y004879D01*
X005562Y004720D02*
X002462Y004720D01*
X002462Y004562D02*
X005562Y004562D01*
X005562Y004403D02*
X002462Y004403D01*
X002462Y004245D02*
X005562Y004245D01*
X004739Y004879D02*
X002462Y004879D01*
X002462Y005037D02*
X004654Y005037D01*
X004666Y005196D02*
X002462Y005196D01*
X002462Y005354D02*
X004389Y005354D01*
X004346Y005372D02*
X004466Y005322D01*
X004597Y005322D01*
X004718Y005372D01*
X004810Y005464D01*
X004860Y005585D01*
X004860Y005667D01*
X006315Y007122D01*
X006397Y007122D01*
X006518Y007172D01*
X006610Y007264D01*
X006660Y007385D01*
X006660Y007515D01*
X006610Y007636D01*
X006518Y007728D01*
X006397Y007778D01*
X006266Y007778D01*
X006146Y007728D01*
X006054Y007636D01*
X006004Y007515D01*
X006004Y007433D01*
X004549Y005978D01*
X004466Y005978D01*
X004346Y005928D01*
X004254Y005836D01*
X004204Y005715D01*
X004204Y005585D01*
X004254Y005464D01*
X004346Y005372D01*
X004234Y005513D02*
X002462Y005513D01*
X002462Y005671D02*
X004204Y005671D01*
X004251Y005830D02*
X002462Y005830D01*
X002462Y005988D02*
X004559Y005988D01*
X004717Y006147D02*
X002462Y006147D01*
X002462Y006305D02*
X004876Y006305D01*
X005034Y006464D02*
X002462Y006464D01*
X002462Y006622D02*
X005193Y006622D01*
X005351Y006781D02*
X002462Y006781D01*
X002462Y006939D02*
X005510Y006939D01*
X005668Y007098D02*
X002462Y007098D01*
X002462Y007256D02*
X005827Y007256D01*
X005985Y007415D02*
X002462Y007415D01*
X002462Y007573D02*
X006028Y007573D01*
X006154Y007732D02*
X002462Y007732D01*
X002462Y007890D02*
X004723Y007890D01*
X004941Y007890D02*
X006762Y007890D01*
X006762Y007732D02*
X006509Y007732D01*
X006636Y007573D02*
X006762Y007573D01*
X006762Y007415D02*
X006660Y007415D01*
X006627Y007256D02*
X006602Y007256D01*
X006468Y007098D02*
X006290Y007098D01*
X006310Y006939D02*
X006132Y006939D01*
X006151Y006781D02*
X005973Y006781D01*
X005993Y006622D02*
X005815Y006622D01*
X005834Y006464D02*
X005656Y006464D01*
X005676Y006305D02*
X005498Y006305D01*
X005517Y006147D02*
X005339Y006147D01*
X005359Y005988D02*
X005181Y005988D01*
X005200Y005830D02*
X005022Y005830D01*
X005042Y005671D02*
X004864Y005671D01*
X004883Y005513D02*
X004830Y005513D01*
X004762Y005354D02*
X004675Y005354D01*
X004982Y005300D02*
X004982Y005100D01*
X004982Y005300D02*
X006982Y007300D01*
X006982Y008550D01*
X008732Y010300D01*
X008848Y010106D02*
X007202Y008459D01*
X007202Y007231D01*
X007316Y007278D01*
X007447Y007278D01*
X007544Y007238D01*
X007504Y007335D01*
X007504Y007465D01*
X007554Y007586D01*
X007646Y007678D01*
X007766Y007728D01*
X007897Y007728D01*
X008018Y007678D01*
X008110Y007586D01*
X008160Y007465D01*
X008160Y007335D01*
X008155Y007323D01*
X008166Y007328D01*
X008297Y007328D01*
X008308Y007323D01*
X008304Y007335D01*
X008304Y007465D01*
X008312Y007485D01*
X008312Y008437D01*
X008441Y008565D01*
X010825Y010950D01*
X010882Y011008D01*
X010882Y011060D01*
X008933Y011060D01*
X008952Y011041D02*
X008673Y011320D01*
X024547Y011320D01*
X024446Y011278D01*
X024354Y011186D01*
X024304Y011065D01*
X024304Y011002D01*
X024136Y011170D01*
X024052Y011254D01*
X023941Y011300D01*
X011122Y011300D01*
X011012Y011254D01*
X010927Y011170D01*
X010882Y011060D01*
X010976Y011219D02*
X008774Y011219D01*
X008532Y011150D02*
X008732Y010950D01*
X008952Y010975D02*
X008952Y011041D01*
X008952Y010975D02*
X009021Y011010D01*
X009103Y011036D01*
X009188Y011050D01*
X009212Y011050D01*
X009212Y010520D01*
X009252Y010520D01*
X009782Y010520D01*
X009782Y010543D01*
X009768Y010629D01*
X009741Y010711D01*
X009702Y010788D01*
X009651Y010858D01*
X009590Y010920D01*
X009520Y010970D01*
X009443Y011010D01*
X009361Y011036D01*
X009275Y011050D01*
X009252Y011050D01*
X009252Y010520D01*
X009252Y010480D01*
X009782Y010480D01*
X009782Y010457D01*
X009768Y010371D01*
X009741Y010289D01*
X009702Y010212D01*
X009651Y010142D01*
X009590Y010080D01*
X009520Y010030D01*
X009443Y009990D01*
X009361Y009964D01*
X009275Y009950D01*
X009252Y009950D01*
X009252Y010480D01*
X009212Y010480D01*
X009212Y009950D01*
X009188Y009950D01*
X009103Y009964D01*
X009021Y009990D01*
X008943Y010030D01*
X008873Y010080D01*
X008848Y010106D01*
X008693Y009951D02*
X009185Y009951D01*
X009212Y009951D02*
X009252Y009951D01*
X009278Y009951D02*
X009826Y009951D01*
X009984Y010109D02*
X009619Y010109D01*
X009731Y010268D02*
X010143Y010268D01*
X010301Y010426D02*
X009777Y010426D01*
X009775Y010585D02*
X010460Y010585D01*
X010618Y010743D02*
X009725Y010743D01*
X009608Y010902D02*
X010777Y010902D01*
X010982Y010795D02*
X008532Y008345D01*
X008532Y007500D01*
X008632Y007400D01*
X008752Y007705D02*
X008818Y007678D01*
X008910Y007586D01*
X008960Y007465D01*
X008960Y007335D01*
X008910Y007214D01*
X008818Y007122D01*
X008697Y007072D01*
X008566Y007072D01*
X008555Y007077D01*
X008560Y007065D01*
X008560Y006942D01*
X008646Y007028D01*
X008766Y007078D01*
X008897Y007078D01*
X009018Y007028D01*
X009110Y006936D01*
X009160Y006815D01*
X009160Y006685D01*
X009110Y006564D01*
X009018Y006472D01*
X009013Y006470D01*
X008902Y006359D01*
X008773Y006230D01*
X008473Y006230D01*
X008364Y006121D01*
X008468Y006078D01*
X008560Y005986D01*
X008610Y005865D01*
X008610Y005787D01*
X010571Y003870D01*
X015791Y003870D01*
X016041Y004120D01*
X016288Y004120D01*
X016346Y004178D01*
X016466Y004228D01*
X016597Y004228D01*
X016718Y004178D01*
X016810Y004086D01*
X016860Y003965D01*
X016860Y003835D01*
X016810Y003714D01*
X016718Y003622D01*
X016597Y003572D01*
X016466Y003572D01*
X016346Y003622D01*
X016288Y003680D01*
X016223Y003680D01*
X016113Y003570D01*
X017441Y003570D01*
X017654Y003783D01*
X017654Y003865D01*
X017704Y003986D01*
X017796Y004078D01*
X017916Y004128D01*
X018047Y004128D01*
X018168Y004078D01*
X018260Y003986D01*
X018310Y003865D01*
X018310Y003735D01*
X018260Y003614D01*
X018168Y003522D01*
X018047Y003472D01*
X017965Y003472D01*
X017763Y003270D01*
X018773Y003270D01*
X018902Y003141D01*
X019370Y002673D01*
X019509Y002615D01*
X019647Y002478D01*
X019722Y002297D01*
X019722Y002103D01*
X019647Y001922D01*
X019509Y001785D01*
X019498Y001780D01*
X019965Y001780D01*
X019954Y001785D01*
X019816Y001922D01*
X019742Y002103D01*
X019742Y002297D01*
X019816Y002478D01*
X019954Y002615D01*
X020134Y002690D01*
X020329Y002690D01*
X020509Y002615D01*
X020647Y002478D01*
X020722Y002297D01*
X020722Y002103D01*
X020647Y001922D01*
X020509Y001785D01*
X020498Y001780D01*
X020965Y001780D01*
X020954Y001785D01*
X020816Y001922D01*
X020742Y002103D01*
X020742Y002297D01*
X020816Y002478D01*
X020954Y002615D01*
X021134Y002690D01*
X021329Y002690D01*
X021509Y002615D01*
X021647Y002478D01*
X021714Y002317D01*
X021715Y002324D01*
X021741Y002403D01*
X021778Y002478D01*
X021827Y002545D01*
X021886Y002604D01*
X021954Y002653D01*
X022028Y002691D01*
X022108Y002717D01*
X022190Y002730D01*
X022212Y002730D01*
X022212Y002220D01*
X022252Y002220D01*
X022762Y002220D01*
X023212Y002220D01*
X023212Y002730D01*
X023190Y002730D01*
X023108Y002717D01*
X023028Y002691D01*
X022954Y002653D01*
X022886Y002604D01*
X022827Y002545D01*
X022778Y002478D01*
X022741Y002403D01*
X022732Y002376D01*
X022723Y002403D01*
X022685Y002478D01*
X022636Y002545D01*
X022577Y002604D01*
X022509Y002653D01*
X022435Y002691D01*
X022356Y002717D01*
X022273Y002730D01*
X022252Y002730D01*
X022252Y002220D01*
X022252Y002180D01*
X023212Y002180D01*
X023212Y002220D01*
X023252Y002220D01*
X023762Y002220D01*
X023762Y002242D01*
X023749Y002324D01*
X023723Y002403D01*
X023685Y002478D01*
X023636Y002545D01*
X023577Y002604D01*
X023509Y002653D01*
X023435Y002691D01*
X023356Y002717D01*
X023273Y002730D01*
X023252Y002730D01*
X023252Y002220D01*
X023252Y002180D01*
X023762Y002180D01*
X023762Y002158D01*
X023749Y002076D01*
X023723Y001997D01*
X023685Y001922D01*
X023636Y001855D01*
X023577Y001796D01*
X023555Y001780D01*
X026502Y001780D01*
X026502Y011320D01*
X024717Y011320D01*
X024818Y011278D01*
X024910Y011186D01*
X024960Y011065D01*
X024960Y010935D01*
X024910Y010814D01*
X024818Y010722D01*
X024813Y010720D01*
X024632Y010539D01*
X024632Y007740D01*
X024586Y007630D01*
X024502Y007546D01*
X023533Y006577D01*
X023464Y006411D01*
X023321Y006268D01*
X023181Y006210D01*
X023460Y006210D01*
X023542Y006128D01*
X023542Y005272D01*
X023460Y005190D01*
X022946Y005190D01*
X022186Y004430D01*
X022102Y004346D01*
X021991Y004300D01*
X019665Y004300D01*
X019597Y004272D01*
X019466Y004272D01*
X019399Y004300D01*
X017222Y004300D01*
X017112Y004346D01*
X015007Y006450D01*
X012815Y006450D01*
X012747Y006422D01*
X012616Y006422D01*
X012496Y006472D01*
X012404Y006564D01*
X012354Y006685D01*
X012354Y006815D01*
X012404Y006936D01*
X012496Y007028D01*
X012616Y007078D01*
X012747Y007078D01*
X012815Y007050D01*
X015191Y007050D01*
X015302Y007004D01*
X015386Y006920D01*
X015386Y006920D01*
X017406Y004900D01*
X019399Y004900D01*
X019466Y004928D01*
X019597Y004928D01*
X019665Y004900D01*
X021807Y004900D01*
X022522Y005614D01*
X022522Y005950D01*
X022502Y005912D01*
X022451Y005842D01*
X022390Y005780D01*
X022320Y005730D01*
X022243Y005690D01*
X022161Y005664D01*
X022075Y005650D01*
X022050Y005650D01*
X022050Y006182D01*
X022050Y006218D01*
X022582Y006218D01*
X022582Y006243D01*
X022568Y006329D01*
X022541Y006411D01*
X022502Y006488D01*
X022451Y006558D01*
X022390Y006620D01*
X022320Y006670D01*
X022262Y006700D01*
X022320Y006730D01*
X022390Y006780D01*
X022451Y006842D01*
X022502Y006912D01*
X022541Y006989D01*
X022568Y007071D01*
X022582Y007157D01*
X022582Y007182D01*
X022050Y007182D01*
X022050Y007218D01*
X022582Y007218D01*
X022582Y007243D01*
X022568Y007329D01*
X022541Y007411D01*
X022502Y007488D01*
X022451Y007558D01*
X022390Y007620D01*
X022320Y007670D01*
X022243Y007710D01*
X022208Y007721D01*
X022321Y007768D01*
X022464Y007911D01*
X022497Y007990D01*
X022600Y007990D01*
X022599Y007989D01*
X022522Y007801D01*
X022522Y007599D01*
X022599Y007411D01*
X022743Y007268D01*
X022906Y007200D01*
X022743Y007132D01*
X022599Y006989D01*
X022522Y006801D01*
X022522Y006599D01*
X022599Y006411D01*
X022743Y006268D01*
X022882Y006210D01*
X022604Y006210D01*
X022575Y006182D01*
X022050Y006182D01*
X022013Y006182D01*
X021482Y006182D01*
X021482Y006157D01*
X021495Y006071D01*
X021522Y005989D01*
X021561Y005912D01*
X021612Y005842D01*
X021673Y005780D01*
X021743Y005730D01*
X021821Y005690D01*
X021903Y005664D01*
X021988Y005650D01*
X022013Y005650D01*
X022013Y006182D01*
X022013Y006218D01*
X021482Y006218D01*
X021482Y006243D01*
X021495Y006329D01*
X021522Y006411D01*
X021561Y006488D01*
X021612Y006558D01*
X021673Y006620D01*
X021743Y006670D01*
X021802Y006700D01*
X021743Y006730D01*
X021673Y006780D01*
X021612Y006842D01*
X021561Y006912D01*
X021522Y006989D01*
X021495Y007071D01*
X021482Y007157D01*
X021482Y007182D01*
X022013Y007182D01*
X022013Y007218D01*
X021482Y007218D01*
X021482Y007243D01*
X021495Y007329D01*
X021522Y007411D01*
X021561Y007488D01*
X021612Y007558D01*
X021673Y007620D01*
X021743Y007670D01*
X021821Y007710D01*
X021855Y007721D01*
X021743Y007768D01*
X021599Y007911D01*
X021522Y008099D01*
X021522Y008301D01*
X021599Y008489D01*
X021743Y008632D01*
X021855Y008679D01*
X021821Y008690D01*
X021743Y008730D01*
X021673Y008780D01*
X021612Y008842D01*
X021561Y008912D01*
X021522Y008989D01*
X021495Y009071D01*
X021482Y009157D01*
X021482Y009182D01*
X022013Y009182D01*
X022013Y009218D01*
X021482Y009218D01*
X021482Y009243D01*
X021495Y009329D01*
X021522Y009411D01*
X021561Y009488D01*
X021612Y009558D01*
X021673Y009620D01*
X021743Y009670D01*
X021821Y009710D01*
X021903Y009736D01*
X021988Y009750D01*
X022013Y009750D01*
X022013Y009218D01*
X022050Y009218D01*
X022582Y009218D01*
X022582Y009243D01*
X022568Y009329D01*
X022541Y009411D01*
X022502Y009488D01*
X022451Y009558D01*
X022390Y009620D01*
X022320Y009670D01*
X022243Y009710D01*
X022161Y009736D01*
X022075Y009750D01*
X022050Y009750D01*
X022050Y009218D01*
X022050Y009182D01*
X022582Y009182D01*
X022582Y009157D01*
X022568Y009071D01*
X022541Y008989D01*
X022502Y008912D01*
X022451Y008842D01*
X022390Y008780D01*
X022320Y008730D01*
X022243Y008690D01*
X022208Y008679D01*
X022321Y008632D01*
X022464Y008489D01*
X022497Y008410D01*
X022600Y008410D01*
X022599Y008411D01*
X022522Y008599D01*
X022522Y008801D01*
X022599Y008989D01*
X022743Y009132D01*
X022930Y009210D01*
X023133Y009210D01*
X023321Y009132D01*
X023422Y009031D01*
X023422Y009863D01*
X023195Y010090D01*
X012410Y010090D01*
X012410Y010035D01*
X012360Y009914D01*
X012268Y009822D01*
X012147Y009772D01*
X012016Y009772D01*
X011896Y009822D01*
X011804Y009914D01*
X011754Y010035D01*
X011754Y010165D01*
X011804Y010286D01*
X011896Y010378D01*
X011924Y010390D01*
X011610Y010390D01*
X011610Y010335D01*
X011560Y010214D01*
X011468Y010122D01*
X011347Y010072D01*
X011216Y010072D01*
X011096Y010122D01*
X011004Y010214D01*
X010954Y010335D01*
X010954Y010456D01*
X008752Y008254D01*
X008752Y007705D01*
X008752Y007732D02*
X009902Y007732D01*
X009841Y007670D02*
X009712Y007541D01*
X009712Y006309D01*
X011004Y005017D01*
X011004Y004935D01*
X011054Y004814D01*
X011146Y004722D01*
X011266Y004672D01*
X011397Y004672D01*
X011518Y004722D01*
X011610Y004814D01*
X011660Y004935D01*
X011660Y005065D01*
X011610Y005186D01*
X011518Y005278D01*
X011397Y005328D01*
X011315Y005328D01*
X010152Y006491D01*
X010152Y007359D01*
X010323Y007530D01*
X010448Y007530D01*
X010404Y007486D01*
X010354Y007365D01*
X010354Y007235D01*
X010401Y007122D01*
X010296Y007078D01*
X010204Y006986D01*
X010154Y006865D01*
X010154Y006735D01*
X010204Y006614D01*
X010296Y006522D01*
X010416Y006472D01*
X010499Y006472D01*
X011041Y005930D01*
X012641Y005930D01*
X013604Y004967D01*
X013604Y004885D01*
X013654Y004764D01*
X013746Y004672D01*
X013866Y004622D01*
X013997Y004622D01*
X014118Y004672D01*
X014210Y004764D01*
X014260Y004885D01*
X014260Y005015D01*
X014210Y005136D01*
X014118Y005228D01*
X013997Y005278D01*
X013915Y005278D01*
X012952Y006241D01*
X012823Y006370D01*
X011223Y006370D01*
X010810Y006783D01*
X010810Y006865D01*
X010763Y006978D01*
X010868Y007022D01*
X010960Y007114D01*
X011010Y007235D01*
X011010Y007365D01*
X011002Y007385D01*
X011002Y007741D01*
X010902Y007841D01*
X010773Y007970D01*
X010141Y007970D01*
X009841Y007670D01*
X009744Y007573D02*
X008915Y007573D01*
X008960Y007415D02*
X009712Y007415D01*
X009712Y007256D02*
X008927Y007256D01*
X008759Y007098D02*
X009712Y007098D01*
X009712Y006939D02*
X009107Y006939D01*
X009160Y006781D02*
X009712Y006781D01*
X009712Y006622D02*
X009134Y006622D01*
X009006Y006464D02*
X009712Y006464D01*
X009716Y006305D02*
X008848Y006305D01*
X008682Y006450D02*
X008382Y006450D01*
X007832Y005900D01*
X007632Y005900D01*
X007082Y005350D01*
X007082Y004250D01*
X007832Y003500D01*
X007832Y002800D01*
X007282Y002250D01*
X007772Y002184D02*
X008742Y002184D01*
X008742Y002103D02*
X008742Y002297D01*
X008816Y002478D01*
X008954Y002615D01*
X009134Y002690D01*
X009329Y002690D01*
X009509Y002615D01*
X009647Y002478D01*
X009722Y002297D01*
X009722Y002103D01*
X009647Y001922D01*
X009509Y001785D01*
X009498Y001780D01*
X009965Y001780D01*
X009954Y001785D01*
X009816Y001922D01*
X009742Y002103D01*
X009742Y002297D01*
X009816Y002478D01*
X009954Y002615D01*
X010134Y002690D01*
X010329Y002690D01*
X010509Y002615D01*
X010647Y002478D01*
X010722Y002297D01*
X010722Y002103D01*
X010647Y001922D01*
X010509Y001785D01*
X010498Y001780D01*
X010965Y001780D01*
X010954Y001785D01*
X010816Y001922D01*
X010742Y002103D01*
X010742Y002297D01*
X010816Y002478D01*
X010954Y002615D01*
X011134Y002690D01*
X011329Y002690D01*
X011509Y002615D01*
X011647Y002478D01*
X011722Y002297D01*
X011722Y002103D01*
X011647Y001922D01*
X011509Y001785D01*
X011498Y001780D01*
X011965Y001780D01*
X011954Y001785D01*
X011816Y001922D01*
X011742Y002103D01*
X011742Y002297D01*
X011816Y002478D01*
X011954Y002615D01*
X012134Y002690D01*
X012329Y002690D01*
X012509Y002615D01*
X012647Y002478D01*
X012722Y002297D01*
X012722Y002103D01*
X012647Y001922D01*
X012509Y001785D01*
X012498Y001780D01*
X012965Y001780D01*
X012954Y001785D01*
X012816Y001922D01*
X012742Y002103D01*
X012742Y002297D01*
X012816Y002478D01*
X012954Y002615D01*
X013134Y002690D01*
X013329Y002690D01*
X013509Y002615D01*
X013647Y002478D01*
X013722Y002297D01*
X013722Y002103D01*
X013647Y001922D01*
X013509Y001785D01*
X013498Y001780D01*
X013965Y001780D01*
X013954Y001785D01*
X013816Y001922D01*
X013742Y002103D01*
X013742Y002297D01*
X013816Y002478D01*
X013954Y002615D01*
X014134Y002690D01*
X014329Y002690D01*
X014509Y002615D01*
X014647Y002478D01*
X014714Y002317D01*
X014715Y002324D01*
X014741Y002403D01*
X014778Y002478D01*
X014827Y002545D01*
X014886Y002604D01*
X014954Y002653D01*
X015028Y002691D01*
X015108Y002717D01*
X015190Y002730D01*
X015212Y002730D01*
X015212Y002220D01*
X015252Y002220D01*
X015702Y002220D01*
X016212Y002220D01*
X016212Y002730D01*
X016190Y002730D01*
X016108Y002717D01*
X016028Y002691D01*
X015954Y002653D01*
X015886Y002604D01*
X015827Y002545D01*
X015778Y002478D01*
X015741Y002403D01*
X015732Y002376D01*
X015723Y002403D01*
X015685Y002478D01*
X015636Y002545D01*
X015577Y002604D01*
X015509Y002653D01*
X015435Y002691D01*
X015356Y002717D01*
X015273Y002730D01*
X015252Y002730D01*
X015252Y002220D01*
X015252Y002180D01*
X016212Y002180D01*
X016212Y002220D01*
X016252Y002220D01*
X016252Y002730D01*
X016273Y002730D01*
X016356Y002717D01*
X016435Y002691D01*
X016509Y002653D01*
X016577Y002604D01*
X016636Y002545D01*
X016685Y002478D01*
X016723Y002403D01*
X016749Y002324D01*
X016750Y002317D01*
X016816Y002478D01*
X016954Y002615D01*
X017134Y002690D01*
X017329Y002690D01*
X017509Y002615D01*
X017647Y002478D01*
X017722Y002297D01*
X017722Y002103D01*
X017647Y001922D01*
X017509Y001785D01*
X017498Y001780D01*
X017965Y001780D01*
X017954Y001785D01*
X017816Y001922D01*
X017742Y002103D01*
X017742Y002297D01*
X017816Y002478D01*
X017954Y002615D01*
X018134Y002690D01*
X018329Y002690D01*
X018509Y002615D01*
X018647Y002478D01*
X018722Y002297D01*
X018722Y002103D01*
X018647Y001922D01*
X018509Y001785D01*
X018498Y001780D01*
X018965Y001780D01*
X018954Y001785D01*
X018816Y001922D01*
X018742Y002103D01*
X018742Y002297D01*
X018816Y002478D01*
X018880Y002541D01*
X018591Y002830D01*
X009534Y002830D01*
X009446Y002828D01*
X009444Y002830D01*
X009441Y002830D01*
X009378Y002893D01*
X007507Y004672D01*
X007416Y004672D01*
X007302Y004719D01*
X007302Y004341D01*
X007923Y003720D01*
X007923Y003720D01*
X008052Y003591D01*
X008052Y002709D01*
X007923Y002580D01*
X007923Y002580D01*
X007772Y002429D01*
X007772Y002047D01*
X007505Y001780D01*
X008965Y001780D01*
X008954Y001785D01*
X008816Y001922D01*
X008742Y002103D01*
X008774Y002026D02*
X007750Y002026D01*
X007592Y001867D02*
X008872Y001867D01*
X008760Y002343D02*
X007772Y002343D01*
X007844Y002501D02*
X008840Y002501D01*
X009061Y002660D02*
X008002Y002660D01*
X008052Y002818D02*
X018603Y002818D01*
X018761Y002660D02*
X018403Y002660D01*
X018624Y002501D02*
X018840Y002501D01*
X018760Y002343D02*
X018703Y002343D01*
X018722Y002184D02*
X018742Y002184D01*
X018774Y002026D02*
X018690Y002026D01*
X018592Y001867D02*
X018872Y001867D01*
X019232Y002200D02*
X019232Y002500D01*
X018682Y003050D01*
X009532Y003050D01*
X007482Y005000D01*
X007623Y004562D02*
X007302Y004562D01*
X007302Y004403D02*
X007790Y004403D01*
X007957Y004245D02*
X007398Y004245D01*
X007557Y004086D02*
X008123Y004086D01*
X008290Y003928D02*
X007715Y003928D01*
X007874Y003769D02*
X008457Y003769D01*
X008623Y003611D02*
X008032Y003611D01*
X008052Y003452D02*
X008790Y003452D01*
X008957Y003294D02*
X008052Y003294D01*
X008052Y003135D02*
X009123Y003135D01*
X009290Y002977D02*
X008052Y002977D01*
X006782Y002750D02*
X006282Y002250D01*
X006782Y002750D02*
X006782Y005550D01*
X007432Y006200D01*
X007732Y006200D01*
X008232Y006700D01*
X008232Y007000D01*
X007832Y006700D02*
X007632Y006500D01*
X007332Y006500D01*
X006282Y005450D01*
X006282Y003250D01*
X009403Y002660D02*
X010061Y002660D01*
X009840Y002501D02*
X009624Y002501D01*
X009703Y002343D02*
X009760Y002343D01*
X009742Y002184D02*
X009722Y002184D01*
X009690Y002026D02*
X009774Y002026D01*
X009872Y001867D02*
X009592Y001867D01*
X010592Y001867D02*
X010872Y001867D01*
X010774Y002026D02*
X010690Y002026D01*
X010722Y002184D02*
X010742Y002184D01*
X010760Y002343D02*
X010703Y002343D01*
X010624Y002501D02*
X010840Y002501D01*
X011061Y002660D02*
X010403Y002660D01*
X011403Y002660D02*
X012061Y002660D01*
X011840Y002501D02*
X011624Y002501D01*
X011703Y002343D02*
X011760Y002343D01*
X011742Y002184D02*
X011722Y002184D01*
X011690Y002026D02*
X011774Y002026D01*
X011872Y001867D02*
X011592Y001867D01*
X012592Y001867D02*
X012872Y001867D01*
X012774Y002026D02*
X012690Y002026D01*
X012722Y002184D02*
X012742Y002184D01*
X012760Y002343D02*
X012703Y002343D01*
X012624Y002501D02*
X012840Y002501D01*
X013061Y002660D02*
X012403Y002660D01*
X013403Y002660D02*
X014061Y002660D01*
X013840Y002501D02*
X013624Y002501D01*
X013703Y002343D02*
X013760Y002343D01*
X013742Y002184D02*
X013722Y002184D01*
X013690Y002026D02*
X013774Y002026D01*
X013872Y001867D02*
X013592Y001867D01*
X014624Y002501D02*
X014795Y002501D01*
X014721Y002343D02*
X014703Y002343D01*
X014966Y002660D02*
X014403Y002660D01*
X015212Y002660D02*
X015252Y002660D01*
X015252Y002501D02*
X015212Y002501D01*
X015212Y002343D02*
X015252Y002343D01*
X015252Y002184D02*
X016212Y002184D01*
X016212Y002343D02*
X016252Y002343D01*
X016252Y002501D02*
X016212Y002501D01*
X016212Y002660D02*
X016252Y002660D01*
X016497Y002660D02*
X017061Y002660D01*
X016840Y002501D02*
X016668Y002501D01*
X016743Y002343D02*
X016760Y002343D01*
X017403Y002660D02*
X018061Y002660D01*
X017840Y002501D02*
X017624Y002501D01*
X017703Y002343D02*
X017760Y002343D01*
X017742Y002184D02*
X017722Y002184D01*
X017690Y002026D02*
X017774Y002026D01*
X017872Y001867D02*
X017592Y001867D01*
X015966Y002660D02*
X015497Y002660D01*
X015668Y002501D02*
X015795Y002501D01*
X017532Y003350D02*
X017982Y003800D01*
X018284Y003928D02*
X024920Y003928D01*
X025047Y003980D02*
X024705Y003838D01*
X024443Y003577D01*
X024302Y003235D01*
X024302Y002865D01*
X024443Y002523D01*
X024705Y002262D01*
X025047Y002120D01*
X025417Y002120D01*
X025759Y002262D01*
X026020Y002523D01*
X026162Y002865D01*
X026162Y003235D01*
X026020Y003577D01*
X025759Y003838D01*
X025417Y003980D01*
X025047Y003980D01*
X024635Y003769D02*
X018310Y003769D01*
X018256Y003611D02*
X024477Y003611D01*
X024392Y003452D02*
X017945Y003452D01*
X017786Y003294D02*
X024326Y003294D01*
X024302Y003135D02*
X018908Y003135D01*
X019066Y002977D02*
X024302Y002977D01*
X024321Y002818D02*
X019225Y002818D01*
X019403Y002660D02*
X020061Y002660D01*
X019840Y002501D02*
X019624Y002501D01*
X019703Y002343D02*
X019760Y002343D01*
X019742Y002184D02*
X019722Y002184D01*
X019690Y002026D02*
X019774Y002026D01*
X019872Y001867D02*
X019592Y001867D01*
X020592Y001867D02*
X020872Y001867D01*
X020774Y002026D02*
X020690Y002026D01*
X020722Y002184D02*
X020742Y002184D01*
X020760Y002343D02*
X020703Y002343D01*
X020624Y002501D02*
X020840Y002501D01*
X021061Y002660D02*
X020403Y002660D01*
X021403Y002660D02*
X021966Y002660D01*
X021795Y002501D02*
X021624Y002501D01*
X021703Y002343D02*
X021721Y002343D01*
X022212Y002343D02*
X022252Y002343D01*
X022252Y002501D02*
X022212Y002501D01*
X022212Y002660D02*
X022252Y002660D01*
X022497Y002660D02*
X022966Y002660D01*
X022795Y002501D02*
X022668Y002501D01*
X022252Y002184D02*
X023212Y002184D01*
X023252Y002184D02*
X024892Y002184D01*
X024624Y002343D02*
X023743Y002343D01*
X023668Y002501D02*
X024465Y002501D01*
X024387Y002660D02*
X023497Y002660D01*
X023252Y002660D02*
X023212Y002660D01*
X023212Y002501D02*
X023252Y002501D01*
X023252Y002343D02*
X023212Y002343D01*
X023732Y002026D02*
X026502Y002026D01*
X026502Y002184D02*
X025571Y002184D01*
X025839Y002343D02*
X026502Y002343D01*
X026502Y002501D02*
X025998Y002501D01*
X026077Y002660D02*
X026502Y002660D01*
X026502Y002818D02*
X026142Y002818D01*
X026162Y002977D02*
X026502Y002977D01*
X026502Y003135D02*
X026162Y003135D01*
X026137Y003294D02*
X026502Y003294D01*
X026502Y003452D02*
X026072Y003452D01*
X025986Y003611D02*
X026502Y003611D01*
X026502Y003769D02*
X025828Y003769D01*
X025543Y003928D02*
X026502Y003928D01*
X026502Y004086D02*
X018149Y004086D01*
X017815Y004086D02*
X016810Y004086D01*
X016860Y003928D02*
X017679Y003928D01*
X017640Y003769D02*
X016833Y003769D01*
X016690Y003611D02*
X017481Y003611D01*
X017532Y003350D02*
X009982Y003350D01*
X007932Y005350D01*
X007882Y005400D01*
X008282Y005800D02*
X010482Y003650D01*
X015882Y003650D01*
X016132Y003900D01*
X016532Y003900D01*
X016373Y003611D02*
X016153Y003611D01*
X015848Y003928D02*
X010513Y003928D01*
X010350Y004086D02*
X016007Y004086D01*
X016896Y004562D02*
X009864Y004562D01*
X009702Y004720D02*
X011150Y004720D01*
X011027Y004879D02*
X009539Y004879D01*
X009377Y005037D02*
X010984Y005037D01*
X010825Y005196D02*
X009215Y005196D01*
X009053Y005354D02*
X010667Y005354D01*
X010508Y005513D02*
X008891Y005513D01*
X008728Y005671D02*
X010350Y005671D01*
X010191Y005830D02*
X008610Y005830D01*
X008558Y005988D02*
X010033Y005988D01*
X009874Y006147D02*
X008389Y006147D01*
X008682Y006450D02*
X008832Y006600D01*
X008832Y006750D01*
X007832Y006700D02*
X007832Y007400D01*
X008160Y007415D02*
X008304Y007415D01*
X008312Y007573D02*
X008115Y007573D01*
X008312Y007732D02*
X007202Y007732D01*
X007202Y007890D02*
X008312Y007890D01*
X008312Y008049D02*
X007202Y008049D01*
X007202Y008207D02*
X008312Y008207D01*
X008312Y008366D02*
X007202Y008366D01*
X007267Y008524D02*
X008399Y008524D01*
X008558Y008683D02*
X007425Y008683D01*
X007584Y008841D02*
X008716Y008841D01*
X008875Y009000D02*
X007742Y009000D01*
X007901Y009158D02*
X009033Y009158D01*
X009192Y009317D02*
X008059Y009317D01*
X008218Y009475D02*
X009350Y009475D01*
X009509Y009634D02*
X008376Y009634D01*
X008535Y009792D02*
X009667Y009792D01*
X010131Y009634D02*
X016758Y009634D01*
X016758Y009687D02*
X016758Y009525D01*
X016820Y009376D01*
X016935Y009261D01*
X017085Y009199D01*
X017247Y009199D01*
X017396Y009261D01*
X017511Y009376D01*
X017573Y009525D01*
X017573Y009687D01*
X017511Y009837D01*
X017396Y009951D01*
X017247Y010013D01*
X017085Y010013D01*
X016935Y009951D01*
X016820Y009837D01*
X016758Y009687D01*
X016802Y009792D02*
X012196Y009792D01*
X011968Y009792D02*
X010289Y009792D01*
X010448Y009951D02*
X011788Y009951D01*
X011754Y010109D02*
X011437Y010109D01*
X011582Y010268D02*
X011796Y010268D01*
X012375Y009951D02*
X016934Y009951D01*
X017397Y009951D02*
X018666Y009951D01*
X018667Y009951D02*
X018553Y009837D01*
X018491Y009687D01*
X018491Y009525D01*
X018553Y009376D01*
X018667Y009261D01*
X018817Y009199D01*
X018979Y009199D01*
X019128Y009261D01*
X019243Y009376D01*
X019305Y009525D01*
X019305Y009687D01*
X019243Y009837D01*
X019128Y009951D01*
X018979Y010013D01*
X018817Y010013D01*
X018667Y009951D01*
X018534Y009792D02*
X017529Y009792D01*
X017573Y009634D02*
X018491Y009634D01*
X018512Y009475D02*
X017552Y009475D01*
X017452Y009317D02*
X018612Y009317D01*
X019184Y009317D02*
X021493Y009317D01*
X021482Y009158D02*
X009655Y009158D01*
X009497Y009000D02*
X021519Y009000D01*
X021613Y008841D02*
X009338Y008841D01*
X009180Y008683D02*
X021845Y008683D01*
X021634Y008524D02*
X009021Y008524D01*
X008863Y008366D02*
X021548Y008366D01*
X021522Y008207D02*
X008752Y008207D01*
X008752Y008049D02*
X021542Y008049D01*
X021620Y007890D02*
X010853Y007890D01*
X011002Y007732D02*
X021830Y007732D01*
X021627Y007573D02*
X011002Y007573D01*
X011002Y007415D02*
X021524Y007415D01*
X021484Y007256D02*
X011010Y007256D01*
X010943Y007098D02*
X021491Y007098D01*
X021547Y006939D02*
X015367Y006939D01*
X015525Y006781D02*
X021673Y006781D01*
X021677Y006622D02*
X015684Y006622D01*
X015842Y006464D02*
X021549Y006464D01*
X021491Y006305D02*
X016001Y006305D01*
X016159Y006147D02*
X021483Y006147D01*
X021522Y005988D02*
X016318Y005988D01*
X016476Y005830D02*
X021624Y005830D01*
X021880Y005671D02*
X016635Y005671D01*
X016793Y005513D02*
X022420Y005513D01*
X022522Y005671D02*
X022183Y005671D01*
X022050Y005671D02*
X022013Y005671D01*
X022013Y005830D02*
X022050Y005830D01*
X022050Y005988D02*
X022013Y005988D01*
X022013Y006147D02*
X022050Y006147D01*
X022050Y006218D02*
X022013Y006218D01*
X022013Y006750D01*
X022013Y007182D01*
X022050Y007182D01*
X022050Y006218D01*
X022050Y006305D02*
X022013Y006305D01*
X022013Y006464D02*
X022050Y006464D01*
X022050Y006622D02*
X022013Y006622D01*
X022013Y006781D02*
X022050Y006781D01*
X022050Y006939D02*
X022013Y006939D01*
X022013Y007098D02*
X022050Y007098D01*
X022390Y006781D02*
X022522Y006781D01*
X022516Y006939D02*
X022579Y006939D01*
X022572Y007098D02*
X022708Y007098D01*
X022771Y007256D02*
X022580Y007256D01*
X022598Y007415D02*
X022540Y007415D01*
X022532Y007573D02*
X022437Y007573D01*
X022522Y007732D02*
X022233Y007732D01*
X022443Y007890D02*
X022558Y007890D01*
X022553Y008524D02*
X022429Y008524D01*
X022522Y008683D02*
X022219Y008683D01*
X022451Y008841D02*
X022538Y008841D01*
X022545Y009000D02*
X022610Y009000D01*
X022582Y009158D02*
X022805Y009158D01*
X022570Y009317D02*
X023422Y009317D01*
X023422Y009475D02*
X022509Y009475D01*
X022371Y009634D02*
X023422Y009634D01*
X023422Y009792D02*
X019262Y009792D01*
X019305Y009634D02*
X021693Y009634D01*
X021555Y009475D02*
X019284Y009475D01*
X019129Y009951D02*
X023334Y009951D01*
X024332Y010550D02*
X024632Y010850D01*
X024632Y011000D01*
X024946Y010902D02*
X026502Y010902D01*
X026502Y011060D02*
X024960Y011060D01*
X024877Y011219D02*
X026502Y011219D01*
X026502Y010743D02*
X024839Y010743D01*
X024677Y010585D02*
X026502Y010585D01*
X026502Y010426D02*
X026022Y010426D01*
X026019Y010429D02*
X025703Y010560D01*
X025361Y010560D01*
X025045Y010429D01*
X024803Y010187D01*
X024672Y009871D01*
X024672Y009529D01*
X024803Y009213D01*
X025045Y008971D01*
X025361Y008840D01*
X025703Y008840D01*
X026019Y008971D01*
X026261Y009213D01*
X026392Y009529D01*
X026392Y009871D01*
X026261Y010187D01*
X026019Y010429D01*
X026180Y010268D02*
X026502Y010268D01*
X026502Y010109D02*
X026293Y010109D01*
X026359Y009951D02*
X026502Y009951D01*
X026502Y009792D02*
X026392Y009792D01*
X026392Y009634D02*
X026502Y009634D01*
X026502Y009475D02*
X026369Y009475D01*
X026304Y009317D02*
X026502Y009317D01*
X026502Y009158D02*
X026206Y009158D01*
X026047Y009000D02*
X026502Y009000D01*
X026502Y008841D02*
X025705Y008841D01*
X025358Y008841D02*
X024632Y008841D01*
X024632Y008683D02*
X026502Y008683D01*
X026502Y008524D02*
X024632Y008524D01*
X024632Y008366D02*
X026502Y008366D01*
X026502Y008207D02*
X024632Y008207D01*
X024632Y008049D02*
X026502Y008049D01*
X026502Y007890D02*
X024632Y007890D01*
X024628Y007732D02*
X026502Y007732D01*
X026502Y007573D02*
X024529Y007573D01*
X024370Y007415D02*
X026502Y007415D01*
X026502Y007256D02*
X024212Y007256D01*
X024053Y007098D02*
X026502Y007098D01*
X026502Y006939D02*
X023895Y006939D01*
X023736Y006781D02*
X026502Y006781D01*
X026502Y006622D02*
X023578Y006622D01*
X023486Y006464D02*
X026502Y006464D01*
X026502Y006305D02*
X023358Y006305D01*
X023523Y006147D02*
X026502Y006147D01*
X026502Y005988D02*
X025876Y005988D01*
X026019Y005929D02*
X025703Y006060D01*
X025361Y006060D01*
X025045Y005929D01*
X024803Y005687D01*
X024672Y005371D01*
X024672Y005029D01*
X024803Y004713D01*
X025045Y004471D01*
X025361Y004340D01*
X025703Y004340D01*
X026019Y004471D01*
X026261Y004713D01*
X026392Y005029D01*
X026392Y005371D01*
X026261Y005687D01*
X026019Y005929D01*
X026118Y005830D02*
X026502Y005830D01*
X026502Y005671D02*
X026267Y005671D01*
X026333Y005513D02*
X026502Y005513D01*
X026502Y005354D02*
X026392Y005354D01*
X026392Y005196D02*
X026502Y005196D01*
X026502Y005037D02*
X026392Y005037D01*
X026329Y004879D02*
X026502Y004879D01*
X026502Y004720D02*
X026264Y004720D01*
X026109Y004562D02*
X026502Y004562D01*
X026502Y004403D02*
X025855Y004403D01*
X025209Y004403D02*
X022159Y004403D01*
X022317Y004562D02*
X024954Y004562D01*
X024800Y004720D02*
X022476Y004720D01*
X022634Y004879D02*
X024734Y004879D01*
X024672Y005037D02*
X022793Y005037D01*
X022261Y005354D02*
X016952Y005354D01*
X017110Y005196D02*
X022103Y005196D01*
X021944Y005037D02*
X017269Y005037D01*
X016737Y004720D02*
X014166Y004720D01*
X014257Y004879D02*
X016579Y004879D01*
X016420Y005037D02*
X014251Y005037D01*
X014150Y005196D02*
X016262Y005196D01*
X016103Y005354D02*
X013839Y005354D01*
X013680Y005513D02*
X015945Y005513D01*
X015786Y005671D02*
X013522Y005671D01*
X013363Y005830D02*
X015628Y005830D01*
X015469Y005988D02*
X013205Y005988D01*
X013046Y006147D02*
X015311Y006147D01*
X015152Y006305D02*
X012888Y006305D01*
X012732Y006150D02*
X011132Y006150D01*
X010482Y006800D01*
X010779Y006939D02*
X012407Y006939D01*
X012354Y006781D02*
X010812Y006781D01*
X010971Y006622D02*
X012380Y006622D01*
X012516Y006464D02*
X011129Y006464D01*
X010824Y006147D02*
X010496Y006147D01*
X010338Y006305D02*
X010666Y006305D01*
X010507Y006464D02*
X010179Y006464D01*
X010200Y006622D02*
X010152Y006622D01*
X010152Y006781D02*
X010154Y006781D01*
X010152Y006939D02*
X010184Y006939D01*
X010152Y007098D02*
X010343Y007098D01*
X010354Y007256D02*
X010152Y007256D01*
X010207Y007415D02*
X010374Y007415D01*
X010682Y007300D02*
X010782Y007400D01*
X010782Y007650D01*
X010682Y007750D01*
X010232Y007750D01*
X009932Y007450D01*
X009932Y006400D01*
X011332Y005000D01*
X011637Y004879D02*
X013606Y004879D01*
X013534Y005037D02*
X011660Y005037D01*
X011600Y005196D02*
X013375Y005196D01*
X013217Y005354D02*
X011289Y005354D01*
X011130Y005513D02*
X013058Y005513D01*
X012900Y005671D02*
X010972Y005671D01*
X010813Y005830D02*
X012741Y005830D01*
X012732Y006150D02*
X013932Y004950D01*
X013698Y004720D02*
X011513Y004720D01*
X010188Y004245D02*
X026502Y004245D01*
X024672Y005196D02*
X023465Y005196D01*
X023542Y005354D02*
X024672Y005354D01*
X024730Y005513D02*
X023542Y005513D01*
X023542Y005671D02*
X024796Y005671D01*
X024945Y005830D02*
X023542Y005830D01*
X023542Y005988D02*
X025187Y005988D01*
X022705Y006305D02*
X022572Y006305D01*
X022578Y006464D02*
X022515Y006464D01*
X022522Y006622D02*
X022387Y006622D01*
X022439Y005830D02*
X022522Y005830D01*
X024632Y009000D02*
X025016Y009000D01*
X024858Y009158D02*
X024632Y009158D01*
X024632Y009317D02*
X024760Y009317D01*
X024694Y009475D02*
X024632Y009475D01*
X024632Y009634D02*
X024672Y009634D01*
X024672Y009792D02*
X024632Y009792D01*
X024632Y009951D02*
X024705Y009951D01*
X024770Y010109D02*
X024632Y010109D01*
X024632Y010268D02*
X024883Y010268D01*
X025042Y010426D02*
X024632Y010426D01*
X024304Y011060D02*
X024246Y011060D01*
X024386Y011219D02*
X024087Y011219D01*
X022050Y009634D02*
X022013Y009634D01*
X022013Y009475D02*
X022050Y009475D01*
X022050Y009317D02*
X022013Y009317D01*
X023259Y009158D02*
X023422Y009158D01*
X016880Y009317D02*
X009814Y009317D01*
X009972Y009475D02*
X016779Y009475D01*
X011127Y010109D02*
X010606Y010109D01*
X010765Y010268D02*
X010981Y010268D01*
X010954Y010426D02*
X010923Y010426D01*
X010982Y010795D02*
X011182Y011000D01*
X009252Y010902D02*
X009212Y010902D01*
X009212Y010743D02*
X009252Y010743D01*
X009252Y010585D02*
X009212Y010585D01*
X009212Y010426D02*
X009252Y010426D01*
X009252Y010268D02*
X009212Y010268D01*
X009212Y010109D02*
X009252Y010109D01*
X008232Y010600D02*
X006432Y008800D01*
X005082Y008800D01*
X004832Y008550D01*
X004832Y008200D01*
X005160Y008207D02*
X006762Y008207D01*
X006762Y008049D02*
X005124Y008049D01*
X005118Y008366D02*
X006762Y008366D01*
X006762Y008524D02*
X005117Y008524D01*
X004812Y008841D02*
X002462Y008841D01*
X002462Y008683D02*
X004653Y008683D01*
X004612Y008524D02*
X002462Y008524D01*
X002462Y008366D02*
X004545Y008366D01*
X004504Y008207D02*
X002462Y008207D01*
X002462Y008049D02*
X004539Y008049D01*
X004970Y009000D02*
X002462Y009000D01*
X002462Y009158D02*
X006479Y009158D01*
X006637Y009317D02*
X002462Y009317D01*
X002462Y009475D02*
X005693Y009475D01*
X005604Y009634D02*
X002462Y009634D01*
X002462Y009792D02*
X005529Y009792D01*
X005512Y009951D02*
X002462Y009951D01*
X002462Y010109D02*
X005512Y010109D01*
X005588Y010268D02*
X002462Y010268D01*
X002462Y010426D02*
X005722Y010426D01*
X005722Y010585D02*
X002462Y010585D01*
X002462Y010743D02*
X005722Y010743D01*
X005722Y010902D02*
X002462Y010902D01*
X002462Y011060D02*
X005754Y011060D01*
X006232Y010600D02*
X005732Y010100D01*
X005732Y009900D01*
X005932Y009700D01*
X006171Y009475D02*
X006796Y009475D01*
X006954Y009634D02*
X006259Y009634D01*
X006249Y009792D02*
X007113Y009792D01*
X007271Y009951D02*
X006145Y009951D01*
X006679Y010109D02*
X006901Y010109D01*
X006776Y010268D02*
X006742Y010268D01*
X007232Y010500D02*
X007882Y011150D01*
X008532Y011150D01*
X007639Y011219D02*
X002462Y011219D01*
X006710Y011060D02*
X007481Y011060D01*
X006912Y010902D02*
X006742Y010902D01*
X006742Y010743D02*
X006780Y010743D01*
X008052Y010109D02*
X008084Y010109D01*
X008071Y009951D02*
X007893Y009951D01*
X007913Y009792D02*
X007735Y009792D01*
X007754Y009634D02*
X007576Y009634D01*
X007596Y009475D02*
X007418Y009475D01*
X007437Y009317D02*
X007259Y009317D01*
X007279Y009158D02*
X007101Y009158D01*
X007120Y009000D02*
X006942Y009000D01*
X006962Y008841D02*
X006784Y008841D01*
X006803Y008683D02*
X006625Y008683D01*
X007202Y007573D02*
X007548Y007573D01*
X007504Y007415D02*
X007202Y007415D01*
X007202Y007256D02*
X007263Y007256D01*
X007500Y007256D02*
X007536Y007256D01*
X006332Y007450D02*
X004532Y005650D01*
X008752Y007890D02*
X010061Y007890D01*
X010655Y005988D02*
X010983Y005988D01*
X010026Y004403D02*
X017054Y004403D01*
X023645Y001867D02*
X026502Y001867D01*
D15*
X022682Y003500D03*
X019532Y004600D03*
X017982Y003800D03*
X016532Y003900D03*
X013932Y004950D03*
X011332Y005000D03*
X008282Y005800D03*
X007882Y005400D03*
X007482Y005000D03*
X004982Y005100D03*
X004532Y005650D03*
X002932Y004400D03*
X007382Y006950D03*
X007832Y007400D03*
X008632Y007400D03*
X008232Y007000D03*
X008832Y006750D03*
X010482Y006800D03*
X010682Y007300D03*
X012682Y006750D03*
X013382Y008750D03*
X014382Y008750D03*
X015732Y009750D03*
X012082Y010100D03*
X011282Y010400D03*
X005932Y009700D03*
X004232Y008750D03*
X004832Y008200D03*
X006332Y007450D03*
X008382Y002950D03*
X017032Y006950D03*
X022832Y009700D03*
X024632Y011000D03*
X025632Y007000D03*
D16*
X023932Y008100D02*
X023532Y007700D01*
X023032Y007700D01*
X023382Y008200D02*
X022032Y008200D01*
X023382Y008200D02*
X023632Y008450D01*
X023632Y009950D01*
X023282Y010300D01*
X012282Y010300D01*
X012082Y010100D01*
X011482Y010600D02*
X023432Y010600D01*
X023932Y010100D01*
X023932Y008100D01*
X011482Y010600D02*
X011282Y010400D01*
X008732Y010300D02*
X008732Y010950D01*
D17*
X011182Y011000D02*
X023882Y011000D01*
X024332Y010550D01*
X024332Y007800D01*
X023232Y006700D01*
X023032Y006700D01*
X023032Y005700D02*
X021932Y004600D01*
X019532Y004600D01*
X017282Y004600D01*
X015132Y006750D01*
X012682Y006750D01*
M02*
