G75*
G70*
%OFA0B0*%
%FSLAX24Y24*%
%IPPOS*%
%LPD*%
%AMOC8*
5,1,8,0,0,1.08239X$1,22.5*
%
%ADD10R,0.0551X0.0433*%
%ADD11OC8,0.0700*%
%ADD12R,0.0710X0.0630*%
%ADD13R,0.0433X0.0551*%
%ADD14R,0.0591X0.0768*%
%ADD15R,0.0472X0.0472*%
%ADD16R,0.0945X0.0787*%
%ADD17R,0.0591X0.0197*%
%ADD18R,0.0197X0.0591*%
%ADD19R,0.0787X0.0945*%
%ADD20R,0.0197X0.0909*%
%ADD21C,0.0700*%
%ADD22R,0.0315X0.1260*%
%ADD23C,0.0740*%
%ADD24R,0.0740X0.0740*%
%ADD25R,0.0480X0.0880*%
%ADD26R,0.1417X0.0866*%
%ADD27C,0.0160*%
%ADD28C,0.0376*%
%ADD29C,0.0400*%
%ADD30C,0.0140*%
%ADD31C,0.0320*%
D10*
X011282Y006506D03*
X011282Y007294D03*
X013032Y006244D03*
X013932Y006244D03*
X014782Y006244D03*
X014782Y005456D03*
X013932Y005456D03*
X013032Y005456D03*
X012882Y004344D03*
X013932Y004344D03*
X013932Y003556D03*
X012882Y003556D03*
X011882Y008736D03*
X011052Y008768D03*
X011882Y009523D03*
X011052Y009556D03*
D11*
X007282Y003250D03*
X006282Y003250D03*
X005282Y003250D03*
X005282Y002250D03*
X006282Y002250D03*
X007282Y002250D03*
D12*
X020832Y008890D03*
X020832Y010010D03*
D13*
X010199Y009506D03*
X009411Y009506D03*
X005175Y009600D03*
X004388Y009600D03*
X003925Y010600D03*
X003138Y010600D03*
X002988Y006950D03*
X003775Y006950D03*
X003775Y006150D03*
X002988Y006150D03*
X002988Y005350D03*
X003775Y005350D03*
D14*
X012082Y005609D03*
X012082Y006691D03*
X015732Y006691D03*
X015732Y005609D03*
D15*
X015445Y004350D03*
X014618Y004350D03*
X012195Y004350D03*
X011368Y004350D03*
D16*
X003382Y007913D03*
X003382Y009487D03*
D17*
G36*
X007706Y009439D02*
X008122Y009855D01*
X008260Y009717D01*
X007844Y009301D01*
X007706Y009439D01*
G37*
G36*
X007929Y009216D02*
X008345Y009632D01*
X008483Y009494D01*
X008067Y009078D01*
X007929Y009216D01*
G37*
G36*
X008151Y008994D02*
X008567Y009410D01*
X008705Y009272D01*
X008289Y008856D01*
X008151Y008994D01*
G37*
G36*
X008374Y008771D02*
X008790Y009187D01*
X008928Y009049D01*
X008512Y008633D01*
X008374Y008771D01*
G37*
G36*
X008597Y008548D02*
X009013Y008964D01*
X009151Y008826D01*
X008735Y008410D01*
X008597Y008548D01*
G37*
G36*
X008819Y008326D02*
X009235Y008742D01*
X009373Y008604D01*
X008957Y008188D01*
X008819Y008326D01*
G37*
G36*
X009042Y008103D02*
X009458Y008519D01*
X009596Y008381D01*
X009180Y007965D01*
X009042Y008103D01*
G37*
G36*
X009265Y007880D02*
X009681Y008296D01*
X009819Y008158D01*
X009403Y007742D01*
X009265Y007880D01*
G37*
G36*
X009487Y007658D02*
X009903Y008074D01*
X010041Y007936D01*
X009625Y007520D01*
X009487Y007658D01*
G37*
G36*
X009710Y007435D02*
X010126Y007851D01*
X010264Y007713D01*
X009848Y007297D01*
X009710Y007435D01*
G37*
G36*
X009933Y007212D02*
X010349Y007628D01*
X010487Y007490D01*
X010071Y007074D01*
X009933Y007212D01*
G37*
G36*
X005813Y004874D02*
X006229Y005290D01*
X006367Y005152D01*
X005951Y004736D01*
X005813Y004874D01*
G37*
G36*
X005590Y005096D02*
X006006Y005512D01*
X006144Y005374D01*
X005728Y004958D01*
X005590Y005096D01*
G37*
G36*
X005367Y005319D02*
X005783Y005735D01*
X005921Y005597D01*
X005505Y005181D01*
X005367Y005319D01*
G37*
G36*
X005145Y005542D02*
X005561Y005958D01*
X005699Y005820D01*
X005283Y005404D01*
X005145Y005542D01*
G37*
G36*
X004922Y005764D02*
X005338Y006180D01*
X005476Y006042D01*
X005060Y005626D01*
X004922Y005764D01*
G37*
G36*
X004699Y005987D02*
X005115Y006403D01*
X005253Y006265D01*
X004837Y005849D01*
X004699Y005987D01*
G37*
G36*
X004477Y006210D02*
X004893Y006626D01*
X005031Y006488D01*
X004615Y006072D01*
X004477Y006210D01*
G37*
G36*
X006035Y004651D02*
X006451Y005067D01*
X006589Y004929D01*
X006173Y004513D01*
X006035Y004651D01*
G37*
G36*
X006258Y004428D02*
X006674Y004844D01*
X006812Y004706D01*
X006396Y004290D01*
X006258Y004428D01*
G37*
G36*
X006481Y004206D02*
X006897Y004622D01*
X007035Y004484D01*
X006619Y004068D01*
X006481Y004206D01*
G37*
G36*
X006704Y003983D02*
X007120Y004399D01*
X007258Y004261D01*
X006842Y003845D01*
X006704Y003983D01*
G37*
D18*
G36*
X007706Y004261D02*
X007844Y004399D01*
X008260Y003983D01*
X008122Y003845D01*
X007706Y004261D01*
G37*
G36*
X007929Y004484D02*
X008067Y004622D01*
X008483Y004206D01*
X008345Y004068D01*
X007929Y004484D01*
G37*
G36*
X008151Y004706D02*
X008289Y004844D01*
X008705Y004428D01*
X008567Y004290D01*
X008151Y004706D01*
G37*
G36*
X008374Y004929D02*
X008512Y005067D01*
X008928Y004651D01*
X008790Y004513D01*
X008374Y004929D01*
G37*
G36*
X008597Y005152D02*
X008735Y005290D01*
X009151Y004874D01*
X009013Y004736D01*
X008597Y005152D01*
G37*
G36*
X008819Y005374D02*
X008957Y005512D01*
X009373Y005096D01*
X009235Y004958D01*
X008819Y005374D01*
G37*
G36*
X009042Y005597D02*
X009180Y005735D01*
X009596Y005319D01*
X009458Y005181D01*
X009042Y005597D01*
G37*
G36*
X009265Y005820D02*
X009403Y005958D01*
X009819Y005542D01*
X009681Y005404D01*
X009265Y005820D01*
G37*
G36*
X009487Y006042D02*
X009625Y006180D01*
X010041Y005764D01*
X009903Y005626D01*
X009487Y006042D01*
G37*
G36*
X009710Y006265D02*
X009848Y006403D01*
X010264Y005987D01*
X010126Y005849D01*
X009710Y006265D01*
G37*
G36*
X009933Y006488D02*
X010071Y006626D01*
X010487Y006210D01*
X010349Y006072D01*
X009933Y006488D01*
G37*
G36*
X005813Y008826D02*
X005951Y008964D01*
X006367Y008548D01*
X006229Y008410D01*
X005813Y008826D01*
G37*
G36*
X005590Y008604D02*
X005728Y008742D01*
X006144Y008326D01*
X006006Y008188D01*
X005590Y008604D01*
G37*
G36*
X005367Y008381D02*
X005505Y008519D01*
X005921Y008103D01*
X005783Y007965D01*
X005367Y008381D01*
G37*
G36*
X005145Y008158D02*
X005283Y008296D01*
X005699Y007880D01*
X005561Y007742D01*
X005145Y008158D01*
G37*
G36*
X004922Y007936D02*
X005060Y008074D01*
X005476Y007658D01*
X005338Y007520D01*
X004922Y007936D01*
G37*
G36*
X004699Y007713D02*
X004837Y007851D01*
X005253Y007435D01*
X005115Y007297D01*
X004699Y007713D01*
G37*
G36*
X004477Y007490D02*
X004615Y007628D01*
X005031Y007212D01*
X004893Y007074D01*
X004477Y007490D01*
G37*
G36*
X006035Y009049D02*
X006173Y009187D01*
X006589Y008771D01*
X006451Y008633D01*
X006035Y009049D01*
G37*
G36*
X006258Y009272D02*
X006396Y009410D01*
X006812Y008994D01*
X006674Y008856D01*
X006258Y009272D01*
G37*
G36*
X006481Y009494D02*
X006619Y009632D01*
X007035Y009216D01*
X006897Y009078D01*
X006481Y009494D01*
G37*
G36*
X006704Y009717D02*
X006842Y009855D01*
X007258Y009439D01*
X007120Y009301D01*
X006704Y009717D01*
G37*
D19*
X016299Y010787D03*
X019764Y010787D03*
X019764Y008622D03*
X016299Y008622D03*
D20*
X017402Y008400D03*
X017717Y008400D03*
X018032Y008400D03*
X018347Y008400D03*
X018662Y008400D03*
D21*
X018232Y002200D03*
X017232Y002200D03*
X016232Y002200D03*
X015232Y002200D03*
X014232Y002200D03*
X013232Y002200D03*
X012232Y002200D03*
X011232Y002200D03*
X010232Y002200D03*
X009232Y002200D03*
X019232Y002200D03*
X020232Y002200D03*
X021232Y002200D03*
X022232Y002200D03*
X023232Y002200D03*
D22*
X020414Y003576D03*
X019548Y003576D03*
X018682Y003576D03*
X017422Y003576D03*
X017422Y005624D03*
X018682Y005624D03*
X019548Y005624D03*
X020414Y005624D03*
D23*
X022032Y006200D03*
X023032Y006700D03*
X022032Y007200D03*
X023032Y007700D03*
X022032Y008200D03*
X023032Y008700D03*
X022032Y009200D03*
X009232Y010500D03*
X008232Y010600D03*
X007232Y010500D03*
D24*
X006232Y010600D03*
X023032Y005700D03*
D25*
X014792Y007480D03*
X013882Y007480D03*
X012972Y007480D03*
D26*
X013882Y009920D03*
D27*
X002462Y011320D02*
X002462Y001780D01*
X005059Y001780D01*
X004792Y002047D01*
X004792Y002453D01*
X005079Y002740D01*
X005485Y002740D01*
X005772Y002453D01*
X005772Y002047D01*
X005505Y001780D01*
X006059Y001780D01*
X005792Y002047D01*
X005792Y002453D01*
X006079Y002740D01*
X006485Y002740D01*
X006772Y002453D01*
X006772Y002047D01*
X006505Y001780D01*
X007059Y001780D01*
X006792Y002047D01*
X006792Y002453D01*
X007060Y002722D01*
X006753Y003029D01*
X006485Y002760D01*
X006079Y002760D01*
X005792Y003047D01*
X005792Y003453D01*
X005969Y003630D01*
X005595Y003630D01*
X005772Y003453D01*
X005772Y003047D01*
X005485Y002760D01*
X005079Y002760D01*
X004792Y003047D01*
X004792Y003429D01*
X003941Y004280D01*
X003591Y004280D01*
X003462Y004409D01*
X002936Y004934D01*
X002713Y004934D01*
X002631Y005016D01*
X002631Y005684D01*
X002672Y005724D01*
X002661Y005730D01*
X002627Y005764D01*
X002604Y005805D01*
X002591Y005851D01*
X002591Y006122D01*
X002960Y006122D01*
X002960Y006178D01*
X002591Y006178D01*
X002591Y006449D01*
X002604Y006495D01*
X002627Y006536D01*
X002661Y006570D01*
X002672Y006576D01*
X002631Y006616D01*
X002631Y007284D01*
X002648Y007300D01*
X002648Y007587D01*
X002700Y007711D01*
X002769Y007781D01*
X002769Y008364D01*
X002851Y008446D01*
X003912Y008446D01*
X003994Y008364D01*
X003994Y008274D01*
X004621Y008900D01*
X004336Y009184D01*
X004113Y009184D01*
X004038Y009260D01*
X003994Y009260D01*
X003994Y009036D01*
X003912Y008954D01*
X002851Y008954D01*
X002769Y009036D01*
X002769Y009939D01*
X002851Y010021D01*
X003912Y010021D01*
X003993Y009940D01*
X004038Y009940D01*
X004113Y010016D01*
X004663Y010016D01*
X004745Y009934D01*
X004745Y009398D01*
X004779Y009364D01*
X004779Y009572D01*
X005147Y009572D01*
X005147Y009628D01*
X004779Y009628D01*
X004779Y009899D01*
X004791Y009945D01*
X004815Y009986D01*
X004848Y010020D01*
X004889Y010043D01*
X004935Y010056D01*
X005147Y010056D01*
X005147Y009628D01*
X005204Y009628D01*
X005572Y009628D01*
X005572Y009899D01*
X005633Y009837D01*
X005604Y009765D01*
X005604Y009635D01*
X005654Y009514D01*
X005746Y009422D01*
X005866Y009372D01*
X005997Y009372D01*
X005998Y009372D01*
X006050Y009320D01*
X005976Y009246D01*
X005909Y009179D01*
X005818Y009270D01*
X005564Y009270D01*
X005572Y009301D01*
X005572Y009572D01*
X005204Y009572D01*
X005204Y009628D01*
X005204Y010056D01*
X005415Y010056D01*
X005091Y010380D01*
X004282Y010380D01*
X004282Y010266D01*
X004200Y010184D01*
X003651Y010184D01*
X003569Y010266D01*
X003569Y010934D01*
X003651Y011016D01*
X004200Y011016D01*
X004282Y010934D01*
X004282Y010820D01*
X005273Y010820D01*
X005402Y010691D01*
X005722Y010371D01*
X005722Y011028D01*
X005804Y011110D01*
X006660Y011110D01*
X006742Y011028D01*
X006742Y010650D01*
X006799Y010789D01*
X006943Y010932D01*
X007130Y011010D01*
X007333Y011010D01*
X007521Y010932D01*
X007664Y010789D01*
X007722Y010650D01*
X007722Y010701D01*
X007799Y010889D01*
X007943Y011032D01*
X008130Y011110D01*
X008333Y011110D01*
X008521Y011032D01*
X008664Y010889D01*
X008731Y010728D01*
X008761Y010788D01*
X008812Y010858D01*
X008873Y010920D01*
X008943Y010970D01*
X009021Y011010D01*
X009103Y011036D01*
X009188Y011050D01*
X009212Y011050D01*
X009212Y010520D01*
X009252Y010520D01*
X009782Y010520D01*
X009782Y010543D01*
X009768Y010629D01*
X009741Y010711D01*
X009702Y010788D01*
X009651Y010858D01*
X009590Y010920D01*
X009520Y010970D01*
X009443Y011010D01*
X009361Y011036D01*
X009275Y011050D01*
X009252Y011050D01*
X009252Y010520D01*
X009252Y010480D01*
X009782Y010480D01*
X009782Y010457D01*
X009768Y010371D01*
X009741Y010289D01*
X009702Y010212D01*
X009651Y010142D01*
X009590Y010080D01*
X009520Y010030D01*
X009443Y009990D01*
X009361Y009964D01*
X009275Y009950D01*
X009252Y009950D01*
X009252Y010480D01*
X009212Y010480D01*
X009212Y009950D01*
X009188Y009950D01*
X009103Y009964D01*
X009021Y009990D01*
X008943Y010030D01*
X008873Y010080D01*
X008812Y010142D01*
X008761Y010212D01*
X008722Y010289D01*
X008695Y010371D01*
X008694Y010382D01*
X008664Y010311D01*
X008521Y010168D01*
X008333Y010090D01*
X008130Y010090D01*
X007943Y010168D01*
X007799Y010311D01*
X007742Y010450D01*
X007742Y010399D01*
X007664Y010211D01*
X007521Y010068D01*
X007333Y009990D01*
X007130Y009990D01*
X006943Y010068D01*
X006799Y010211D01*
X006742Y010350D01*
X006742Y010172D01*
X006660Y010090D01*
X006353Y010090D01*
X006615Y009828D01*
X006783Y009997D01*
X006899Y009997D01*
X007126Y009770D01*
X007223Y009770D01*
X007352Y009641D01*
X007352Y009641D01*
X007423Y009570D01*
X007491Y009570D01*
X007741Y009820D01*
X007887Y009820D01*
X008064Y009997D01*
X008180Y009997D01*
X008401Y009775D01*
X008401Y009774D01*
X008403Y009774D01*
X008624Y009553D01*
X008624Y009551D01*
X008625Y009551D01*
X008847Y009330D01*
X008847Y009328D01*
X008848Y009328D01*
X009069Y009107D01*
X009069Y009106D01*
X009071Y009106D01*
X009191Y008985D01*
X009191Y009090D01*
X009137Y009090D01*
X009055Y009172D01*
X009055Y009840D01*
X009137Y009922D01*
X009686Y009922D01*
X009768Y009840D01*
X009768Y009172D01*
X009686Y009090D01*
X009631Y009090D01*
X009631Y008688D01*
X009588Y008645D01*
X009655Y008578D01*
X009435Y008358D01*
X009435Y008358D01*
X009655Y008578D01*
X009722Y008511D01*
X009753Y008541D01*
X009881Y008670D01*
X010637Y008670D01*
X010637Y009043D01*
X010719Y009125D01*
X011386Y009125D01*
X011468Y009043D01*
X011468Y009012D01*
X011548Y009092D01*
X012215Y009092D01*
X012297Y009010D01*
X012297Y008461D01*
X012215Y008379D01*
X011922Y008379D01*
X011473Y007930D01*
X011252Y007930D01*
X011252Y007930D01*
X011444Y007699D01*
X011493Y007650D01*
X011615Y007650D01*
X011697Y007568D01*
X011697Y007451D01*
X012412Y008375D01*
X012412Y008391D01*
X012466Y008446D01*
X012513Y008507D01*
X012529Y008509D01*
X012541Y008520D01*
X012618Y008520D01*
X012694Y008530D01*
X012707Y008520D01*
X013423Y008520D01*
X013552Y008391D01*
X013602Y008341D01*
X013602Y008096D01*
X013618Y008100D01*
X013842Y008100D01*
X013842Y007520D01*
X013922Y007520D01*
X014302Y007520D01*
X014302Y007944D01*
X014289Y007989D01*
X014266Y008031D01*
X014232Y008064D01*
X014191Y008088D01*
X014145Y008100D01*
X013922Y008100D01*
X013922Y007520D01*
X013922Y007440D01*
X014302Y007440D01*
X014302Y007016D01*
X014289Y006971D01*
X014266Y006929D01*
X014232Y006896D01*
X014191Y006872D01*
X014145Y006860D01*
X013922Y006860D01*
X013922Y007440D01*
X013842Y007440D01*
X013842Y006860D01*
X013618Y006860D01*
X013602Y006864D01*
X013602Y006809D01*
X013473Y006680D01*
X013379Y006586D01*
X013447Y006518D01*
X013447Y005969D01*
X013365Y005887D01*
X013280Y005887D01*
X013246Y005853D01*
X013331Y005853D01*
X013377Y005841D01*
X013418Y005817D01*
X013451Y005783D01*
X013475Y005742D01*
X013487Y005697D01*
X013487Y005485D01*
X013060Y005485D01*
X013060Y005428D01*
X013060Y005060D01*
X013331Y005060D01*
X013377Y005072D01*
X013418Y005096D01*
X013451Y005129D01*
X013475Y005170D01*
X013487Y005216D01*
X013487Y005428D01*
X013060Y005428D01*
X013003Y005428D01*
X012576Y005428D01*
X012576Y005216D01*
X012588Y005170D01*
X012612Y005129D01*
X012646Y005096D01*
X012687Y005072D01*
X012732Y005060D01*
X013003Y005060D01*
X013003Y005428D01*
X013003Y005485D01*
X012576Y005485D01*
X012576Y005697D01*
X012588Y005742D01*
X012609Y005778D01*
X012603Y005773D01*
X012557Y005777D01*
X012557Y005676D01*
X012149Y005676D01*
X012149Y005541D01*
X012149Y005045D01*
X012401Y005045D01*
X012446Y005057D01*
X012488Y005081D01*
X012521Y005114D01*
X012545Y005155D01*
X012557Y005201D01*
X012557Y005541D01*
X012149Y005541D01*
X012014Y005541D01*
X011606Y005541D01*
X011606Y005201D01*
X011612Y005181D01*
X011610Y005186D01*
X011518Y005278D01*
X011397Y005328D01*
X011266Y005328D01*
X011146Y005278D01*
X011054Y005186D01*
X011004Y005065D01*
X011004Y004935D01*
X011054Y004814D01*
X011141Y004726D01*
X011074Y004726D01*
X010992Y004644D01*
X010992Y004551D01*
X010010Y005533D01*
X010144Y005668D01*
X010150Y005668D01*
X010196Y005680D01*
X010237Y005704D01*
X010323Y005790D01*
X010081Y006033D01*
X010323Y005790D01*
X010410Y005876D01*
X010412Y005880D01*
X011405Y005880D01*
X011467Y005864D01*
X011493Y005880D01*
X011523Y005880D01*
X011568Y005925D01*
X011606Y005948D01*
X011606Y005676D01*
X012014Y005676D01*
X012014Y005541D01*
X012014Y005045D01*
X011763Y005045D01*
X011717Y005057D01*
X011676Y005081D01*
X011642Y005114D01*
X011632Y005132D01*
X011660Y005065D01*
X011660Y004935D01*
X011610Y004814D01*
X011588Y004793D01*
X011588Y004726D01*
X011663Y004726D01*
X011745Y004644D01*
X011745Y004056D01*
X011663Y003974D01*
X011152Y003974D01*
X011152Y003941D01*
X011573Y003520D01*
X012073Y003520D01*
X012373Y003220D01*
X012528Y003220D01*
X012466Y003282D01*
X012466Y003336D01*
X012334Y003336D01*
X012141Y003530D01*
X012012Y003659D01*
X012012Y003974D01*
X011901Y003974D01*
X011819Y004056D01*
X011819Y004644D01*
X011901Y004726D01*
X012489Y004726D01*
X012506Y004710D01*
X012537Y004728D01*
X012582Y004740D01*
X012853Y004740D01*
X012853Y004372D01*
X012910Y004372D01*
X012910Y004740D01*
X013181Y004740D01*
X013227Y004728D01*
X013268Y004704D01*
X013301Y004671D01*
X013325Y004630D01*
X013337Y004584D01*
X013337Y004372D01*
X012910Y004372D01*
X012910Y004315D01*
X012910Y003947D01*
X013181Y003947D01*
X013227Y003959D01*
X013268Y003983D01*
X013301Y004017D01*
X013325Y004058D01*
X013337Y004103D01*
X013337Y004315D01*
X012910Y004315D01*
X012853Y004315D01*
X012853Y003947D01*
X012582Y003947D01*
X012537Y003959D01*
X012498Y003982D01*
X012489Y003974D01*
X012452Y003974D01*
X012452Y003841D01*
X012466Y003827D01*
X012466Y003831D01*
X012548Y003913D01*
X013215Y003913D01*
X013297Y003831D01*
X013297Y003282D01*
X013215Y003200D01*
X012993Y003200D01*
X013273Y002920D01*
X013823Y002920D01*
X014077Y002666D01*
X014134Y002690D01*
X014329Y002690D01*
X014509Y002615D01*
X014647Y002478D01*
X014714Y002317D01*
X014715Y002324D01*
X014741Y002403D01*
X014778Y002478D01*
X014827Y002545D01*
X014886Y002604D01*
X014954Y002653D01*
X015028Y002691D01*
X015108Y002717D01*
X015190Y002730D01*
X015212Y002730D01*
X015212Y002220D01*
X015252Y002220D01*
X015762Y002220D01*
X016212Y002220D01*
X016212Y002730D01*
X016190Y002730D01*
X016108Y002717D01*
X016028Y002691D01*
X015954Y002653D01*
X015886Y002604D01*
X015827Y002545D01*
X015778Y002478D01*
X015741Y002403D01*
X015732Y002376D01*
X015723Y002403D01*
X015685Y002478D01*
X015636Y002545D01*
X015577Y002604D01*
X015509Y002653D01*
X015435Y002691D01*
X015356Y002717D01*
X015273Y002730D01*
X015252Y002730D01*
X015252Y002220D01*
X015252Y002180D01*
X016212Y002180D01*
X016212Y002220D01*
X016252Y002220D01*
X016252Y002730D01*
X016273Y002730D01*
X016356Y002717D01*
X016435Y002691D01*
X016509Y002653D01*
X016577Y002604D01*
X016636Y002545D01*
X016685Y002478D01*
X016723Y002403D01*
X016749Y002324D01*
X016750Y002317D01*
X016816Y002478D01*
X016954Y002615D01*
X017134Y002690D01*
X017329Y002690D01*
X017509Y002615D01*
X017647Y002478D01*
X017722Y002297D01*
X017722Y002103D01*
X017647Y001922D01*
X017509Y001785D01*
X017498Y001780D01*
X017965Y001780D01*
X017954Y001785D01*
X017816Y001922D01*
X017742Y002103D01*
X017742Y002297D01*
X017816Y002478D01*
X017954Y002615D01*
X018134Y002690D01*
X018329Y002690D01*
X018509Y002615D01*
X018647Y002478D01*
X018722Y002297D01*
X018722Y002103D01*
X018647Y001922D01*
X018509Y001785D01*
X018498Y001780D01*
X018965Y001780D01*
X018954Y001785D01*
X018816Y001922D01*
X018742Y002103D01*
X018742Y002297D01*
X018816Y002478D01*
X018954Y002615D01*
X019134Y002690D01*
X019329Y002690D01*
X019509Y002615D01*
X019612Y002513D01*
X019612Y002791D01*
X019627Y002806D01*
X019332Y002806D01*
X019250Y002888D01*
X019250Y003511D01*
X019248Y003517D01*
X019248Y004428D01*
X019204Y004535D01*
X019204Y004665D01*
X019254Y004786D01*
X019327Y004859D01*
X019250Y004936D01*
X019250Y006312D01*
X019332Y006394D01*
X019763Y006394D01*
X019845Y006312D01*
X019845Y004936D01*
X019763Y004854D01*
X019742Y004854D01*
X019810Y004786D01*
X019860Y004665D01*
X019860Y004535D01*
X019848Y004506D01*
X019848Y003517D01*
X019845Y003511D01*
X019845Y003025D01*
X019862Y003041D01*
X019862Y004541D01*
X019991Y004670D01*
X020923Y004670D01*
X021052Y004541D01*
X021902Y003691D01*
X021902Y002615D01*
X021954Y002653D01*
X022028Y002691D01*
X022108Y002717D01*
X022190Y002730D01*
X022212Y002730D01*
X022212Y002220D01*
X022252Y002220D01*
X022762Y002220D01*
X023212Y002220D01*
X023212Y002730D01*
X023190Y002730D01*
X023108Y002717D01*
X023028Y002691D01*
X022954Y002653D01*
X022886Y002604D01*
X022827Y002545D01*
X022778Y002478D01*
X022741Y002403D01*
X022732Y002376D01*
X022723Y002403D01*
X022685Y002478D01*
X022636Y002545D01*
X022577Y002604D01*
X022509Y002653D01*
X022435Y002691D01*
X022356Y002717D01*
X022273Y002730D01*
X022252Y002730D01*
X022252Y002220D01*
X022252Y002180D01*
X023212Y002180D01*
X023212Y002220D01*
X023252Y002220D01*
X023762Y002220D01*
X023762Y002242D01*
X023749Y002324D01*
X023723Y002403D01*
X023685Y002478D01*
X023636Y002545D01*
X023577Y002604D01*
X023509Y002653D01*
X023435Y002691D01*
X023356Y002717D01*
X023273Y002730D01*
X023252Y002730D01*
X023252Y002220D01*
X023252Y002180D01*
X023762Y002180D01*
X023762Y002158D01*
X023749Y002076D01*
X023723Y001997D01*
X023685Y001922D01*
X023636Y001855D01*
X023577Y001796D01*
X023555Y001780D01*
X026502Y001780D01*
X026502Y011320D01*
X024717Y011320D01*
X024818Y011278D01*
X024910Y011186D01*
X024960Y011065D01*
X024960Y010935D01*
X024910Y010814D01*
X024818Y010722D01*
X024697Y010672D01*
X024566Y010672D01*
X024446Y010722D01*
X024388Y010780D01*
X021423Y010780D01*
X021108Y010465D01*
X021245Y010465D01*
X021327Y010383D01*
X021327Y009637D01*
X021260Y009570D01*
X021273Y009570D01*
X021402Y009441D01*
X021500Y009343D01*
X021522Y009411D01*
X021561Y009488D01*
X021612Y009558D01*
X021673Y009620D01*
X021743Y009670D01*
X021821Y009710D01*
X021903Y009736D01*
X021988Y009750D01*
X022013Y009750D01*
X022013Y009218D01*
X022050Y009218D01*
X022582Y009218D01*
X022582Y009243D01*
X022568Y009329D01*
X022541Y009411D01*
X022502Y009488D01*
X022451Y009558D01*
X022390Y009620D01*
X022320Y009670D01*
X022243Y009710D01*
X022161Y009736D01*
X022075Y009750D01*
X022050Y009750D01*
X022050Y009218D01*
X022050Y009182D01*
X022582Y009182D01*
X022582Y009157D01*
X022568Y009071D01*
X022541Y008989D01*
X022502Y008912D01*
X022451Y008842D01*
X022390Y008780D01*
X022320Y008730D01*
X022243Y008690D01*
X022208Y008679D01*
X022321Y008632D01*
X022464Y008489D01*
X022542Y008301D01*
X022542Y008099D01*
X022464Y007911D01*
X022463Y007910D01*
X022567Y007910D01*
X022599Y007989D01*
X022743Y008132D01*
X022906Y008200D01*
X022743Y008268D01*
X022599Y008411D01*
X022522Y008599D01*
X022522Y008801D01*
X022599Y008989D01*
X022743Y009132D01*
X022930Y009210D01*
X023133Y009210D01*
X023321Y009132D01*
X023464Y008989D01*
X023497Y008909D01*
X023952Y008454D01*
X024036Y008370D01*
X024082Y008260D01*
X024082Y006090D01*
X024036Y005980D01*
X023586Y005530D01*
X023542Y005486D01*
X023542Y005272D01*
X023460Y005190D01*
X022604Y005190D01*
X022522Y005272D01*
X022522Y005950D01*
X022502Y005912D01*
X022451Y005842D01*
X022390Y005780D01*
X022320Y005730D01*
X022243Y005690D01*
X022161Y005664D01*
X022075Y005650D01*
X022050Y005650D01*
X022050Y006182D01*
X022050Y006218D01*
X022582Y006218D01*
X022582Y006243D01*
X022568Y006329D01*
X022541Y006411D01*
X022502Y006488D01*
X022451Y006558D01*
X022390Y006620D01*
X022320Y006670D01*
X022262Y006700D01*
X022320Y006730D01*
X022390Y006780D01*
X022451Y006842D01*
X022502Y006912D01*
X022541Y006989D01*
X022568Y007071D01*
X022582Y007157D01*
X022582Y007182D01*
X022050Y007182D01*
X022050Y007218D01*
X022582Y007218D01*
X022582Y007243D01*
X022568Y007329D01*
X022541Y007411D01*
X022502Y007488D01*
X022501Y007490D01*
X022567Y007490D01*
X022599Y007411D01*
X022743Y007268D01*
X022906Y007200D01*
X022743Y007132D01*
X022599Y006989D01*
X022522Y006801D01*
X022522Y006599D01*
X022599Y006411D01*
X022743Y006268D01*
X022882Y006210D01*
X022604Y006210D01*
X022575Y006182D01*
X022050Y006182D01*
X022013Y006182D01*
X021482Y006182D01*
X021482Y006157D01*
X021495Y006071D01*
X021522Y005989D01*
X021561Y005912D01*
X021612Y005842D01*
X021673Y005780D01*
X021743Y005730D01*
X021821Y005690D01*
X021903Y005664D01*
X021988Y005650D01*
X022013Y005650D01*
X022013Y006182D01*
X022013Y006218D01*
X021482Y006218D01*
X021482Y006243D01*
X021495Y006329D01*
X021522Y006411D01*
X021561Y006488D01*
X021612Y006558D01*
X021673Y006620D01*
X021743Y006670D01*
X021802Y006700D01*
X021743Y006730D01*
X021673Y006780D01*
X021612Y006842D01*
X021561Y006912D01*
X021522Y006989D01*
X021495Y007071D01*
X021482Y007157D01*
X021482Y007182D01*
X022013Y007182D01*
X022013Y007218D01*
X021482Y007218D01*
X021482Y007243D01*
X021495Y007329D01*
X021522Y007411D01*
X021561Y007488D01*
X021563Y007490D01*
X021083Y007490D01*
X020702Y007109D01*
X020573Y006980D01*
X018591Y006980D01*
X017941Y007630D01*
X017812Y007759D01*
X017812Y007806D01*
X017615Y007806D01*
X017611Y007802D01*
X017570Y007778D01*
X017524Y007766D01*
X017402Y007766D01*
X017402Y008400D01*
X017402Y008400D01*
X017402Y008400D01*
X017402Y009034D01*
X017524Y009034D01*
X017570Y009022D01*
X017611Y008998D01*
X017615Y008994D01*
X017873Y008994D01*
X017874Y008993D01*
X017875Y008994D01*
X018188Y008994D01*
X018189Y008993D01*
X018190Y008994D01*
X018365Y008994D01*
X018649Y009279D01*
X018553Y009376D01*
X018491Y009525D01*
X018491Y009687D01*
X018553Y009837D01*
X018667Y009951D01*
X018817Y010013D01*
X018979Y010013D01*
X019128Y009951D01*
X019243Y009837D01*
X019305Y009687D01*
X019305Y009570D01*
X020404Y009570D01*
X020337Y009637D01*
X020337Y010383D01*
X020419Y010465D01*
X020612Y010465D01*
X020612Y010591D01*
X021241Y011220D01*
X024388Y011220D01*
X024446Y011278D01*
X024547Y011320D01*
X020296Y011320D01*
X020298Y011318D01*
X020298Y010257D01*
X020216Y010175D01*
X019312Y010175D01*
X019230Y010257D01*
X019230Y011318D01*
X019232Y011320D01*
X016831Y011320D01*
X016833Y011318D01*
X016833Y010257D01*
X016751Y010175D01*
X015848Y010175D01*
X015766Y010257D01*
X015766Y011318D01*
X015768Y011320D01*
X002462Y011320D01*
X002462Y011219D02*
X015766Y011219D01*
X015766Y011060D02*
X008454Y011060D01*
X008651Y010902D02*
X008855Y010902D01*
X008738Y010743D02*
X008724Y010743D01*
X009212Y010743D02*
X009252Y010743D01*
X009252Y010585D02*
X009212Y010585D01*
X009212Y010426D02*
X009252Y010426D01*
X009252Y010268D02*
X009212Y010268D01*
X009212Y010109D02*
X009252Y010109D01*
X009252Y009951D02*
X009212Y009951D01*
X009185Y009951D02*
X008226Y009951D01*
X008018Y009951D02*
X006945Y009951D01*
X006901Y010109D02*
X006679Y010109D01*
X006737Y009951D02*
X006492Y009951D01*
X006082Y010050D02*
X005732Y010050D01*
X005182Y010600D01*
X003925Y010600D01*
X003569Y010585D02*
X003166Y010585D01*
X003166Y010572D02*
X003166Y010628D01*
X003110Y010628D01*
X003110Y010572D01*
X003166Y010572D01*
X003166Y010144D01*
X003378Y010144D01*
X003424Y010157D01*
X003465Y010180D01*
X003499Y010214D01*
X003522Y010255D01*
X003535Y010301D01*
X003535Y010572D01*
X003166Y010572D01*
X003110Y010572D02*
X003110Y010144D01*
X002898Y010144D01*
X002852Y010157D01*
X002811Y010180D01*
X002777Y010214D01*
X002754Y010255D01*
X002741Y010301D01*
X002741Y010572D01*
X003110Y010572D01*
X003110Y010585D02*
X002462Y010585D01*
X002462Y010743D02*
X002741Y010743D01*
X002741Y010628D02*
X003110Y010628D01*
X003110Y011056D01*
X002898Y011056D01*
X002852Y011043D01*
X002811Y011020D01*
X002777Y010986D01*
X002754Y010945D01*
X002741Y010899D01*
X002741Y010628D01*
X002741Y010426D02*
X002462Y010426D01*
X002462Y010268D02*
X002750Y010268D01*
X002462Y010109D02*
X005362Y010109D01*
X005204Y009951D02*
X005147Y009951D01*
X005147Y009792D02*
X005204Y009792D01*
X005204Y009634D02*
X005147Y009634D01*
X005572Y009634D02*
X005604Y009634D01*
X005615Y009792D02*
X005572Y009792D01*
X005932Y009700D02*
X006032Y009650D01*
X006535Y009147D01*
X006535Y009133D01*
X006575Y009093D02*
X006871Y008797D01*
X006938Y008864D01*
X007012Y008791D01*
X007012Y007891D01*
X006941Y007820D01*
X006812Y007691D01*
X006812Y006709D01*
X007012Y006509D01*
X007141Y006380D01*
X008523Y006380D01*
X008630Y006487D01*
X008646Y006472D01*
X008766Y006422D01*
X008897Y006422D01*
X009018Y006472D01*
X009110Y006564D01*
X009160Y006685D01*
X009160Y006815D01*
X009110Y006936D01*
X009066Y006980D01*
X009673Y006980D01*
X009802Y007109D01*
X009819Y007126D01*
X010013Y006933D01*
X010129Y006933D01*
X010339Y007143D01*
X010682Y006800D01*
X010843Y006800D01*
X010838Y006792D01*
X010826Y006747D01*
X010826Y006535D01*
X011253Y006535D01*
X011253Y006478D01*
X010826Y006478D01*
X010826Y006266D01*
X010838Y006220D01*
X010862Y006179D01*
X010896Y006146D01*
X010937Y006122D01*
X010982Y006110D01*
X011253Y006110D01*
X011253Y006478D01*
X011310Y006478D01*
X011310Y006110D01*
X011434Y006110D01*
X011432Y006100D01*
X010633Y006100D01*
X010656Y006140D01*
X010668Y006186D01*
X010668Y006233D01*
X010656Y006279D01*
X010632Y006320D01*
X010407Y006546D01*
X010181Y006771D01*
X010140Y006795D01*
X010094Y006807D01*
X010047Y006807D01*
X010001Y006795D01*
X009960Y006771D01*
X009874Y006685D01*
X010210Y006349D01*
X010407Y006546D01*
X010210Y006349D01*
X010210Y006349D01*
X010210Y006349D01*
X009874Y006685D01*
X009787Y006599D01*
X009764Y006558D01*
X009752Y006512D01*
X009752Y006506D01*
X009569Y006323D01*
X009569Y006322D01*
X009567Y006322D01*
X009346Y006101D01*
X009346Y006099D01*
X009345Y006099D01*
X009123Y005878D01*
X009123Y005876D01*
X009122Y005876D01*
X008901Y005655D01*
X008901Y005654D01*
X008899Y005654D01*
X008678Y005433D01*
X008678Y005431D01*
X008676Y005431D01*
X008455Y005210D01*
X008455Y005208D01*
X008454Y005208D01*
X008233Y004987D01*
X008233Y004986D01*
X008231Y004986D01*
X008010Y004764D01*
X008010Y004763D01*
X008008Y004763D01*
X007826Y004580D01*
X007820Y004580D01*
X007774Y004568D01*
X007733Y004544D01*
X007647Y004458D01*
X007967Y004137D01*
X007647Y004458D01*
X007560Y004372D01*
X007548Y004350D01*
X007368Y004350D01*
X007178Y004540D01*
X007176Y004540D01*
X007176Y004542D01*
X006955Y004763D01*
X006954Y004763D01*
X006954Y004764D01*
X006888Y004830D01*
X007197Y004830D01*
X007204Y004814D01*
X007296Y004722D01*
X007416Y004672D01*
X007547Y004672D01*
X007668Y004722D01*
X007760Y004814D01*
X007810Y004935D01*
X007810Y005065D01*
X007805Y005077D01*
X007816Y005072D01*
X007947Y005072D01*
X008068Y005122D01*
X008160Y005214D01*
X008210Y005335D01*
X008210Y005465D01*
X008205Y005477D01*
X008216Y005472D01*
X008347Y005472D01*
X008468Y005522D01*
X008560Y005614D01*
X008610Y005735D01*
X008610Y005865D01*
X008560Y005986D01*
X008468Y006078D01*
X008347Y006128D01*
X008216Y006128D01*
X008096Y006078D01*
X008038Y006020D01*
X007073Y006020D01*
X006402Y006691D01*
X006273Y006820D01*
X005596Y006820D01*
X005217Y007199D01*
X005395Y007377D01*
X005395Y007378D01*
X005396Y007378D01*
X005617Y007599D01*
X005617Y007601D01*
X005619Y007601D01*
X005840Y007822D01*
X005840Y007824D01*
X005842Y007824D01*
X006063Y008045D01*
X006063Y008046D01*
X006064Y008046D01*
X006285Y008267D01*
X006285Y008269D01*
X006287Y008269D01*
X006508Y008490D01*
X006508Y008492D01*
X006510Y008492D01*
X006692Y008674D01*
X006698Y008674D01*
X006744Y008687D01*
X006785Y008710D01*
X006871Y008797D01*
X006575Y009093D01*
X006575Y009093D01*
X006668Y009000D02*
X006668Y009000D01*
X006827Y008841D02*
X006827Y008841D01*
X006916Y008841D02*
X006961Y008841D01*
X007012Y008683D02*
X006728Y008683D01*
X006542Y008524D02*
X007012Y008524D01*
X007012Y008366D02*
X006383Y008366D01*
X006225Y008207D02*
X007012Y008207D01*
X007012Y008049D02*
X006066Y008049D01*
X005908Y007890D02*
X007011Y007890D01*
X006852Y007732D02*
X005749Y007732D01*
X005591Y007573D02*
X006812Y007573D01*
X006812Y007415D02*
X005432Y007415D01*
X005274Y007256D02*
X006812Y007256D01*
X006812Y007098D02*
X005318Y007098D01*
X005477Y006939D02*
X006812Y006939D01*
X006812Y006781D02*
X006312Y006781D01*
X006182Y006600D02*
X005505Y006600D01*
X004754Y007351D01*
X004612Y007156D02*
X004335Y007432D01*
X004335Y007548D01*
X004556Y007769D01*
X004558Y007769D01*
X004558Y007771D01*
X004690Y007903D01*
X004646Y007922D01*
X004554Y008014D01*
X004504Y008135D01*
X004504Y008161D01*
X004164Y007821D01*
X004035Y007693D01*
X003994Y007693D01*
X003994Y007461D01*
X003939Y007406D01*
X004016Y007406D01*
X004061Y007393D01*
X004102Y007370D01*
X004136Y007336D01*
X004160Y007295D01*
X004172Y007249D01*
X004172Y006978D01*
X003804Y006978D01*
X003804Y006922D01*
X004172Y006922D01*
X004172Y006651D01*
X004160Y006605D01*
X004136Y006564D01*
X004102Y006530D01*
X004091Y006524D01*
X004132Y006484D01*
X004132Y005816D01*
X004066Y005750D01*
X004132Y005684D01*
X004132Y005305D01*
X005367Y004070D01*
X006417Y004070D01*
X006340Y004147D01*
X006340Y004149D01*
X006338Y004149D01*
X006117Y004370D01*
X006117Y004372D01*
X006115Y004372D01*
X005894Y004593D01*
X005894Y004594D01*
X005893Y004594D01*
X005671Y004815D01*
X005671Y004817D01*
X005670Y004817D01*
X005492Y004995D01*
X005377Y004880D01*
X005226Y004880D01*
X005168Y004822D01*
X005047Y004772D01*
X004916Y004772D01*
X004796Y004822D01*
X004704Y004914D01*
X004654Y005035D01*
X004654Y005165D01*
X004704Y005286D01*
X004796Y005378D01*
X004916Y005428D01*
X005047Y005428D01*
X005067Y005420D01*
X005003Y005484D01*
X005003Y005485D01*
X005002Y005485D01*
X004860Y005627D01*
X004860Y005585D01*
X004810Y005464D01*
X004718Y005372D01*
X004597Y005322D01*
X004466Y005322D01*
X004346Y005372D01*
X004254Y005464D01*
X004204Y005585D01*
X004204Y005715D01*
X004254Y005836D01*
X004346Y005928D01*
X004456Y005974D01*
X004417Y006013D01*
X004638Y006233D01*
X004417Y006013D01*
X004331Y006099D01*
X004307Y006140D01*
X004295Y006186D01*
X004295Y006233D01*
X004307Y006279D01*
X004331Y006320D01*
X004512Y006501D01*
X004512Y006541D01*
X004641Y006670D01*
X004846Y006875D01*
X004612Y007109D01*
X004612Y007156D01*
X004623Y007098D02*
X004172Y007098D01*
X004170Y007256D02*
X004511Y007256D01*
X004353Y007415D02*
X003948Y007415D01*
X003994Y007573D02*
X004360Y007573D01*
X004518Y007732D02*
X004074Y007732D01*
X003944Y007913D02*
X003382Y007913D01*
X003944Y007913D02*
X004782Y008750D01*
X005582Y008750D01*
X005867Y008465D01*
X006090Y008687D02*
X005727Y009050D01*
X004782Y009050D01*
X004388Y009444D01*
X004388Y009600D01*
X004745Y009634D02*
X004779Y009634D01*
X004779Y009792D02*
X004745Y009792D01*
X004728Y009951D02*
X004794Y009951D01*
X005203Y010268D02*
X004282Y010268D01*
X004048Y009951D02*
X003983Y009951D01*
X003569Y010268D02*
X003526Y010268D01*
X003535Y010426D02*
X003569Y010426D01*
X003535Y010628D02*
X003166Y010628D01*
X003166Y011056D01*
X003378Y011056D01*
X003424Y011043D01*
X003465Y011020D01*
X003499Y010986D01*
X003522Y010945D01*
X003535Y010899D01*
X003535Y010628D01*
X003535Y010743D02*
X003569Y010743D01*
X003569Y010902D02*
X003534Y010902D01*
X003166Y010902D02*
X003110Y010902D01*
X003110Y010743D02*
X003166Y010743D01*
X002742Y010902D02*
X002462Y010902D01*
X002462Y011060D02*
X005754Y011060D01*
X005722Y010902D02*
X004282Y010902D01*
X005350Y010743D02*
X005722Y010743D01*
X005722Y010585D02*
X005508Y010585D01*
X005667Y010426D02*
X005722Y010426D01*
X006082Y010050D02*
X006758Y009374D01*
X006758Y009355D01*
X007232Y008882D01*
X007232Y007800D01*
X007032Y007600D01*
X007032Y006800D01*
X007232Y006600D01*
X008432Y006600D01*
X008582Y006750D01*
X008832Y006750D01*
X009134Y006622D02*
X009811Y006622D01*
X009937Y006622D02*
X009937Y006622D01*
X009976Y006781D02*
X009160Y006781D01*
X009107Y006939D02*
X010006Y006939D01*
X010135Y006939D02*
X010543Y006939D01*
X010384Y007098D02*
X010294Y007098D01*
X010210Y007351D02*
X010359Y007500D01*
X010682Y007300D01*
X011282Y007294D02*
X011282Y007550D01*
X011032Y007850D01*
X010282Y007850D01*
X010006Y007574D01*
X009987Y007574D01*
X009956Y007574D01*
X009582Y007200D01*
X009382Y007200D01*
X008832Y007200D01*
X008632Y007400D01*
X007832Y007400D02*
X007832Y008982D01*
X008206Y009355D01*
X008428Y009133D02*
X008232Y008936D01*
X008232Y007000D01*
X008606Y006464D02*
X008666Y006464D01*
X008997Y006464D02*
X009709Y006464D01*
X009550Y006305D02*
X006788Y006305D01*
X006946Y006147D02*
X009392Y006147D01*
X009233Y005988D02*
X008558Y005988D01*
X008610Y005830D02*
X009075Y005830D01*
X008916Y005671D02*
X008583Y005671D01*
X008445Y005513D02*
X008758Y005513D01*
X008599Y005354D02*
X008210Y005354D01*
X008141Y005196D02*
X008441Y005196D01*
X008282Y005037D02*
X007810Y005037D01*
X007787Y004879D02*
X008124Y004879D01*
X007965Y004720D02*
X007663Y004720D01*
X007763Y004562D02*
X007156Y004562D01*
X007300Y004720D02*
X006998Y004720D01*
X006882Y005050D02*
X005982Y005950D01*
X005682Y005950D01*
X005582Y005850D01*
X005582Y005800D01*
X005462Y005681D01*
X005422Y005681D01*
X005644Y005458D02*
X005286Y005100D01*
X004982Y005100D01*
X005224Y004879D02*
X005608Y004879D01*
X005767Y004720D02*
X004717Y004720D01*
X004739Y004879D02*
X004558Y004879D01*
X004654Y005037D02*
X004400Y005037D01*
X004241Y005196D02*
X004666Y005196D01*
X004675Y005354D02*
X004772Y005354D01*
X004830Y005513D02*
X004974Y005513D01*
X004532Y005650D02*
X004976Y006095D01*
X004976Y006126D01*
X005016Y006166D02*
X005312Y006462D01*
X005398Y006377D01*
X005407Y006386D01*
X005285Y006509D01*
X005285Y006509D01*
X005038Y006756D01*
X005000Y006718D01*
X005133Y006585D01*
X005139Y006585D01*
X005185Y006572D01*
X005226Y006549D01*
X005312Y006462D01*
X005016Y006166D01*
X005016Y006166D01*
X005155Y006305D02*
X005155Y006305D01*
X005311Y006464D02*
X005330Y006464D01*
X005171Y006622D02*
X005096Y006622D01*
X004751Y006781D02*
X004172Y006781D01*
X004164Y006622D02*
X004593Y006622D01*
X004474Y006464D02*
X004132Y006464D01*
X004132Y006305D02*
X004322Y006305D01*
X004306Y006147D02*
X004132Y006147D01*
X004132Y005988D02*
X004442Y005988D01*
X004551Y006147D02*
X004551Y006147D01*
X004638Y006233D02*
X004638Y006233D01*
X005199Y005903D02*
X005235Y005903D01*
X005632Y006300D01*
X006032Y006300D01*
X006982Y005350D01*
X007832Y005350D01*
X007882Y005400D01*
X008282Y005800D02*
X006982Y005800D01*
X006182Y006600D01*
X006471Y006622D02*
X006899Y006622D01*
X007057Y006464D02*
X006629Y006464D01*
X007382Y006950D02*
X007382Y007550D01*
X007532Y007700D01*
X007532Y009127D01*
X007983Y009578D01*
X007713Y009792D02*
X007104Y009792D01*
X007359Y009634D02*
X007554Y009634D01*
X007562Y010109D02*
X008084Y010109D01*
X007843Y010268D02*
X007687Y010268D01*
X007742Y010426D02*
X007752Y010426D01*
X007739Y010743D02*
X007683Y010743D01*
X007812Y010902D02*
X007551Y010902D01*
X008010Y011060D02*
X006710Y011060D01*
X006742Y010902D02*
X006912Y010902D01*
X006780Y010743D02*
X006742Y010743D01*
X006742Y010268D02*
X006776Y010268D01*
X005693Y009475D02*
X005572Y009475D01*
X005572Y009317D02*
X006047Y009317D01*
X005976Y009246D02*
X006197Y009026D01*
X006197Y009026D01*
X005976Y009246D01*
X006065Y009158D02*
X006065Y009158D01*
X004779Y009475D02*
X004745Y009475D01*
X004363Y009158D02*
X003994Y009158D01*
X003958Y009000D02*
X004521Y009000D01*
X004562Y008841D02*
X002462Y008841D01*
X002462Y008683D02*
X004403Y008683D01*
X004245Y008524D02*
X002462Y008524D01*
X002462Y008366D02*
X002770Y008366D01*
X002769Y008207D02*
X002462Y008207D01*
X002462Y008049D02*
X002769Y008049D01*
X002769Y007890D02*
X002462Y007890D01*
X002462Y007732D02*
X002720Y007732D01*
X002648Y007573D02*
X002462Y007573D01*
X002462Y007415D02*
X002648Y007415D01*
X002631Y007256D02*
X002462Y007256D01*
X002462Y007098D02*
X002631Y007098D01*
X002631Y006939D02*
X002462Y006939D01*
X002462Y006781D02*
X002631Y006781D01*
X002631Y006622D02*
X002462Y006622D01*
X002462Y006464D02*
X002595Y006464D01*
X002591Y006305D02*
X002462Y006305D01*
X002462Y006147D02*
X002960Y006147D01*
X002988Y006150D02*
X003775Y006937D01*
X003775Y006950D01*
X003747Y006939D02*
X003345Y006939D01*
X003379Y006922D02*
X003379Y006651D01*
X003391Y006605D01*
X003415Y006564D01*
X003448Y006530D01*
X003459Y006524D01*
X003419Y006484D01*
X003419Y005816D01*
X003485Y005750D01*
X003419Y005684D01*
X003419Y005074D01*
X003345Y005148D01*
X003345Y005684D01*
X003304Y005724D01*
X003315Y005730D01*
X003349Y005764D01*
X003372Y005805D01*
X003385Y005851D01*
X003385Y006122D01*
X003016Y006122D01*
X003016Y006178D01*
X003385Y006178D01*
X003385Y006449D01*
X003372Y006495D01*
X003349Y006536D01*
X003315Y006570D01*
X003304Y006576D01*
X003345Y006616D01*
X003345Y007284D01*
X003328Y007300D01*
X003328Y007378D01*
X003329Y007379D01*
X003464Y007379D01*
X003448Y007370D01*
X003415Y007336D01*
X003391Y007295D01*
X003379Y007249D01*
X003379Y006978D01*
X003747Y006978D01*
X003747Y006922D01*
X003379Y006922D01*
X003379Y006781D02*
X003345Y006781D01*
X003345Y006622D02*
X003387Y006622D01*
X003381Y006464D02*
X003419Y006464D01*
X003419Y006305D02*
X003385Y006305D01*
X003419Y006147D02*
X003016Y006147D01*
X003385Y005988D02*
X003419Y005988D01*
X003419Y005830D02*
X003379Y005830D01*
X003345Y005671D02*
X003419Y005671D01*
X003419Y005513D02*
X003345Y005513D01*
X003345Y005354D02*
X003419Y005354D01*
X003419Y005196D02*
X003345Y005196D01*
X003775Y005350D02*
X003775Y006150D01*
X004132Y005830D02*
X004251Y005830D01*
X004204Y005671D02*
X004132Y005671D01*
X004132Y005513D02*
X004234Y005513D01*
X004132Y005354D02*
X004389Y005354D01*
X003775Y005350D02*
X005275Y003850D01*
X006682Y003850D01*
X006954Y004122D01*
X006981Y004122D01*
X007076Y003880D02*
X007173Y003880D01*
X007423Y004130D01*
X007541Y004130D01*
X007662Y004009D01*
X007791Y003880D01*
X007844Y003880D01*
X007846Y003878D01*
X007888Y003879D01*
X008064Y003703D01*
X008180Y003703D01*
X008363Y003886D01*
X008368Y003886D01*
X008414Y003898D01*
X008455Y003922D01*
X008542Y004008D01*
X008340Y004210D01*
X008542Y004008D01*
X008602Y004069D01*
X008762Y003909D01*
X008762Y002359D01*
X008766Y002355D01*
X008742Y002297D01*
X008742Y002103D01*
X008816Y001922D01*
X008954Y001785D01*
X008965Y001780D01*
X007505Y001780D01*
X007772Y002047D01*
X007772Y002453D01*
X007503Y002722D01*
X007812Y003030D01*
X007812Y003230D01*
X007302Y003230D01*
X007302Y003270D01*
X007812Y003270D01*
X007812Y003470D01*
X007501Y003780D01*
X007302Y003780D01*
X007302Y003270D01*
X007262Y003270D01*
X007262Y003780D01*
X007062Y003780D01*
X006753Y003471D01*
X006595Y003630D01*
X006773Y003630D01*
X006846Y003703D01*
X006899Y003703D01*
X007076Y003880D01*
X007051Y003769D02*
X006965Y003769D01*
X006893Y003611D02*
X006614Y003611D01*
X007262Y003611D02*
X007302Y003611D01*
X007302Y003769D02*
X007262Y003769D01*
X007220Y003928D02*
X007743Y003928D01*
X007585Y004086D02*
X007379Y004086D01*
X007315Y004403D02*
X007592Y004403D01*
X007702Y004403D02*
X007702Y004403D01*
X007860Y004245D02*
X007860Y004245D01*
X007967Y004137D02*
X007967Y004137D01*
X008340Y004210D02*
X008340Y004210D01*
X008464Y004086D02*
X008464Y004086D01*
X008461Y003928D02*
X008743Y003928D01*
X008762Y003769D02*
X008246Y003769D01*
X007998Y003769D02*
X007512Y003769D01*
X007671Y003611D02*
X008762Y003611D01*
X008762Y003452D02*
X007812Y003452D01*
X007812Y003294D02*
X008762Y003294D01*
X008762Y003135D02*
X007812Y003135D01*
X007758Y002977D02*
X008762Y002977D01*
X008762Y002818D02*
X007599Y002818D01*
X007565Y002660D02*
X008762Y002660D01*
X008762Y002501D02*
X007724Y002501D01*
X007772Y002343D02*
X008760Y002343D01*
X008742Y002184D02*
X007772Y002184D01*
X007750Y002026D02*
X008774Y002026D01*
X008872Y001867D02*
X007592Y001867D01*
X006972Y001867D02*
X006592Y001867D01*
X006750Y002026D02*
X006813Y002026D01*
X006792Y002184D02*
X006772Y002184D01*
X006772Y002343D02*
X006792Y002343D01*
X006840Y002501D02*
X006724Y002501D01*
X006565Y002660D02*
X006998Y002660D01*
X006964Y002818D02*
X006543Y002818D01*
X006701Y002977D02*
X006806Y002977D01*
X007262Y003294D02*
X007302Y003294D01*
X007302Y003452D02*
X007262Y003452D01*
X006401Y004086D02*
X005351Y004086D01*
X005192Y004245D02*
X006242Y004245D01*
X006084Y004403D02*
X005034Y004403D01*
X004875Y004562D02*
X005925Y004562D01*
X006882Y005050D02*
X007432Y005050D01*
X007482Y005000D01*
X008428Y004567D02*
X008428Y004553D01*
X008982Y004000D01*
X008982Y002450D01*
X009232Y002200D01*
X009432Y002950D02*
X010232Y002200D01*
X011232Y002200D02*
X009982Y003450D01*
X009982Y003900D01*
X008874Y005008D01*
X008874Y005013D01*
X008651Y004790D02*
X008651Y004781D01*
X009432Y003950D01*
X009432Y002950D01*
X010332Y003600D02*
X011182Y002750D01*
X011682Y002750D01*
X012232Y002200D01*
X012132Y002750D02*
X011832Y003050D01*
X011332Y003050D01*
X010632Y003750D01*
X010632Y004145D01*
X009319Y005458D01*
X009096Y005235D02*
X010332Y004000D01*
X010332Y003600D01*
X010932Y003850D02*
X011482Y003300D01*
X011982Y003300D01*
X012282Y003000D01*
X012882Y003000D01*
X013182Y002700D01*
X013732Y002700D01*
X014232Y002200D01*
X014624Y002501D02*
X014795Y002501D01*
X014721Y002343D02*
X014703Y002343D01*
X014966Y002660D02*
X014403Y002660D01*
X013925Y002818D02*
X017195Y002818D01*
X017206Y002806D02*
X017637Y002806D01*
X017719Y002888D01*
X017719Y003598D01*
X017796Y003522D01*
X017916Y003472D01*
X018047Y003472D01*
X018168Y003522D01*
X018260Y003614D01*
X018310Y003735D01*
X018310Y003865D01*
X018260Y003986D01*
X018202Y004044D01*
X018202Y005155D01*
X017719Y005637D01*
X017719Y006312D01*
X017637Y006394D01*
X017206Y006394D01*
X017124Y006312D01*
X017124Y004936D01*
X017206Y004854D01*
X017637Y004854D01*
X017719Y004936D01*
X017719Y005015D01*
X017762Y004973D01*
X017762Y004044D01*
X017719Y004002D01*
X017719Y004264D01*
X017637Y004346D01*
X017206Y004346D01*
X017124Y004264D01*
X017124Y004120D01*
X016776Y004120D01*
X016718Y004178D01*
X016597Y004228D01*
X016466Y004228D01*
X016346Y004178D01*
X016254Y004086D01*
X015821Y004086D01*
X015821Y004056D02*
X015821Y004644D01*
X015739Y004726D01*
X015151Y004726D01*
X015069Y004644D01*
X015069Y004056D01*
X015151Y003974D01*
X015244Y003974D01*
X015047Y003776D01*
X014347Y003776D01*
X014347Y003831D01*
X014265Y003913D01*
X013598Y003913D01*
X013516Y003831D01*
X013516Y003282D01*
X013598Y003200D01*
X014265Y003200D01*
X014347Y003282D01*
X014347Y003336D01*
X015229Y003336D01*
X015573Y003680D01*
X015702Y003809D01*
X015702Y003974D01*
X015739Y003974D01*
X015821Y004056D01*
X015702Y003928D02*
X016204Y003928D01*
X016204Y003965D02*
X016204Y003835D01*
X016254Y003714D01*
X016346Y003622D01*
X016466Y003572D01*
X016597Y003572D01*
X016718Y003622D01*
X016776Y003680D01*
X017007Y003680D01*
X017124Y003563D01*
X017124Y002888D01*
X017206Y002806D01*
X017124Y002977D02*
X013216Y002977D01*
X013058Y003135D02*
X017124Y003135D01*
X017124Y003294D02*
X014347Y003294D01*
X013932Y003556D02*
X015138Y003556D01*
X015482Y003900D01*
X015482Y004313D01*
X015445Y004350D01*
X015069Y004403D02*
X015035Y004403D01*
X015035Y004388D02*
X015035Y004610D01*
X015022Y004656D01*
X014999Y004697D01*
X014965Y004730D01*
X014924Y004754D01*
X014878Y004766D01*
X014656Y004766D01*
X014656Y004388D01*
X014580Y004388D01*
X014580Y004766D01*
X014358Y004766D01*
X014313Y004754D01*
X014272Y004730D01*
X014242Y004700D01*
X014152Y004700D01*
X014152Y004706D01*
X014210Y004764D01*
X014260Y004885D01*
X014260Y005015D01*
X014225Y005100D01*
X014265Y005100D01*
X014338Y005172D01*
X014338Y005170D01*
X014362Y005129D01*
X014396Y005096D01*
X014437Y005072D01*
X014482Y005060D01*
X014753Y005060D01*
X014753Y005428D01*
X014810Y005428D01*
X014810Y005060D01*
X015081Y005060D01*
X015127Y005072D01*
X015168Y005096D01*
X015201Y005129D01*
X015225Y005170D01*
X015237Y005216D01*
X015237Y005428D01*
X014810Y005428D01*
X014810Y005485D01*
X014753Y005485D01*
X014753Y005853D01*
X014639Y005853D01*
X014674Y005887D01*
X015115Y005887D01*
X015197Y005969D01*
X015197Y006024D01*
X015258Y006024D01*
X015256Y006016D01*
X015256Y005676D01*
X015664Y005676D01*
X015664Y005541D01*
X015256Y005541D01*
X015256Y005201D01*
X015269Y005155D01*
X015292Y005114D01*
X015326Y005081D01*
X015367Y005057D01*
X015413Y005045D01*
X015664Y005045D01*
X015664Y005541D01*
X015799Y005541D01*
X015799Y005045D01*
X016051Y005045D01*
X016096Y005057D01*
X016138Y005081D01*
X016171Y005114D01*
X016195Y005155D01*
X016207Y005201D01*
X016207Y005541D01*
X015799Y005541D01*
X015799Y005676D01*
X016207Y005676D01*
X016207Y006016D01*
X016195Y006062D01*
X016171Y006103D01*
X016138Y006137D01*
X016096Y006160D01*
X016069Y006167D01*
X016085Y006167D01*
X016167Y006249D01*
X016167Y007133D01*
X016085Y007215D01*
X015378Y007215D01*
X015296Y007133D01*
X015296Y006567D01*
X015197Y006468D01*
X015197Y006518D01*
X015115Y006600D01*
X014593Y006600D01*
X014873Y006880D01*
X014893Y006900D01*
X015090Y006900D01*
X015172Y006982D01*
X015172Y007978D01*
X015090Y008060D01*
X014494Y008060D01*
X014412Y007978D01*
X014412Y007041D01*
X013971Y006600D01*
X013598Y006600D01*
X013516Y006518D01*
X013516Y005969D01*
X013598Y005887D01*
X014051Y005887D01*
X013977Y005813D01*
X013598Y005813D01*
X013516Y005731D01*
X013516Y005182D01*
X013598Y005100D01*
X013639Y005100D01*
X013604Y005015D01*
X013604Y004885D01*
X013654Y004764D01*
X013712Y004706D01*
X013712Y004700D01*
X013598Y004700D01*
X013516Y004618D01*
X013516Y004069D01*
X013598Y003987D01*
X014254Y003987D01*
X014272Y003970D01*
X014313Y003946D01*
X014358Y003934D01*
X014580Y003934D01*
X014580Y004312D01*
X014656Y004312D01*
X014656Y003934D01*
X014878Y003934D01*
X014924Y003946D01*
X014965Y003970D01*
X014999Y004003D01*
X015022Y004044D01*
X015035Y004090D01*
X015035Y004312D01*
X014656Y004312D01*
X014656Y004388D01*
X015035Y004388D01*
X015035Y004245D02*
X015069Y004245D01*
X015069Y004086D02*
X015033Y004086D01*
X015198Y003928D02*
X012452Y003928D01*
X012232Y003750D02*
X012232Y004313D01*
X012195Y004350D01*
X011819Y004403D02*
X011745Y004403D01*
X011745Y004245D02*
X011819Y004245D01*
X011819Y004086D02*
X011745Y004086D01*
X012012Y003928D02*
X011165Y003928D01*
X011324Y003769D02*
X012012Y003769D01*
X012060Y003611D02*
X011482Y003611D01*
X010932Y003850D02*
X010932Y004300D01*
X009551Y005681D01*
X009542Y005681D01*
X010030Y005513D02*
X011606Y005513D01*
X011606Y005354D02*
X010189Y005354D01*
X010347Y005196D02*
X011063Y005196D01*
X011004Y005037D02*
X010506Y005037D01*
X010664Y004879D02*
X011027Y004879D01*
X011068Y004720D02*
X010823Y004720D01*
X010981Y004562D02*
X010992Y004562D01*
X011368Y004350D02*
X011368Y004963D01*
X011332Y005000D01*
X011637Y004879D02*
X013606Y004879D01*
X013613Y005037D02*
X011660Y005037D01*
X011608Y005196D02*
X011600Y005196D01*
X012014Y005196D02*
X012149Y005196D01*
X012149Y005354D02*
X012014Y005354D01*
X012014Y005513D02*
X012149Y005513D01*
X012149Y005671D02*
X012576Y005671D01*
X012576Y005513D02*
X012557Y005513D01*
X012557Y005354D02*
X012576Y005354D01*
X012582Y005196D02*
X012555Y005196D01*
X013003Y005196D02*
X013060Y005196D01*
X013060Y005354D02*
X013003Y005354D01*
X013487Y005354D02*
X013516Y005354D01*
X013516Y005196D02*
X013482Y005196D01*
X013487Y005513D02*
X013516Y005513D01*
X013516Y005671D02*
X013487Y005671D01*
X013396Y005830D02*
X013994Y005830D01*
X013516Y005988D02*
X013447Y005988D01*
X013447Y006147D02*
X013516Y006147D01*
X013516Y006305D02*
X013447Y006305D01*
X013447Y006464D02*
X013516Y006464D01*
X013415Y006622D02*
X013993Y006622D01*
X014151Y006781D02*
X013573Y006781D01*
X013382Y006900D02*
X013132Y006650D01*
X013132Y006640D01*
X013060Y006640D01*
X013060Y006272D01*
X013003Y006272D01*
X013003Y006215D01*
X012576Y006215D01*
X012576Y006003D01*
X012577Y006000D01*
X012532Y006000D01*
X012517Y006018D01*
X012517Y006051D01*
X012435Y006133D01*
X012421Y006133D01*
X012446Y006140D01*
X012488Y006163D01*
X012521Y006197D01*
X012545Y006238D01*
X012557Y006284D01*
X012557Y006624D01*
X012149Y006624D01*
X012149Y006759D01*
X012014Y006759D01*
X012014Y007255D01*
X011824Y007255D01*
X012632Y008300D01*
X013332Y008300D01*
X013382Y008250D01*
X013382Y007981D01*
X013379Y007989D01*
X013356Y008031D01*
X013322Y008064D01*
X013281Y008088D01*
X013235Y008100D01*
X013012Y008100D01*
X013012Y007520D01*
X012932Y007520D01*
X012932Y008100D01*
X012708Y008100D01*
X012662Y008088D01*
X012621Y008064D01*
X012588Y008031D01*
X012564Y007989D01*
X012552Y007944D01*
X012552Y007520D01*
X012932Y007520D01*
X012932Y007440D01*
X013012Y007440D01*
X013012Y006860D01*
X013235Y006860D01*
X013281Y006872D01*
X013322Y006896D01*
X013356Y006929D01*
X013379Y006971D01*
X013382Y006979D01*
X013382Y006900D01*
X013382Y006939D02*
X013361Y006939D01*
X013262Y006781D02*
X012557Y006781D01*
X012557Y006759D02*
X012557Y006997D01*
X012564Y006971D01*
X012588Y006929D01*
X012621Y006896D01*
X012662Y006872D01*
X012708Y006860D01*
X012932Y006860D01*
X012932Y007440D01*
X012552Y007440D01*
X012552Y007119D01*
X012545Y007145D01*
X012521Y007186D01*
X012488Y007219D01*
X012446Y007243D01*
X012401Y007255D01*
X012149Y007255D01*
X012149Y006759D01*
X012557Y006759D01*
X012557Y006622D02*
X012676Y006622D01*
X012687Y006628D02*
X012646Y006604D01*
X012612Y006571D01*
X012588Y006530D01*
X012576Y006484D01*
X012576Y006272D01*
X013003Y006272D01*
X013003Y006640D01*
X012732Y006640D01*
X012687Y006628D01*
X012576Y006464D02*
X012557Y006464D01*
X012557Y006305D02*
X012576Y006305D01*
X012576Y006147D02*
X012458Y006147D01*
X012421Y006133D02*
X012421Y006133D01*
X013003Y006305D02*
X013060Y006305D01*
X013060Y006464D02*
X013003Y006464D01*
X013003Y006622D02*
X013060Y006622D01*
X013012Y006939D02*
X012932Y006939D01*
X012932Y007098D02*
X013012Y007098D01*
X013012Y007256D02*
X012932Y007256D01*
X012932Y007415D02*
X013012Y007415D01*
X013012Y007573D02*
X012932Y007573D01*
X012932Y007732D02*
X013012Y007732D01*
X013012Y007890D02*
X012932Y007890D01*
X012932Y008049D02*
X013012Y008049D01*
X013338Y008049D02*
X013382Y008049D01*
X013382Y008207D02*
X012560Y008207D01*
X012606Y008049D02*
X012437Y008049D01*
X012552Y007890D02*
X012315Y007890D01*
X012192Y007732D02*
X012552Y007732D01*
X012552Y007573D02*
X012070Y007573D01*
X011947Y007415D02*
X012552Y007415D01*
X012552Y007256D02*
X011825Y007256D01*
X012014Y007098D02*
X012149Y007098D01*
X012149Y006939D02*
X012014Y006939D01*
X012014Y006781D02*
X012149Y006781D01*
X012557Y006939D02*
X012582Y006939D01*
X011792Y007573D02*
X011693Y007573D01*
X011914Y007732D02*
X011417Y007732D01*
X011285Y007890D02*
X012037Y007890D01*
X012159Y008049D02*
X011591Y008049D01*
X011750Y008207D02*
X012282Y008207D01*
X012404Y008366D02*
X011908Y008366D01*
X011882Y008650D02*
X011882Y008736D01*
X011882Y008650D02*
X011382Y008150D01*
X010118Y008150D01*
X009764Y007797D01*
X009542Y008019D02*
X009973Y008450D01*
X010782Y008450D01*
X011052Y008721D01*
X011052Y008768D01*
X010637Y008841D02*
X009631Y008841D01*
X009631Y009000D02*
X010637Y009000D01*
X010526Y009086D02*
X010559Y009120D01*
X010583Y009161D01*
X010595Y009207D01*
X010595Y009478D01*
X010227Y009478D01*
X010227Y009534D01*
X010595Y009534D01*
X010595Y009805D01*
X010583Y009851D01*
X010559Y009892D01*
X010526Y009926D01*
X010485Y009949D01*
X010439Y009962D01*
X010227Y009962D01*
X010227Y009534D01*
X010170Y009534D01*
X010170Y009478D01*
X009802Y009478D01*
X009802Y009207D01*
X009814Y009161D01*
X009838Y009120D01*
X009872Y009086D01*
X009913Y009063D01*
X009958Y009050D01*
X010170Y009050D01*
X010170Y009478D01*
X010227Y009478D01*
X010227Y009050D01*
X010439Y009050D01*
X010485Y009063D01*
X010526Y009086D01*
X010581Y009158D02*
X015771Y009158D01*
X015766Y009152D02*
X015848Y009234D01*
X016751Y009234D01*
X016833Y009152D01*
X016833Y008092D01*
X016751Y008010D01*
X015848Y008010D01*
X015766Y008092D01*
X015766Y009152D01*
X015766Y009000D02*
X012297Y009000D01*
X012297Y008841D02*
X015766Y008841D01*
X015766Y008683D02*
X012297Y008683D01*
X012297Y008524D02*
X012649Y008524D01*
X012702Y008524D02*
X015766Y008524D01*
X015766Y008366D02*
X013577Y008366D01*
X013602Y008207D02*
X015766Y008207D01*
X015809Y008049D02*
X015101Y008049D01*
X015172Y007890D02*
X017132Y007890D01*
X017136Y007876D02*
X017159Y007835D01*
X017193Y007802D01*
X017234Y007778D01*
X017280Y007766D01*
X017402Y007766D01*
X017402Y008400D01*
X017402Y009034D01*
X017280Y009034D01*
X017234Y009022D01*
X017193Y008998D01*
X017159Y008965D01*
X017136Y008924D01*
X017123Y008878D01*
X017123Y008400D01*
X017123Y007922D01*
X017136Y007876D01*
X017123Y008049D02*
X016790Y008049D01*
X016833Y008207D02*
X017123Y008207D01*
X017123Y008366D02*
X016833Y008366D01*
X016833Y008524D02*
X017123Y008524D01*
X017123Y008400D02*
X017402Y008400D01*
X017123Y008400D01*
X017402Y008400D02*
X017402Y008400D01*
X017402Y008366D02*
X017402Y008366D01*
X017402Y008524D02*
X017402Y008524D01*
X017402Y008683D02*
X017402Y008683D01*
X017402Y008841D02*
X017402Y008841D01*
X017402Y009000D02*
X017402Y009000D01*
X017609Y009000D02*
X018370Y009000D01*
X018529Y009158D02*
X016828Y009158D01*
X016935Y009261D02*
X017085Y009199D01*
X017247Y009199D01*
X017396Y009261D01*
X017511Y009376D01*
X017573Y009525D01*
X017573Y009687D01*
X017511Y009837D01*
X017396Y009951D01*
X017247Y010013D01*
X017085Y010013D01*
X016935Y009951D01*
X016820Y009837D01*
X016758Y009687D01*
X016758Y009525D01*
X016820Y009376D01*
X016935Y009261D01*
X016880Y009317D02*
X014650Y009317D01*
X014660Y009319D02*
X014701Y009343D01*
X014734Y009376D01*
X014758Y009418D01*
X014770Y009463D01*
X014770Y009840D01*
X013962Y009840D01*
X013962Y010000D01*
X014770Y010000D01*
X014770Y010377D01*
X014758Y010423D01*
X014734Y010464D01*
X014701Y010497D01*
X014660Y010521D01*
X014614Y010533D01*
X013962Y010533D01*
X013962Y010000D01*
X013802Y010000D01*
X013802Y010533D01*
X013149Y010533D01*
X013104Y010521D01*
X013063Y010497D01*
X013029Y010464D01*
X013005Y010423D01*
X012993Y010377D01*
X012993Y010000D01*
X013802Y010000D01*
X013802Y009840D01*
X013962Y009840D01*
X013962Y009307D01*
X014614Y009307D01*
X014660Y009319D01*
X014770Y009475D02*
X016779Y009475D01*
X016758Y009634D02*
X014770Y009634D01*
X014770Y009792D02*
X016802Y009792D01*
X016934Y009951D02*
X013962Y009951D01*
X013962Y010109D02*
X013802Y010109D01*
X013802Y009951D02*
X012375Y009951D01*
X012360Y009914D02*
X012410Y010035D01*
X012410Y010165D01*
X012360Y010286D01*
X012268Y010378D01*
X012147Y010428D01*
X012016Y010428D01*
X011896Y010378D01*
X011804Y010286D01*
X011754Y010165D01*
X011754Y010083D01*
X011662Y009991D01*
X011662Y009880D01*
X011548Y009880D01*
X011468Y009799D01*
X011468Y009830D01*
X011386Y009912D01*
X011272Y009912D01*
X011272Y010072D01*
X011347Y010072D01*
X011468Y010122D01*
X011560Y010214D01*
X011610Y010335D01*
X011610Y010465D01*
X011560Y010586D01*
X011468Y010678D01*
X011347Y010728D01*
X011216Y010728D01*
X011096Y010678D01*
X011004Y010586D01*
X010954Y010465D01*
X010954Y010383D01*
X010832Y010262D01*
X010832Y009912D01*
X010719Y009912D01*
X010637Y009830D01*
X010637Y009281D01*
X010719Y009199D01*
X011386Y009199D01*
X011466Y009279D01*
X011466Y009248D01*
X011548Y009166D01*
X012215Y009166D01*
X012297Y009248D01*
X012297Y009798D01*
X012270Y009825D01*
X012360Y009914D01*
X012297Y009792D02*
X012993Y009792D01*
X012993Y009840D02*
X012993Y009463D01*
X013005Y009418D01*
X013029Y009376D01*
X013063Y009343D01*
X013104Y009319D01*
X013149Y009307D01*
X013802Y009307D01*
X013802Y009840D01*
X012993Y009840D01*
X012993Y009634D02*
X012297Y009634D01*
X012297Y009475D02*
X012993Y009475D01*
X013114Y009317D02*
X012297Y009317D01*
X011882Y009523D02*
X011882Y009900D01*
X012082Y010100D01*
X012410Y010109D02*
X012993Y010109D01*
X012993Y010268D02*
X012367Y010268D01*
X012152Y010426D02*
X013007Y010426D01*
X013802Y010426D02*
X013962Y010426D01*
X013962Y010268D02*
X013802Y010268D01*
X013802Y009792D02*
X013962Y009792D01*
X013962Y009634D02*
X013802Y009634D01*
X013802Y009475D02*
X013962Y009475D01*
X013962Y009317D02*
X013802Y009317D01*
X014770Y010109D02*
X020337Y010109D01*
X020337Y009951D02*
X019129Y009951D01*
X019262Y009792D02*
X020337Y009792D01*
X020340Y009634D02*
X019305Y009634D01*
X019217Y009350D02*
X019128Y009261D01*
X018979Y009199D01*
X018881Y009199D01*
X018716Y009034D01*
X018784Y009034D01*
X018830Y009022D01*
X018871Y008998D01*
X018904Y008965D01*
X018928Y008924D01*
X018940Y008878D01*
X018940Y008400D01*
X018662Y008400D01*
X018940Y008400D01*
X018940Y007922D01*
X018928Y007876D01*
X018904Y007835D01*
X018871Y007802D01*
X018830Y007778D01*
X018784Y007766D01*
X018777Y007766D01*
X018873Y007670D01*
X020291Y007670D01*
X021016Y008395D01*
X020909Y008395D01*
X020909Y008813D01*
X020909Y008968D01*
X021367Y008968D01*
X021367Y009165D01*
X021382Y009150D01*
X021382Y008450D01*
X021352Y008420D01*
X021278Y008420D01*
X021297Y008431D01*
X021331Y008465D01*
X021354Y008506D01*
X021367Y008551D01*
X021367Y008813D01*
X020909Y008813D01*
X020754Y008813D01*
X020754Y008395D01*
X020453Y008395D01*
X020407Y008407D01*
X020366Y008431D01*
X020333Y008465D01*
X020309Y008506D01*
X020298Y008548D01*
X020298Y008092D01*
X020216Y008010D01*
X019312Y008010D01*
X019230Y008092D01*
X019230Y009152D01*
X019312Y009234D01*
X020216Y009234D01*
X020297Y009153D01*
X020297Y009229D01*
X020309Y009275D01*
X020333Y009316D01*
X020366Y009349D01*
X020368Y009350D01*
X019217Y009350D01*
X019184Y009317D02*
X020334Y009317D01*
X020297Y009158D02*
X020292Y009158D01*
X020909Y008841D02*
X021382Y008841D01*
X021367Y008683D02*
X021382Y008683D01*
X021382Y008524D02*
X021359Y008524D01*
X021132Y008200D02*
X020382Y007450D01*
X018782Y007450D01*
X018382Y007850D01*
X018382Y008365D01*
X018347Y008400D01*
X018662Y008400D02*
X018662Y008400D01*
X018940Y008366D02*
X019230Y008366D01*
X019230Y008524D02*
X018940Y008524D01*
X018940Y008683D02*
X019230Y008683D01*
X019230Y008841D02*
X018940Y008841D01*
X018869Y009000D02*
X019230Y009000D01*
X019236Y009158D02*
X018840Y009158D01*
X018612Y009317D02*
X017452Y009317D01*
X017552Y009475D02*
X018512Y009475D01*
X018491Y009634D02*
X017573Y009634D01*
X017529Y009792D02*
X018534Y009792D01*
X018666Y009951D02*
X017397Y009951D01*
X016833Y010268D02*
X019230Y010268D01*
X019230Y010426D02*
X016833Y010426D01*
X016833Y010585D02*
X019230Y010585D01*
X019230Y010743D02*
X016833Y010743D01*
X016833Y010902D02*
X019230Y010902D01*
X019230Y011060D02*
X016833Y011060D01*
X016833Y011219D02*
X019230Y011219D01*
X020298Y011219D02*
X021239Y011219D01*
X021081Y011060D02*
X020298Y011060D01*
X020298Y010902D02*
X020922Y010902D01*
X020764Y010743D02*
X020298Y010743D01*
X020298Y010585D02*
X020612Y010585D01*
X020832Y010500D02*
X021332Y011000D01*
X024632Y011000D01*
X024946Y010902D02*
X026502Y010902D01*
X026502Y011060D02*
X024960Y011060D01*
X024877Y011219D02*
X026502Y011219D01*
X026502Y010743D02*
X024839Y010743D01*
X025045Y010429D02*
X025361Y010560D01*
X025703Y010560D01*
X026019Y010429D01*
X026261Y010187D01*
X026392Y009871D01*
X026392Y009529D01*
X026261Y009213D01*
X026019Y008971D01*
X025703Y008840D01*
X025361Y008840D01*
X025045Y008971D01*
X024803Y009213D01*
X024672Y009529D01*
X024672Y009871D01*
X024803Y010187D01*
X025045Y010429D01*
X025042Y010426D02*
X021283Y010426D01*
X021327Y010268D02*
X024883Y010268D01*
X024770Y010109D02*
X021327Y010109D01*
X021327Y009951D02*
X024705Y009951D01*
X024672Y009792D02*
X021327Y009792D01*
X021323Y009634D02*
X021693Y009634D01*
X021555Y009475D02*
X021368Y009475D01*
X021367Y009158D02*
X021374Y009158D01*
X021367Y009000D02*
X021382Y009000D01*
X020909Y008683D02*
X020754Y008683D01*
X020754Y008524D02*
X020909Y008524D01*
X020986Y008366D02*
X020298Y008366D01*
X020298Y008524D02*
X020304Y008524D01*
X020298Y008207D02*
X020828Y008207D01*
X020669Y008049D02*
X020255Y008049D01*
X020511Y007890D02*
X018931Y007890D01*
X018940Y008049D02*
X019273Y008049D01*
X019230Y008207D02*
X018940Y008207D01*
X018811Y007732D02*
X020352Y007732D01*
X020482Y007200D02*
X020982Y007700D01*
X021007Y007415D02*
X021524Y007415D01*
X021484Y007256D02*
X020849Y007256D01*
X020690Y007098D02*
X021491Y007098D01*
X021547Y006939D02*
X016167Y006939D01*
X016167Y006781D02*
X021673Y006781D01*
X021677Y006622D02*
X016167Y006622D01*
X016167Y006464D02*
X021549Y006464D01*
X021491Y006305D02*
X020711Y006305D01*
X020711Y006312D02*
X020629Y006394D01*
X020199Y006394D01*
X020117Y006312D01*
X020117Y004936D01*
X020199Y004854D01*
X020629Y004854D01*
X020711Y004936D01*
X020711Y006312D01*
X020711Y006147D02*
X021483Y006147D01*
X021522Y005988D02*
X020711Y005988D01*
X020711Y005830D02*
X021624Y005830D01*
X021880Y005671D02*
X020711Y005671D01*
X020711Y005513D02*
X022522Y005513D01*
X022522Y005671D02*
X022183Y005671D01*
X022050Y005671D02*
X022013Y005671D01*
X022013Y005830D02*
X022050Y005830D01*
X022050Y005988D02*
X022013Y005988D01*
X022013Y006147D02*
X022050Y006147D01*
X022050Y006218D02*
X022013Y006218D01*
X022013Y006750D01*
X022013Y007182D01*
X022050Y007182D01*
X022050Y006218D01*
X022050Y006305D02*
X022013Y006305D01*
X022013Y006464D02*
X022050Y006464D01*
X022050Y006622D02*
X022013Y006622D01*
X022013Y006781D02*
X022050Y006781D01*
X022050Y006939D02*
X022013Y006939D01*
X022013Y007098D02*
X022050Y007098D01*
X022390Y006781D02*
X022522Y006781D01*
X022516Y006939D02*
X022579Y006939D01*
X022572Y007098D02*
X022708Y007098D01*
X022771Y007256D02*
X022580Y007256D01*
X022598Y007415D02*
X022540Y007415D01*
X022521Y008049D02*
X022659Y008049D01*
X022542Y008207D02*
X022889Y008207D01*
X022645Y008366D02*
X022515Y008366D01*
X022553Y008524D02*
X022429Y008524D01*
X022522Y008683D02*
X022219Y008683D01*
X022451Y008841D02*
X022538Y008841D01*
X022545Y009000D02*
X022610Y009000D01*
X022582Y009158D02*
X022805Y009158D01*
X022570Y009317D02*
X024760Y009317D01*
X024694Y009475D02*
X022509Y009475D01*
X022371Y009634D02*
X024672Y009634D01*
X024858Y009158D02*
X023259Y009158D01*
X023453Y009000D02*
X025016Y009000D01*
X025358Y008841D02*
X023565Y008841D01*
X023723Y008683D02*
X026502Y008683D01*
X026502Y008841D02*
X025705Y008841D01*
X026047Y009000D02*
X026502Y009000D01*
X026502Y009158D02*
X026206Y009158D01*
X026304Y009317D02*
X026502Y009317D01*
X026502Y009475D02*
X026369Y009475D01*
X026392Y009634D02*
X026502Y009634D01*
X026502Y009792D02*
X026392Y009792D01*
X026359Y009951D02*
X026502Y009951D01*
X026502Y010109D02*
X026293Y010109D01*
X026180Y010268D02*
X026502Y010268D01*
X026502Y010426D02*
X026022Y010426D01*
X026502Y010585D02*
X021227Y010585D01*
X021386Y010743D02*
X024425Y010743D01*
X022050Y009634D02*
X022013Y009634D01*
X022013Y009475D02*
X022050Y009475D01*
X022050Y009317D02*
X022013Y009317D01*
X020832Y010010D02*
X020832Y010500D01*
X020380Y010426D02*
X020298Y010426D01*
X020298Y010268D02*
X020337Y010268D01*
X017195Y009000D02*
X016833Y009000D01*
X016833Y008841D02*
X017123Y008841D01*
X017123Y008683D02*
X016833Y008683D01*
X017402Y008207D02*
X017402Y008207D01*
X017402Y008049D02*
X017402Y008049D01*
X017402Y007890D02*
X017402Y007890D01*
X017839Y007732D02*
X015172Y007732D01*
X015172Y007573D02*
X017998Y007573D01*
X018156Y007415D02*
X015172Y007415D01*
X015172Y007256D02*
X018315Y007256D01*
X018473Y007098D02*
X016167Y007098D01*
X015732Y006691D02*
X015284Y006244D01*
X014782Y006244D01*
X014719Y006244D01*
X013932Y005456D01*
X013932Y004950D01*
X013932Y004344D01*
X013516Y004403D02*
X013337Y004403D01*
X013337Y004245D02*
X013516Y004245D01*
X013516Y004086D02*
X013333Y004086D01*
X012910Y004086D02*
X012853Y004086D01*
X012853Y004245D02*
X012910Y004245D01*
X012910Y004403D02*
X012853Y004403D01*
X012853Y004562D02*
X012910Y004562D01*
X012910Y004720D02*
X012853Y004720D01*
X012523Y004720D02*
X012496Y004720D01*
X011895Y004720D02*
X011669Y004720D01*
X011745Y004562D02*
X011819Y004562D01*
X012232Y003750D02*
X012425Y003556D01*
X012882Y003556D01*
X013297Y003611D02*
X013516Y003611D01*
X013516Y003769D02*
X013297Y003769D01*
X013297Y003452D02*
X013516Y003452D01*
X013516Y003294D02*
X013297Y003294D01*
X012682Y002750D02*
X012132Y002750D01*
X012682Y002750D02*
X013232Y002200D01*
X012466Y003294D02*
X012299Y003294D01*
X012219Y003452D02*
X012141Y003452D01*
X013337Y004562D02*
X013516Y004562D01*
X013698Y004720D02*
X013241Y004720D01*
X014166Y004720D02*
X014261Y004720D01*
X014257Y004879D02*
X017182Y004879D01*
X017124Y005037D02*
X014251Y005037D01*
X014580Y004720D02*
X014656Y004720D01*
X014656Y004562D02*
X014580Y004562D01*
X014580Y004403D02*
X014656Y004403D01*
X014656Y004245D02*
X014580Y004245D01*
X014580Y004086D02*
X014656Y004086D01*
X015035Y004562D02*
X015069Y004562D01*
X015145Y004720D02*
X014975Y004720D01*
X015746Y004720D02*
X017762Y004720D01*
X017762Y004562D02*
X015821Y004562D01*
X015821Y004403D02*
X017762Y004403D01*
X017762Y004245D02*
X017719Y004245D01*
X017719Y004086D02*
X017762Y004086D01*
X018202Y004086D02*
X018384Y004086D01*
X018384Y003928D02*
X018284Y003928D01*
X018310Y003769D02*
X018384Y003769D01*
X018384Y003611D02*
X018256Y003611D01*
X018384Y003452D02*
X017719Y003452D01*
X017719Y003294D02*
X018384Y003294D01*
X018384Y003135D02*
X017719Y003135D01*
X017719Y002977D02*
X018384Y002977D01*
X018384Y002888D02*
X018466Y002806D01*
X018897Y002806D01*
X018979Y002888D01*
X018979Y004264D01*
X018897Y004346D01*
X018466Y004346D01*
X018384Y004264D01*
X018384Y002888D01*
X018455Y002818D02*
X017649Y002818D01*
X017403Y002660D02*
X018061Y002660D01*
X017840Y002501D02*
X017624Y002501D01*
X017703Y002343D02*
X017760Y002343D01*
X017742Y002184D02*
X017722Y002184D01*
X017690Y002026D02*
X017774Y002026D01*
X017872Y001867D02*
X017592Y001867D01*
X016760Y002343D02*
X016743Y002343D01*
X016668Y002501D02*
X016840Y002501D01*
X017061Y002660D02*
X016497Y002660D01*
X016252Y002660D02*
X016212Y002660D01*
X016212Y002501D02*
X016252Y002501D01*
X016252Y002343D02*
X016212Y002343D01*
X016212Y002184D02*
X015252Y002184D01*
X015252Y002343D02*
X015212Y002343D01*
X015212Y002501D02*
X015252Y002501D01*
X015252Y002660D02*
X015212Y002660D01*
X015497Y002660D02*
X015966Y002660D01*
X015795Y002501D02*
X015668Y002501D01*
X015345Y003452D02*
X017124Y003452D01*
X017077Y003611D02*
X016690Y003611D01*
X016373Y003611D02*
X015503Y003611D01*
X015662Y003769D02*
X016231Y003769D01*
X016204Y003965D02*
X016254Y004086D01*
X016532Y003900D02*
X017098Y003900D01*
X017422Y003576D01*
X017982Y003800D02*
X017982Y005064D01*
X017422Y005624D01*
X017719Y005671D02*
X018384Y005671D01*
X018384Y005513D02*
X017844Y005513D01*
X018003Y005354D02*
X018384Y005354D01*
X018384Y005196D02*
X018161Y005196D01*
X018202Y005037D02*
X018384Y005037D01*
X018384Y004936D02*
X018466Y004854D01*
X018897Y004854D01*
X018979Y004936D01*
X018979Y006312D01*
X018897Y006394D01*
X018466Y006394D01*
X018384Y006312D01*
X018384Y004936D01*
X018441Y004879D02*
X018202Y004879D01*
X018202Y004720D02*
X019226Y004720D01*
X019204Y004562D02*
X018202Y004562D01*
X018202Y004403D02*
X019248Y004403D01*
X019248Y004245D02*
X018979Y004245D01*
X018979Y004086D02*
X019248Y004086D01*
X019248Y003928D02*
X018979Y003928D01*
X018979Y003769D02*
X019248Y003769D01*
X019248Y003611D02*
X018979Y003611D01*
X018979Y003452D02*
X019250Y003452D01*
X019250Y003294D02*
X018979Y003294D01*
X018979Y003135D02*
X019250Y003135D01*
X019250Y002977D02*
X018979Y002977D01*
X018909Y002818D02*
X019321Y002818D01*
X019403Y002660D02*
X019612Y002660D01*
X019832Y002660D02*
X019966Y002660D01*
X019954Y002653D02*
X019886Y002604D01*
X019832Y002550D01*
X019832Y002700D01*
X020077Y002945D01*
X020077Y002923D01*
X020089Y002877D01*
X020112Y002836D01*
X020146Y002802D01*
X020187Y002779D01*
X020233Y002766D01*
X020414Y002766D01*
X020595Y002766D01*
X020641Y002779D01*
X020682Y002802D01*
X020716Y002836D01*
X020739Y002877D01*
X020751Y002923D01*
X020751Y003576D01*
X020414Y003576D01*
X020414Y002766D01*
X020414Y003576D01*
X020414Y003576D01*
X020414Y003576D01*
X020751Y003576D01*
X020751Y004230D01*
X020739Y004276D01*
X020716Y004317D01*
X020682Y004350D01*
X020641Y004374D01*
X020595Y004386D01*
X020414Y004386D01*
X020233Y004386D01*
X020187Y004374D01*
X020146Y004350D01*
X020112Y004317D01*
X020089Y004276D01*
X020082Y004249D01*
X020082Y004450D01*
X020832Y004450D01*
X021682Y003600D01*
X021682Y002482D01*
X021636Y002545D01*
X021577Y002604D01*
X021509Y002653D01*
X021435Y002691D01*
X021356Y002717D01*
X021273Y002730D01*
X021252Y002730D01*
X021252Y002220D01*
X021212Y002220D01*
X021212Y002730D01*
X021190Y002730D01*
X021108Y002717D01*
X021028Y002691D01*
X020954Y002653D01*
X020886Y002604D01*
X020827Y002545D01*
X020778Y002478D01*
X020741Y002403D01*
X020732Y002376D01*
X020723Y002403D01*
X020685Y002478D01*
X020636Y002545D01*
X020577Y002604D01*
X020509Y002653D01*
X020435Y002691D01*
X020356Y002717D01*
X020273Y002730D01*
X020252Y002730D01*
X020252Y002220D01*
X020762Y002220D01*
X021212Y002220D01*
X021212Y002180D01*
X020252Y002180D01*
X020252Y002220D01*
X020212Y002220D01*
X020212Y002730D01*
X020190Y002730D01*
X020108Y002717D01*
X020028Y002691D01*
X019954Y002653D01*
X019950Y002818D02*
X020130Y002818D01*
X020212Y002660D02*
X020252Y002660D01*
X020252Y002501D02*
X020212Y002501D01*
X020212Y002343D02*
X020252Y002343D01*
X020252Y002184D02*
X021212Y002184D01*
X021212Y002343D02*
X021252Y002343D01*
X021252Y002501D02*
X021212Y002501D01*
X021212Y002660D02*
X021252Y002660D01*
X021497Y002660D02*
X021682Y002660D01*
X021682Y002818D02*
X020698Y002818D01*
X020751Y002977D02*
X021682Y002977D01*
X021682Y003135D02*
X020751Y003135D01*
X020751Y003294D02*
X021682Y003294D01*
X021682Y003452D02*
X020751Y003452D01*
X020751Y003611D02*
X021671Y003611D01*
X021824Y003769D02*
X024635Y003769D01*
X024705Y003838D02*
X024443Y003577D01*
X024302Y003235D01*
X024302Y002865D01*
X024443Y002523D01*
X024705Y002262D01*
X025047Y002120D01*
X025417Y002120D01*
X025759Y002262D01*
X026020Y002523D01*
X026162Y002865D01*
X026162Y003235D01*
X026020Y003577D01*
X025759Y003838D01*
X025417Y003980D01*
X025047Y003980D01*
X024705Y003838D01*
X024920Y003928D02*
X021665Y003928D01*
X021513Y003769D02*
X020751Y003769D01*
X020751Y003928D02*
X021354Y003928D01*
X021507Y004086D02*
X026502Y004086D01*
X026502Y003928D02*
X025543Y003928D01*
X025828Y003769D02*
X026502Y003769D01*
X026502Y003611D02*
X025986Y003611D01*
X026072Y003452D02*
X026502Y003452D01*
X026502Y003294D02*
X026137Y003294D01*
X026162Y003135D02*
X026502Y003135D01*
X026502Y002977D02*
X026162Y002977D01*
X026142Y002818D02*
X026502Y002818D01*
X026502Y002660D02*
X026077Y002660D01*
X025998Y002501D02*
X026502Y002501D01*
X026502Y002343D02*
X025839Y002343D01*
X025571Y002184D02*
X026502Y002184D01*
X026502Y002026D02*
X023732Y002026D01*
X023645Y001867D02*
X026502Y001867D01*
X024892Y002184D02*
X023252Y002184D01*
X023212Y002184D02*
X022252Y002184D01*
X022252Y002343D02*
X022212Y002343D01*
X022212Y002501D02*
X022252Y002501D01*
X022252Y002660D02*
X022212Y002660D01*
X021966Y002660D02*
X021902Y002660D01*
X021902Y002818D02*
X024321Y002818D01*
X024302Y002977D02*
X021902Y002977D01*
X021902Y003135D02*
X024302Y003135D01*
X024326Y003294D02*
X021902Y003294D01*
X021902Y003452D02*
X024392Y003452D01*
X024477Y003611D02*
X021902Y003611D01*
X021196Y004086D02*
X020751Y004086D01*
X020748Y004245D02*
X021037Y004245D01*
X021190Y004403D02*
X025209Y004403D01*
X025361Y004340D02*
X025703Y004340D01*
X026019Y004471D01*
X026261Y004713D01*
X026392Y005029D01*
X026392Y005371D01*
X026261Y005687D01*
X026019Y005929D01*
X025703Y006060D01*
X025361Y006060D01*
X025045Y005929D01*
X024803Y005687D01*
X024672Y005371D01*
X024672Y005029D01*
X024803Y004713D01*
X025045Y004471D01*
X025361Y004340D01*
X024954Y004562D02*
X021031Y004562D01*
X020879Y004403D02*
X020082Y004403D01*
X019862Y004403D02*
X019848Y004403D01*
X019848Y004245D02*
X019862Y004245D01*
X019848Y004086D02*
X019862Y004086D01*
X019848Y003928D02*
X019862Y003928D01*
X019848Y003769D02*
X019862Y003769D01*
X019848Y003611D02*
X019862Y003611D01*
X019845Y003452D02*
X019862Y003452D01*
X019845Y003294D02*
X019862Y003294D01*
X019845Y003135D02*
X019862Y003135D01*
X020414Y003135D02*
X020414Y003135D01*
X020414Y002977D02*
X020414Y002977D01*
X020414Y002818D02*
X020414Y002818D01*
X020497Y002660D02*
X020966Y002660D01*
X020795Y002501D02*
X020668Y002501D01*
X021668Y002501D02*
X021682Y002501D01*
X022497Y002660D02*
X022966Y002660D01*
X022795Y002501D02*
X022668Y002501D01*
X023212Y002501D02*
X023252Y002501D01*
X023252Y002343D02*
X023212Y002343D01*
X023212Y002660D02*
X023252Y002660D01*
X023497Y002660D02*
X024387Y002660D01*
X024465Y002501D02*
X023668Y002501D01*
X023743Y002343D02*
X024624Y002343D01*
X026502Y004245D02*
X021348Y004245D01*
X020414Y004245D02*
X020414Y004245D01*
X020414Y004386D02*
X020414Y003576D01*
X020414Y003576D01*
X020414Y004386D01*
X020414Y004086D02*
X020414Y004086D01*
X020414Y003928D02*
X020414Y003928D01*
X020414Y003769D02*
X020414Y003769D01*
X020414Y003611D02*
X020414Y003611D01*
X020414Y003452D02*
X020414Y003452D01*
X020414Y003294D02*
X020414Y003294D01*
X019061Y002660D02*
X018403Y002660D01*
X018624Y002501D02*
X018840Y002501D01*
X018760Y002343D02*
X018703Y002343D01*
X018722Y002184D02*
X018742Y002184D01*
X018774Y002026D02*
X018690Y002026D01*
X018592Y001867D02*
X018872Y001867D01*
X018384Y004245D02*
X018202Y004245D01*
X017124Y004245D02*
X015821Y004245D01*
X015799Y005196D02*
X015664Y005196D01*
X015664Y005354D02*
X015799Y005354D01*
X015799Y005513D02*
X015664Y005513D01*
X015664Y005671D02*
X015237Y005671D01*
X015237Y005697D02*
X015237Y005485D01*
X014810Y005485D01*
X014810Y005853D01*
X015081Y005853D01*
X015127Y005841D01*
X015168Y005817D01*
X015201Y005783D01*
X015225Y005742D01*
X015237Y005697D01*
X015256Y005830D02*
X015146Y005830D01*
X015197Y005988D02*
X015256Y005988D01*
X014810Y005830D02*
X014753Y005830D01*
X014753Y005671D02*
X014810Y005671D01*
X014810Y005513D02*
X014753Y005513D01*
X014753Y005354D02*
X014810Y005354D01*
X014810Y005196D02*
X014753Y005196D01*
X015232Y005196D02*
X015258Y005196D01*
X015256Y005354D02*
X015237Y005354D01*
X015237Y005513D02*
X015256Y005513D01*
X015799Y005671D02*
X017124Y005671D01*
X017124Y005513D02*
X016207Y005513D01*
X016207Y005354D02*
X017124Y005354D01*
X017124Y005196D02*
X016205Y005196D01*
X016207Y005830D02*
X017124Y005830D01*
X017124Y005988D02*
X016207Y005988D01*
X016120Y006147D02*
X017124Y006147D01*
X017124Y006305D02*
X016167Y006305D01*
X015296Y006622D02*
X014615Y006622D01*
X014773Y006781D02*
X015296Y006781D01*
X015296Y006939D02*
X015129Y006939D01*
X015172Y007098D02*
X015296Y007098D01*
X014782Y007100D02*
X014782Y007470D01*
X014792Y007480D01*
X014412Y007415D02*
X014302Y007415D01*
X014302Y007573D02*
X014412Y007573D01*
X014412Y007732D02*
X014302Y007732D01*
X014302Y007890D02*
X014412Y007890D01*
X014482Y008049D02*
X014248Y008049D01*
X013922Y008049D02*
X013842Y008049D01*
X013842Y007890D02*
X013922Y007890D01*
X013922Y007732D02*
X013842Y007732D01*
X013842Y007573D02*
X013922Y007573D01*
X013922Y007415D02*
X013842Y007415D01*
X013842Y007256D02*
X013922Y007256D01*
X013922Y007098D02*
X013842Y007098D01*
X013842Y006939D02*
X013922Y006939D01*
X014271Y006939D02*
X014310Y006939D01*
X014302Y007098D02*
X014412Y007098D01*
X014412Y007256D02*
X014302Y007256D01*
X014782Y007100D02*
X013932Y006250D01*
X013932Y006244D01*
X012014Y005671D02*
X010162Y005671D01*
X010284Y005830D02*
X010284Y005830D01*
X010363Y005830D02*
X011606Y005830D01*
X011310Y006147D02*
X011253Y006147D01*
X011253Y006305D02*
X011310Y006305D01*
X011310Y006464D02*
X011253Y006464D01*
X010826Y006464D02*
X010489Y006464D01*
X010325Y006464D02*
X010325Y006464D01*
X010331Y006622D02*
X010826Y006622D01*
X010835Y006781D02*
X010165Y006781D01*
X010095Y006464D02*
X010095Y006464D01*
X010081Y006033D02*
X010081Y006033D01*
X010125Y005988D02*
X010125Y005988D01*
X010658Y006147D02*
X010895Y006147D01*
X010826Y006305D02*
X010641Y006305D01*
X009848Y007098D02*
X009790Y007098D01*
X009382Y007200D02*
X008532Y008050D01*
X008532Y008345D01*
X008874Y008687D01*
X009096Y008465D02*
X009411Y008780D01*
X009411Y009506D01*
X009055Y009475D02*
X008702Y009475D01*
X008860Y009317D02*
X009055Y009317D01*
X009069Y009158D02*
X009019Y009158D01*
X009177Y009000D02*
X009191Y009000D01*
X009625Y008683D02*
X010637Y008683D01*
X010227Y009158D02*
X010170Y009158D01*
X010170Y009317D02*
X010227Y009317D01*
X010227Y009475D02*
X010170Y009475D01*
X010170Y009534D02*
X009802Y009534D01*
X009802Y009805D01*
X009814Y009851D01*
X009838Y009892D01*
X009872Y009926D01*
X009913Y009949D01*
X009958Y009962D01*
X010170Y009962D01*
X010170Y009534D01*
X010170Y009634D02*
X010227Y009634D01*
X010227Y009792D02*
X010170Y009792D01*
X010170Y009951D02*
X010227Y009951D01*
X010480Y009951D02*
X010832Y009951D01*
X010832Y010109D02*
X009619Y010109D01*
X009731Y010268D02*
X010838Y010268D01*
X010954Y010426D02*
X009777Y010426D01*
X009775Y010585D02*
X011003Y010585D01*
X011282Y010400D02*
X011052Y010171D01*
X011052Y009556D01*
X010637Y009634D02*
X010595Y009634D01*
X010595Y009792D02*
X010637Y009792D01*
X010637Y009475D02*
X010595Y009475D01*
X010595Y009317D02*
X010637Y009317D01*
X009802Y009317D02*
X009768Y009317D01*
X009768Y009475D02*
X009802Y009475D01*
X009802Y009634D02*
X009768Y009634D01*
X009768Y009792D02*
X009802Y009792D01*
X009917Y009951D02*
X009278Y009951D01*
X009055Y009792D02*
X008385Y009792D01*
X008543Y009634D02*
X009055Y009634D01*
X008845Y010109D02*
X008379Y010109D01*
X008620Y010268D02*
X008733Y010268D01*
X009725Y010743D02*
X015766Y010743D01*
X015766Y010585D02*
X011560Y010585D01*
X011610Y010426D02*
X012011Y010426D01*
X011796Y010268D02*
X011582Y010268D01*
X011437Y010109D02*
X011754Y010109D01*
X011662Y009951D02*
X011272Y009951D01*
X009816Y009158D02*
X009753Y009158D01*
X009735Y008524D02*
X009709Y008524D01*
X009601Y008524D02*
X009601Y008524D01*
X009443Y008366D02*
X009443Y008366D01*
X006382Y007750D02*
X006332Y007700D01*
X006332Y007450D01*
X005199Y007797D02*
X005199Y007833D01*
X004832Y008200D01*
X004539Y008049D02*
X004391Y008049D01*
X004233Y007890D02*
X004677Y007890D01*
X004086Y008366D02*
X003993Y008366D01*
X002805Y009000D02*
X002462Y009000D01*
X002462Y009158D02*
X002769Y009158D01*
X002769Y009317D02*
X002462Y009317D01*
X002462Y009475D02*
X002769Y009475D01*
X002769Y009634D02*
X002462Y009634D01*
X002462Y009792D02*
X002769Y009792D01*
X002781Y009951D02*
X002462Y009951D01*
X003110Y010268D02*
X003166Y010268D01*
X003166Y010426D02*
X003110Y010426D01*
X003345Y007256D02*
X003381Y007256D01*
X003379Y007098D02*
X003345Y007098D01*
X003804Y006939D02*
X004782Y006939D01*
X002591Y005988D02*
X002462Y005988D01*
X002462Y005830D02*
X002597Y005830D01*
X002631Y005671D02*
X002462Y005671D01*
X002462Y005513D02*
X002631Y005513D01*
X002631Y005354D02*
X002462Y005354D01*
X002462Y005196D02*
X002631Y005196D01*
X002631Y005037D02*
X002462Y005037D01*
X002462Y004879D02*
X002992Y004879D01*
X003151Y004720D02*
X002462Y004720D01*
X002462Y004562D02*
X003309Y004562D01*
X003468Y004403D02*
X002462Y004403D01*
X002462Y004245D02*
X003976Y004245D01*
X004135Y004086D02*
X002462Y004086D01*
X002462Y003928D02*
X003420Y003928D01*
X003547Y003980D02*
X003205Y003838D01*
X002943Y003577D01*
X002802Y003235D01*
X002802Y002865D01*
X002943Y002523D01*
X003205Y002262D01*
X003547Y002120D01*
X003917Y002120D01*
X004259Y002262D01*
X004520Y002523D01*
X004662Y002865D01*
X004662Y003235D01*
X004520Y003577D01*
X004259Y003838D01*
X003917Y003980D01*
X003547Y003980D01*
X003135Y003769D02*
X002462Y003769D01*
X002462Y003611D02*
X002977Y003611D01*
X002892Y003452D02*
X002462Y003452D01*
X002462Y003294D02*
X002826Y003294D01*
X002802Y003135D02*
X002462Y003135D01*
X002462Y002977D02*
X002802Y002977D01*
X002821Y002818D02*
X002462Y002818D01*
X002462Y002660D02*
X002887Y002660D01*
X002965Y002501D02*
X002462Y002501D01*
X002462Y002343D02*
X003124Y002343D01*
X003392Y002184D02*
X002462Y002184D01*
X002462Y002026D02*
X004813Y002026D01*
X004792Y002184D02*
X004071Y002184D01*
X004339Y002343D02*
X004792Y002343D01*
X004840Y002501D02*
X004498Y002501D01*
X004577Y002660D02*
X004998Y002660D01*
X005021Y002818D02*
X004642Y002818D01*
X004662Y002977D02*
X004862Y002977D01*
X004792Y003135D02*
X004662Y003135D01*
X004637Y003294D02*
X004792Y003294D01*
X004769Y003452D02*
X004572Y003452D01*
X004610Y003611D02*
X004486Y003611D01*
X004452Y003769D02*
X004328Y003769D01*
X004293Y003928D02*
X004043Y003928D01*
X004032Y004500D02*
X003682Y004500D01*
X002988Y005194D01*
X002988Y005350D01*
X004032Y004500D02*
X005282Y003250D01*
X005614Y003611D02*
X005949Y003611D01*
X005792Y003452D02*
X005772Y003452D01*
X005772Y003294D02*
X005792Y003294D01*
X005792Y003135D02*
X005772Y003135D01*
X005701Y002977D02*
X005862Y002977D01*
X006021Y002818D02*
X005543Y002818D01*
X005565Y002660D02*
X005998Y002660D01*
X005840Y002501D02*
X005724Y002501D01*
X005772Y002343D02*
X005792Y002343D01*
X005792Y002184D02*
X005772Y002184D01*
X005750Y002026D02*
X005813Y002026D01*
X005972Y001867D02*
X005592Y001867D01*
X004972Y001867D02*
X002462Y001867D01*
X009096Y005235D02*
X009096Y005235D01*
X017662Y004879D02*
X017762Y004879D01*
X018922Y004879D02*
X019308Y004879D01*
X019250Y005037D02*
X018979Y005037D01*
X018979Y005196D02*
X019250Y005196D01*
X019250Y005354D02*
X018979Y005354D01*
X018979Y005513D02*
X019250Y005513D01*
X019250Y005671D02*
X018979Y005671D01*
X018979Y005830D02*
X019250Y005830D01*
X019250Y005988D02*
X018979Y005988D01*
X018979Y006147D02*
X019250Y006147D01*
X019250Y006305D02*
X018979Y006305D01*
X018384Y006305D02*
X017719Y006305D01*
X017719Y006147D02*
X018384Y006147D01*
X018384Y005988D02*
X017719Y005988D01*
X017719Y005830D02*
X018384Y005830D01*
X019845Y005830D02*
X020117Y005830D01*
X020117Y005988D02*
X019845Y005988D01*
X019845Y006147D02*
X020117Y006147D01*
X020117Y006305D02*
X019845Y006305D01*
X019845Y005671D02*
X020117Y005671D01*
X020117Y005513D02*
X019845Y005513D01*
X019845Y005354D02*
X020117Y005354D01*
X020117Y005196D02*
X019845Y005196D01*
X019845Y005037D02*
X020117Y005037D01*
X020174Y004879D02*
X019788Y004879D01*
X019837Y004720D02*
X024800Y004720D01*
X024734Y004879D02*
X020654Y004879D01*
X020711Y005037D02*
X024672Y005037D01*
X024672Y005196D02*
X023465Y005196D01*
X023542Y005354D02*
X024672Y005354D01*
X024730Y005513D02*
X023568Y005513D01*
X023727Y005671D02*
X024796Y005671D01*
X024945Y005830D02*
X023885Y005830D01*
X024039Y005988D02*
X025187Y005988D01*
X025876Y005988D02*
X026502Y005988D01*
X026502Y005830D02*
X026118Y005830D01*
X026267Y005671D02*
X026502Y005671D01*
X026502Y005513D02*
X026333Y005513D01*
X026392Y005354D02*
X026502Y005354D01*
X026502Y005196D02*
X026392Y005196D01*
X026392Y005037D02*
X026502Y005037D01*
X026502Y004879D02*
X026329Y004879D01*
X026264Y004720D02*
X026502Y004720D01*
X026502Y004562D02*
X026109Y004562D01*
X025855Y004403D02*
X026502Y004403D01*
X026502Y006147D02*
X024082Y006147D01*
X024082Y006305D02*
X026502Y006305D01*
X026502Y006464D02*
X024082Y006464D01*
X024082Y006622D02*
X026502Y006622D01*
X026502Y006781D02*
X024082Y006781D01*
X024082Y006939D02*
X026502Y006939D01*
X026502Y007098D02*
X024082Y007098D01*
X024082Y007256D02*
X026502Y007256D01*
X026502Y007415D02*
X024082Y007415D01*
X024082Y007573D02*
X026502Y007573D01*
X026502Y007732D02*
X024082Y007732D01*
X024082Y007890D02*
X026502Y007890D01*
X026502Y008049D02*
X024082Y008049D01*
X024082Y008207D02*
X026502Y008207D01*
X026502Y008366D02*
X024038Y008366D01*
X023882Y008524D02*
X026502Y008524D01*
X022705Y006305D02*
X022572Y006305D01*
X022578Y006464D02*
X022515Y006464D01*
X022522Y006622D02*
X022387Y006622D01*
X022439Y005830D02*
X022522Y005830D01*
X022522Y005354D02*
X020711Y005354D01*
X020711Y005196D02*
X022598Y005196D01*
X019882Y004562D02*
X019860Y004562D01*
X020482Y007200D02*
X018682Y007200D01*
X018032Y007850D01*
X018032Y008400D01*
X021132Y008200D02*
X022032Y008200D01*
X015766Y010268D02*
X014770Y010268D01*
X014756Y010426D02*
X015766Y010426D01*
X015766Y010902D02*
X009608Y010902D01*
X009252Y010902D02*
X009212Y010902D01*
D28*
X011282Y010400D03*
X012082Y010100D03*
X013382Y008750D03*
X014382Y008750D03*
X015732Y009750D03*
X017032Y006950D03*
X013932Y004950D03*
X011332Y005000D03*
X008282Y005800D03*
X007882Y005400D03*
X007482Y005000D03*
X004982Y005100D03*
X004532Y005650D03*
X002932Y004400D03*
X007382Y006950D03*
X007832Y007400D03*
X008632Y007400D03*
X008232Y007000D03*
X008832Y006750D03*
X010482Y006800D03*
X010682Y007300D03*
X012682Y006750D03*
X016532Y003900D03*
X017982Y003800D03*
X019532Y004600D03*
X022682Y003500D03*
X025632Y007000D03*
X022832Y009700D03*
X024632Y011000D03*
X008382Y002950D03*
X006332Y007450D03*
X004832Y008200D03*
X004232Y008750D03*
X005932Y009700D03*
D29*
X004388Y009600D02*
X003494Y009600D01*
X003382Y009487D01*
X003382Y007913D02*
X002988Y007519D01*
X002988Y006950D01*
D30*
X020982Y007700D02*
X023032Y007700D01*
D31*
X023782Y008200D02*
X023782Y006150D01*
X023332Y005700D01*
X023032Y005700D01*
X019548Y004584D02*
X019548Y003576D01*
X019548Y004584D02*
X019532Y004600D01*
X023282Y008700D02*
X023782Y008200D01*
X023282Y008700D02*
X023032Y008700D01*
M02*
