G75*
G70*
%OFA0B0*%
%FSLAX24Y24*%
%IPPOS*%
%LPD*%
%AMOC8*
5,1,8,0,0,1.08239X$1,22.5*
%
%ADD10C,0.0000*%
D10*
X002232Y001550D02*
X026732Y001550D01*
X026732Y011550D01*
X002232Y011550D01*
X002232Y001550D01*
X003032Y003050D02*
X003034Y003102D01*
X003040Y003154D01*
X003050Y003206D01*
X003063Y003256D01*
X003080Y003306D01*
X003101Y003354D01*
X003126Y003400D01*
X003154Y003444D01*
X003185Y003486D01*
X003219Y003526D01*
X003256Y003563D01*
X003296Y003597D01*
X003338Y003628D01*
X003382Y003656D01*
X003428Y003681D01*
X003476Y003702D01*
X003526Y003719D01*
X003576Y003732D01*
X003628Y003742D01*
X003680Y003748D01*
X003732Y003750D01*
X003784Y003748D01*
X003836Y003742D01*
X003888Y003732D01*
X003938Y003719D01*
X003988Y003702D01*
X004036Y003681D01*
X004082Y003656D01*
X004126Y003628D01*
X004168Y003597D01*
X004208Y003563D01*
X004245Y003526D01*
X004279Y003486D01*
X004310Y003444D01*
X004338Y003400D01*
X004363Y003354D01*
X004384Y003306D01*
X004401Y003256D01*
X004414Y003206D01*
X004424Y003154D01*
X004430Y003102D01*
X004432Y003050D01*
X004430Y002998D01*
X004424Y002946D01*
X004414Y002894D01*
X004401Y002844D01*
X004384Y002794D01*
X004363Y002746D01*
X004338Y002700D01*
X004310Y002656D01*
X004279Y002614D01*
X004245Y002574D01*
X004208Y002537D01*
X004168Y002503D01*
X004126Y002472D01*
X004082Y002444D01*
X004036Y002419D01*
X003988Y002398D01*
X003938Y002381D01*
X003888Y002368D01*
X003836Y002358D01*
X003784Y002352D01*
X003732Y002350D01*
X003680Y002352D01*
X003628Y002358D01*
X003576Y002368D01*
X003526Y002381D01*
X003476Y002398D01*
X003428Y002419D01*
X003382Y002444D01*
X003338Y002472D01*
X003296Y002503D01*
X003256Y002537D01*
X003219Y002574D01*
X003185Y002614D01*
X003154Y002656D01*
X003126Y002700D01*
X003101Y002746D01*
X003080Y002794D01*
X003063Y002844D01*
X003050Y002894D01*
X003040Y002946D01*
X003034Y002998D01*
X003032Y003050D01*
X016989Y009606D02*
X016991Y009632D01*
X016997Y009658D01*
X017007Y009683D01*
X017020Y009706D01*
X017036Y009726D01*
X017056Y009744D01*
X017078Y009759D01*
X017101Y009771D01*
X017127Y009779D01*
X017153Y009783D01*
X017179Y009783D01*
X017205Y009779D01*
X017231Y009771D01*
X017255Y009759D01*
X017276Y009744D01*
X017296Y009726D01*
X017312Y009706D01*
X017325Y009683D01*
X017335Y009658D01*
X017341Y009632D01*
X017343Y009606D01*
X017341Y009580D01*
X017335Y009554D01*
X017325Y009529D01*
X017312Y009506D01*
X017296Y009486D01*
X017276Y009468D01*
X017254Y009453D01*
X017231Y009441D01*
X017205Y009433D01*
X017179Y009429D01*
X017153Y009429D01*
X017127Y009433D01*
X017101Y009441D01*
X017077Y009453D01*
X017056Y009468D01*
X017036Y009486D01*
X017020Y009506D01*
X017007Y009529D01*
X016997Y009554D01*
X016991Y009580D01*
X016989Y009606D01*
X018721Y009606D02*
X018723Y009632D01*
X018729Y009658D01*
X018739Y009683D01*
X018752Y009706D01*
X018768Y009726D01*
X018788Y009744D01*
X018810Y009759D01*
X018833Y009771D01*
X018859Y009779D01*
X018885Y009783D01*
X018911Y009783D01*
X018937Y009779D01*
X018963Y009771D01*
X018987Y009759D01*
X019008Y009744D01*
X019028Y009726D01*
X019044Y009706D01*
X019057Y009683D01*
X019067Y009658D01*
X019073Y009632D01*
X019075Y009606D01*
X019073Y009580D01*
X019067Y009554D01*
X019057Y009529D01*
X019044Y009506D01*
X019028Y009486D01*
X019008Y009468D01*
X018986Y009453D01*
X018963Y009441D01*
X018937Y009433D01*
X018911Y009429D01*
X018885Y009429D01*
X018859Y009433D01*
X018833Y009441D01*
X018809Y009453D01*
X018788Y009468D01*
X018768Y009486D01*
X018752Y009506D01*
X018739Y009529D01*
X018729Y009554D01*
X018723Y009580D01*
X018721Y009606D01*
X024902Y009700D02*
X024904Y009750D01*
X024910Y009800D01*
X024920Y009849D01*
X024934Y009897D01*
X024951Y009944D01*
X024972Y009989D01*
X024997Y010033D01*
X025025Y010074D01*
X025057Y010113D01*
X025091Y010150D01*
X025128Y010184D01*
X025168Y010214D01*
X025210Y010241D01*
X025254Y010265D01*
X025300Y010286D01*
X025347Y010302D01*
X025395Y010315D01*
X025445Y010324D01*
X025494Y010329D01*
X025545Y010330D01*
X025595Y010327D01*
X025644Y010320D01*
X025693Y010309D01*
X025741Y010294D01*
X025787Y010276D01*
X025832Y010254D01*
X025875Y010228D01*
X025916Y010199D01*
X025955Y010167D01*
X025991Y010132D01*
X026023Y010094D01*
X026053Y010054D01*
X026080Y010011D01*
X026103Y009967D01*
X026122Y009921D01*
X026138Y009873D01*
X026150Y009824D01*
X026158Y009775D01*
X026162Y009725D01*
X026162Y009675D01*
X026158Y009625D01*
X026150Y009576D01*
X026138Y009527D01*
X026122Y009479D01*
X026103Y009433D01*
X026080Y009389D01*
X026053Y009346D01*
X026023Y009306D01*
X025991Y009268D01*
X025955Y009233D01*
X025916Y009201D01*
X025875Y009172D01*
X025832Y009146D01*
X025787Y009124D01*
X025741Y009106D01*
X025693Y009091D01*
X025644Y009080D01*
X025595Y009073D01*
X025545Y009070D01*
X025494Y009071D01*
X025445Y009076D01*
X025395Y009085D01*
X025347Y009098D01*
X025300Y009114D01*
X025254Y009135D01*
X025210Y009159D01*
X025168Y009186D01*
X025128Y009216D01*
X025091Y009250D01*
X025057Y009287D01*
X025025Y009326D01*
X024997Y009367D01*
X024972Y009411D01*
X024951Y009456D01*
X024934Y009503D01*
X024920Y009551D01*
X024910Y009600D01*
X024904Y009650D01*
X024902Y009700D01*
X024902Y005200D02*
X024904Y005250D01*
X024910Y005300D01*
X024920Y005349D01*
X024934Y005397D01*
X024951Y005444D01*
X024972Y005489D01*
X024997Y005533D01*
X025025Y005574D01*
X025057Y005613D01*
X025091Y005650D01*
X025128Y005684D01*
X025168Y005714D01*
X025210Y005741D01*
X025254Y005765D01*
X025300Y005786D01*
X025347Y005802D01*
X025395Y005815D01*
X025445Y005824D01*
X025494Y005829D01*
X025545Y005830D01*
X025595Y005827D01*
X025644Y005820D01*
X025693Y005809D01*
X025741Y005794D01*
X025787Y005776D01*
X025832Y005754D01*
X025875Y005728D01*
X025916Y005699D01*
X025955Y005667D01*
X025991Y005632D01*
X026023Y005594D01*
X026053Y005554D01*
X026080Y005511D01*
X026103Y005467D01*
X026122Y005421D01*
X026138Y005373D01*
X026150Y005324D01*
X026158Y005275D01*
X026162Y005225D01*
X026162Y005175D01*
X026158Y005125D01*
X026150Y005076D01*
X026138Y005027D01*
X026122Y004979D01*
X026103Y004933D01*
X026080Y004889D01*
X026053Y004846D01*
X026023Y004806D01*
X025991Y004768D01*
X025955Y004733D01*
X025916Y004701D01*
X025875Y004672D01*
X025832Y004646D01*
X025787Y004624D01*
X025741Y004606D01*
X025693Y004591D01*
X025644Y004580D01*
X025595Y004573D01*
X025545Y004570D01*
X025494Y004571D01*
X025445Y004576D01*
X025395Y004585D01*
X025347Y004598D01*
X025300Y004614D01*
X025254Y004635D01*
X025210Y004659D01*
X025168Y004686D01*
X025128Y004716D01*
X025091Y004750D01*
X025057Y004787D01*
X025025Y004826D01*
X024997Y004867D01*
X024972Y004911D01*
X024951Y004956D01*
X024934Y005003D01*
X024920Y005051D01*
X024910Y005100D01*
X024904Y005150D01*
X024902Y005200D01*
X024532Y003050D02*
X024534Y003102D01*
X024540Y003154D01*
X024550Y003206D01*
X024563Y003256D01*
X024580Y003306D01*
X024601Y003354D01*
X024626Y003400D01*
X024654Y003444D01*
X024685Y003486D01*
X024719Y003526D01*
X024756Y003563D01*
X024796Y003597D01*
X024838Y003628D01*
X024882Y003656D01*
X024928Y003681D01*
X024976Y003702D01*
X025026Y003719D01*
X025076Y003732D01*
X025128Y003742D01*
X025180Y003748D01*
X025232Y003750D01*
X025284Y003748D01*
X025336Y003742D01*
X025388Y003732D01*
X025438Y003719D01*
X025488Y003702D01*
X025536Y003681D01*
X025582Y003656D01*
X025626Y003628D01*
X025668Y003597D01*
X025708Y003563D01*
X025745Y003526D01*
X025779Y003486D01*
X025810Y003444D01*
X025838Y003400D01*
X025863Y003354D01*
X025884Y003306D01*
X025901Y003256D01*
X025914Y003206D01*
X025924Y003154D01*
X025930Y003102D01*
X025932Y003050D01*
X025930Y002998D01*
X025924Y002946D01*
X025914Y002894D01*
X025901Y002844D01*
X025884Y002794D01*
X025863Y002746D01*
X025838Y002700D01*
X025810Y002656D01*
X025779Y002614D01*
X025745Y002574D01*
X025708Y002537D01*
X025668Y002503D01*
X025626Y002472D01*
X025582Y002444D01*
X025536Y002419D01*
X025488Y002398D01*
X025438Y002381D01*
X025388Y002368D01*
X025336Y002358D01*
X025284Y002352D01*
X025232Y002350D01*
X025180Y002352D01*
X025128Y002358D01*
X025076Y002368D01*
X025026Y002381D01*
X024976Y002398D01*
X024928Y002419D01*
X024882Y002444D01*
X024838Y002472D01*
X024796Y002503D01*
X024756Y002537D01*
X024719Y002574D01*
X024685Y002614D01*
X024654Y002656D01*
X024626Y002700D01*
X024601Y002746D01*
X024580Y002794D01*
X024563Y002844D01*
X024550Y002894D01*
X024540Y002946D01*
X024534Y002998D01*
X024532Y003050D01*
M02*
