%
M48
M72
T01C0.0236
T02C0.0354
T03C0.0394
T04C0.0400
T05C0.1260
%
T01
X12930Y5142
X13680Y5642
X9330Y5892
X9330Y6842
X10680Y7492
X9330Y7792
X6630Y8792
X14580Y7492
X20230Y8842
X22880Y7942
X24180Y7492
X22830Y6942
X22830Y5842
X23580Y4842
X24480Y4842
X25480Y4842
X26380Y5042
X27480Y5192
X28080Y7492
T02
X27046Y7392
X25314Y7392
X13546Y7392
X11814Y7392
T03
X8430Y7892
X7430Y7892
X6430Y7892
X5430Y7892
X4930Y6892
X5930Y6892
X6930Y6892
X7930Y6892
X18430Y6892
X19430Y6892
X20430Y6892
X21430Y6892
X20930Y7892
X21930Y7892
X19930Y7892
X18930Y7892
T04
X1230Y7892
X1130Y6892
X1230Y5892
X1130Y4892
T05
X4430Y4392
X8930Y4392
X17930Y4392
X22430Y4392
M30
