G75*
G70*
%OFA0B0*%
%FSLAX24Y24*%
%IPPOS*%
%LPD*%
%AMOC8*
5,1,8,0,0,1.08239X$1,22.5*
%
%ADD10C,0.0740*%
%ADD11R,0.0740X0.0740*%
%ADD12C,0.0160*%
%ADD13C,0.0376*%
D10*
X001130Y004892D03*
X001230Y005892D03*
X001130Y006892D03*
X005430Y007892D03*
X006430Y007892D03*
X007430Y007892D03*
X008430Y007892D03*
X007930Y006892D03*
X006930Y006892D03*
X005930Y006892D03*
X018930Y007892D03*
X019930Y007892D03*
X020930Y007892D03*
X021930Y007892D03*
X021430Y006892D03*
X020430Y006892D03*
X019430Y006892D03*
D11*
X018430Y006892D03*
X004930Y006892D03*
X001230Y007892D03*
D12*
X000410Y003462D02*
X000750Y003122D01*
X004643Y003122D01*
X007980Y003192D01*
X019580Y003192D01*
X022180Y005792D01*
X022180Y007092D01*
X021890Y007382D01*
X021829Y007382D01*
X021641Y007460D01*
X021609Y007492D01*
X021251Y007492D01*
X021219Y007460D01*
X021031Y007382D01*
X020829Y007382D01*
X020641Y007460D01*
X020609Y007492D01*
X020251Y007492D01*
X020219Y007460D01*
X020031Y007382D01*
X019829Y007382D01*
X019641Y007460D01*
X019609Y007492D01*
X019251Y007492D01*
X019219Y007460D01*
X019031Y007382D01*
X018935Y007382D01*
X018944Y007372D01*
X018968Y007331D01*
X018980Y007286D01*
X018980Y007138D01*
X018998Y007181D01*
X019141Y007324D01*
X019329Y007402D01*
X019531Y007402D01*
X019719Y007324D01*
X019862Y007181D01*
X019930Y007018D01*
X019998Y007181D01*
X020141Y007324D01*
X020329Y007402D01*
X020531Y007402D01*
X020719Y007324D01*
X020862Y007181D01*
X020909Y007068D01*
X020920Y007103D01*
X020960Y007180D01*
X021010Y007250D01*
X021072Y007311D01*
X021142Y007362D01*
X021219Y007402D01*
X021301Y007428D01*
X021387Y007442D01*
X021412Y007442D01*
X021412Y006910D01*
X021448Y006910D01*
X021448Y007442D01*
X021473Y007442D01*
X021559Y007428D01*
X021641Y007402D01*
X021718Y007362D01*
X021788Y007311D01*
X021850Y007250D01*
X021900Y007180D01*
X021940Y007103D01*
X021966Y007021D01*
X021980Y006935D01*
X021980Y006910D01*
X021448Y006910D01*
X021448Y006874D01*
X021980Y006874D01*
X021980Y006849D01*
X021966Y006763D01*
X021940Y006681D01*
X021900Y006604D01*
X021850Y006534D01*
X021788Y006472D01*
X021718Y006422D01*
X021641Y006382D01*
X021559Y006356D01*
X021473Y006342D01*
X021448Y006342D01*
X021448Y006874D01*
X021412Y006874D01*
X021412Y006342D01*
X021387Y006342D01*
X021301Y006356D01*
X021219Y006382D01*
X021142Y006422D01*
X021072Y006472D01*
X021010Y006534D01*
X020960Y006604D01*
X020920Y006681D01*
X020909Y006716D01*
X020862Y006603D01*
X020719Y006460D01*
X020531Y006382D01*
X020329Y006382D01*
X020141Y006460D01*
X019998Y006603D01*
X019930Y006766D01*
X019862Y006603D01*
X019719Y006460D01*
X019531Y006382D01*
X019329Y006382D01*
X019141Y006460D01*
X018998Y006603D01*
X018980Y006646D01*
X018980Y006498D01*
X018968Y006452D01*
X018944Y006411D01*
X018911Y006378D01*
X018869Y006354D01*
X018824Y006342D01*
X018448Y006342D01*
X018448Y006874D01*
X018412Y006874D01*
X018412Y006342D01*
X018036Y006342D01*
X017991Y006354D01*
X017949Y006378D01*
X017916Y006411D01*
X017892Y006452D01*
X017880Y006498D01*
X017880Y006874D01*
X018412Y006874D01*
X018412Y006910D01*
X017880Y006910D01*
X017880Y007286D01*
X017892Y007331D01*
X017916Y007372D01*
X017949Y007406D01*
X017991Y007430D01*
X018036Y007442D01*
X018412Y007442D01*
X018412Y006910D01*
X018448Y006910D01*
X018448Y007442D01*
X018684Y007442D01*
X018641Y007460D01*
X018609Y007492D01*
X017980Y007492D01*
X015280Y004792D01*
X012938Y004814D01*
X012865Y004814D01*
X012863Y004815D01*
X009930Y004842D01*
X008580Y006142D01*
X008580Y006992D01*
X008409Y007163D01*
X008440Y007103D01*
X008466Y007021D01*
X008480Y006935D01*
X008480Y006910D01*
X007948Y006910D01*
X007948Y006874D01*
X008480Y006874D01*
X008480Y006849D01*
X008466Y006763D01*
X008440Y006681D01*
X008400Y006604D01*
X008350Y006534D01*
X008288Y006472D01*
X008218Y006422D01*
X008141Y006382D01*
X008059Y006356D01*
X007973Y006342D01*
X007948Y006342D01*
X007948Y006874D01*
X007912Y006874D01*
X007912Y006342D01*
X007887Y006342D01*
X007801Y006356D01*
X007719Y006382D01*
X007642Y006422D01*
X007572Y006472D01*
X007510Y006534D01*
X007460Y006604D01*
X007420Y006681D01*
X007409Y006716D01*
X007362Y006603D01*
X007219Y006460D01*
X007031Y006382D01*
X006829Y006382D01*
X006641Y006460D01*
X006498Y006603D01*
X006430Y006766D01*
X006362Y006603D01*
X006219Y006460D01*
X006031Y006382D01*
X005829Y006382D01*
X005641Y006460D01*
X005498Y006603D01*
X005480Y006646D01*
X005480Y006498D01*
X005468Y006452D01*
X005444Y006411D01*
X005411Y006378D01*
X005369Y006354D01*
X005324Y006342D01*
X004948Y006342D01*
X004948Y006874D01*
X004912Y006874D01*
X004912Y006342D01*
X004536Y006342D01*
X004491Y006354D01*
X004449Y006378D01*
X004416Y006411D01*
X004392Y006452D01*
X004380Y006498D01*
X004380Y006874D01*
X004912Y006874D01*
X004912Y006910D01*
X004380Y006910D01*
X004380Y007286D01*
X004392Y007331D01*
X004416Y007372D01*
X004449Y007406D01*
X004491Y007430D01*
X004536Y007442D01*
X004912Y007442D01*
X004912Y006910D01*
X004948Y006910D01*
X004948Y007442D01*
X005184Y007442D01*
X005141Y007460D01*
X005109Y007492D01*
X003680Y007492D01*
X002680Y006492D01*
X001451Y006492D01*
X001419Y006460D01*
X001348Y006430D01*
X001359Y006428D01*
X001441Y006402D01*
X001518Y006362D01*
X001588Y006311D01*
X001650Y006250D01*
X001700Y006180D01*
X001740Y006103D01*
X001766Y006021D01*
X001780Y005935D01*
X001780Y005912D01*
X001250Y005912D01*
X001250Y005872D01*
X001780Y005872D01*
X001780Y005849D01*
X001766Y005763D01*
X001740Y005681D01*
X001700Y005604D01*
X001650Y005534D01*
X001588Y005472D01*
X001518Y005422D01*
X001441Y005382D01*
X001403Y005370D01*
X001418Y005362D01*
X001488Y005311D01*
X001550Y005250D01*
X001600Y005180D01*
X001640Y005103D01*
X001666Y005021D01*
X001680Y004935D01*
X001680Y004912D01*
X001150Y004912D01*
X001150Y004872D01*
X001680Y004872D01*
X001680Y004849D01*
X001666Y004763D01*
X001640Y004681D01*
X001600Y004604D01*
X001550Y004534D01*
X001488Y004472D01*
X001418Y004422D01*
X001341Y004382D01*
X001259Y004356D01*
X001173Y004342D01*
X001150Y004342D01*
X001150Y004872D01*
X001110Y004872D01*
X000580Y004872D01*
X000580Y004849D01*
X000594Y004763D01*
X000620Y004681D01*
X000660Y004604D01*
X000710Y004534D01*
X000772Y004472D01*
X000842Y004422D01*
X000919Y004382D01*
X001001Y004356D01*
X001087Y004342D01*
X001110Y004342D01*
X001110Y004872D01*
X001110Y004912D01*
X000580Y004912D01*
X000580Y004935D01*
X000594Y005021D01*
X000620Y005103D01*
X000660Y005180D01*
X000710Y005250D01*
X000772Y005311D01*
X000842Y005362D01*
X000919Y005402D01*
X000957Y005414D01*
X000942Y005422D01*
X000872Y005472D01*
X000810Y005534D01*
X000760Y005604D01*
X000720Y005681D01*
X000694Y005763D01*
X000680Y005849D01*
X000680Y005872D01*
X001210Y005872D01*
X001210Y005912D01*
X000680Y005912D01*
X000680Y005935D01*
X000694Y006021D01*
X000720Y006103D01*
X000760Y006180D01*
X000810Y006250D01*
X000872Y006311D01*
X000942Y006362D01*
X001002Y006393D01*
X000841Y006460D01*
X000809Y006492D01*
X000780Y006492D01*
X000480Y006192D01*
X000410Y004955D01*
X000410Y003462D01*
X000410Y003526D02*
X019914Y003526D01*
X020067Y003367D02*
X029442Y003367D01*
X029442Y003526D02*
X020225Y003526D01*
X019756Y003367D02*
X000504Y003367D01*
X000663Y003209D02*
X019597Y003209D01*
X019821Y003122D02*
X022271Y005572D01*
X022400Y005701D01*
X022400Y007183D01*
X022181Y007402D01*
X022218Y007422D01*
X022288Y007472D01*
X022350Y007534D01*
X022400Y007604D01*
X022440Y007681D01*
X022466Y007763D01*
X022480Y007849D01*
X022480Y007874D01*
X021948Y007874D01*
X021948Y007910D01*
X021912Y007910D01*
X021912Y008442D01*
X021887Y008442D01*
X021801Y008428D01*
X021719Y008402D01*
X021642Y008362D01*
X021572Y008311D01*
X021510Y008250D01*
X021460Y008180D01*
X021420Y008103D01*
X021409Y008068D01*
X021362Y008181D01*
X021219Y008324D01*
X021031Y008402D01*
X020829Y008402D01*
X020641Y008324D01*
X020498Y008181D01*
X020451Y008068D01*
X020440Y008103D01*
X020400Y008180D01*
X020350Y008250D01*
X020288Y008311D01*
X020218Y008362D01*
X020141Y008402D01*
X020059Y008428D01*
X019973Y008442D01*
X019948Y008442D01*
X019948Y007910D01*
X019912Y007910D01*
X019912Y007874D01*
X018948Y007874D01*
X018948Y007910D01*
X019380Y007910D01*
X019912Y007910D01*
X019912Y008442D01*
X019887Y008442D01*
X019801Y008428D01*
X019719Y008402D01*
X019642Y008362D01*
X019572Y008311D01*
X019510Y008250D01*
X019460Y008180D01*
X019430Y008122D01*
X019400Y008180D01*
X019350Y008250D01*
X019288Y008311D01*
X019218Y008362D01*
X019141Y008402D01*
X019059Y008428D01*
X018973Y008442D01*
X018948Y008442D01*
X018948Y007910D01*
X018912Y007910D01*
X018912Y007874D01*
X018380Y007874D01*
X018380Y007849D01*
X018394Y007763D01*
X018410Y007712D01*
X017889Y007712D01*
X017760Y007583D01*
X015190Y005013D01*
X010020Y005061D01*
X008800Y006236D01*
X008800Y007083D01*
X008532Y007351D01*
X008559Y007356D01*
X008641Y007382D01*
X008718Y007422D01*
X008788Y007472D01*
X008850Y007534D01*
X008900Y007604D01*
X008940Y007681D01*
X008966Y007763D01*
X008980Y007849D01*
X008980Y007874D01*
X008448Y007874D01*
X008448Y007910D01*
X008412Y007910D01*
X008412Y008442D01*
X008387Y008442D01*
X008301Y008428D01*
X008219Y008402D01*
X008142Y008362D01*
X008072Y008311D01*
X008010Y008250D01*
X007960Y008180D01*
X007920Y008103D01*
X007909Y008068D01*
X007862Y008181D01*
X007719Y008324D01*
X007531Y008402D01*
X007329Y008402D01*
X007141Y008324D01*
X006998Y008181D01*
X006951Y008068D01*
X006940Y008103D01*
X006900Y008180D01*
X006850Y008250D01*
X006788Y008311D01*
X006718Y008362D01*
X006641Y008402D01*
X006559Y008428D01*
X006473Y008442D01*
X006448Y008442D01*
X006448Y007910D01*
X006412Y007910D01*
X006412Y008442D01*
X006387Y008442D01*
X006301Y008428D01*
X006219Y008402D01*
X006142Y008362D01*
X006072Y008311D01*
X006010Y008250D01*
X005960Y008180D01*
X005930Y008122D01*
X005900Y008180D01*
X005850Y008250D01*
X005788Y008311D01*
X005718Y008362D01*
X005641Y008402D01*
X005559Y008428D01*
X005473Y008442D01*
X005448Y008442D01*
X005448Y007910D01*
X005412Y007910D01*
X005412Y007874D01*
X004880Y007874D01*
X004880Y007849D01*
X004894Y007763D01*
X004910Y007712D01*
X003589Y007712D01*
X002589Y006712D01*
X001650Y006712D01*
X001666Y006763D01*
X001680Y006849D01*
X001680Y006872D01*
X001150Y006872D01*
X001150Y006912D01*
X001680Y006912D01*
X001680Y006935D01*
X001666Y007021D01*
X001640Y007103D01*
X001600Y007180D01*
X001550Y007250D01*
X001488Y007311D01*
X001446Y007342D01*
X001624Y007342D01*
X001669Y007354D01*
X001711Y007378D01*
X001744Y007411D01*
X001768Y007452D01*
X001780Y007498D01*
X001780Y007872D01*
X001250Y007872D01*
X001250Y007912D01*
X001210Y007912D01*
X001210Y008442D01*
X000836Y008442D01*
X000791Y008430D01*
X000749Y008406D01*
X000716Y008372D01*
X000692Y008331D01*
X000680Y008286D01*
X000680Y007912D01*
X001210Y007912D01*
X001210Y007872D01*
X000680Y007872D01*
X000680Y007498D01*
X000692Y007452D01*
X000716Y007411D01*
X000749Y007378D01*
X000791Y007354D01*
X000820Y007346D01*
X000772Y007311D01*
X000710Y007250D01*
X000660Y007180D01*
X000620Y007103D01*
X000594Y007021D01*
X000580Y006935D01*
X000580Y006912D01*
X001110Y006912D01*
X001110Y006872D01*
X000580Y006872D01*
X000580Y006849D01*
X000594Y006763D01*
X000620Y006681D01*
X000633Y006656D01*
X000410Y006433D01*
X000410Y009032D01*
X029442Y009032D01*
X029442Y003122D01*
X019821Y003122D01*
X019908Y003209D02*
X029442Y003209D01*
X029442Y003684D02*
X022939Y003684D01*
X022917Y003663D02*
X023159Y003905D01*
X023290Y004221D01*
X023290Y004563D01*
X023159Y004879D01*
X022917Y005121D01*
X022601Y005252D01*
X022259Y005252D01*
X021943Y005121D01*
X021701Y004879D01*
X021570Y004563D01*
X021570Y004221D01*
X021701Y003905D01*
X021943Y003663D01*
X022259Y003532D01*
X022601Y003532D01*
X022917Y003663D01*
X023097Y003843D02*
X029442Y003843D01*
X029442Y004001D02*
X023199Y004001D01*
X023265Y004160D02*
X029442Y004160D01*
X029442Y004318D02*
X023290Y004318D01*
X023290Y004477D02*
X029442Y004477D01*
X029442Y004635D02*
X023260Y004635D01*
X023194Y004794D02*
X029442Y004794D01*
X029442Y004952D02*
X023086Y004952D01*
X022927Y005111D02*
X029442Y005111D01*
X029442Y005269D02*
X021969Y005269D01*
X021658Y005269D02*
X015758Y005269D01*
X015446Y005269D02*
X009803Y005269D01*
X009486Y005269D02*
X001530Y005269D01*
X001527Y005428D02*
X009321Y005428D01*
X009474Y005586D02*
X015763Y005586D01*
X015916Y005428D02*
X021816Y005428D01*
X021975Y005586D02*
X016075Y005586D01*
X015605Y005428D02*
X009639Y005428D01*
X009417Y005121D02*
X009101Y005252D01*
X008759Y005252D01*
X008443Y005121D01*
X008201Y004879D01*
X008070Y004563D01*
X008070Y004221D01*
X008201Y003905D01*
X008443Y003663D01*
X008759Y003532D01*
X009101Y003532D01*
X009417Y003663D01*
X009659Y003905D01*
X009790Y004221D01*
X009790Y004563D01*
X009659Y004879D01*
X009417Y005121D01*
X009427Y005111D02*
X009651Y005111D01*
X009586Y004952D02*
X009815Y004952D01*
X009968Y005111D02*
X015288Y005111D01*
X015441Y004952D02*
X017274Y004952D01*
X017201Y004879D02*
X017070Y004563D01*
X017070Y004221D01*
X017201Y003905D01*
X017443Y003663D01*
X017759Y003532D01*
X018101Y003532D01*
X018417Y003663D01*
X018659Y003905D01*
X018790Y004221D01*
X018790Y004563D01*
X018659Y004879D01*
X018417Y005121D01*
X018101Y005252D01*
X017759Y005252D01*
X017443Y005121D01*
X017201Y004879D01*
X017166Y004794D02*
X015282Y004794D01*
X015066Y004794D02*
X009694Y004794D01*
X009760Y004635D02*
X017100Y004635D01*
X017070Y004477D02*
X009790Y004477D01*
X009790Y004318D02*
X017070Y004318D01*
X017095Y004160D02*
X009765Y004160D01*
X009699Y004001D02*
X017161Y004001D01*
X017263Y003843D02*
X009597Y003843D01*
X009439Y003684D02*
X017421Y003684D01*
X018439Y003684D02*
X020073Y003684D01*
X020231Y003843D02*
X018597Y003843D01*
X018699Y004001D02*
X020390Y004001D01*
X020701Y004001D02*
X021661Y004001D01*
X021595Y004160D02*
X020859Y004160D01*
X020707Y004318D02*
X018790Y004318D01*
X018765Y004160D02*
X020548Y004160D01*
X021018Y004318D02*
X021570Y004318D01*
X021570Y004477D02*
X021176Y004477D01*
X020865Y004477D02*
X018790Y004477D01*
X018760Y004635D02*
X021024Y004635D01*
X021182Y004794D02*
X018694Y004794D01*
X018586Y004952D02*
X021341Y004952D01*
X021499Y005111D02*
X018427Y005111D01*
X017433Y005111D02*
X015599Y005111D01*
X015922Y005745D02*
X009309Y005745D01*
X009145Y005903D02*
X016080Y005903D01*
X016233Y005745D02*
X022133Y005745D01*
X022180Y005903D02*
X016392Y005903D01*
X016239Y006062D02*
X008980Y006062D01*
X008663Y006062D02*
X001753Y006062D01*
X001671Y006220D02*
X008580Y006220D01*
X008580Y006379D02*
X008131Y006379D01*
X007948Y006379D02*
X007912Y006379D01*
X007729Y006379D02*
X005412Y006379D01*
X005480Y006537D02*
X005563Y006537D01*
X004948Y006537D02*
X004912Y006537D01*
X004912Y006696D02*
X004948Y006696D01*
X004948Y006854D02*
X004912Y006854D01*
X004912Y007013D02*
X004948Y007013D01*
X004948Y007171D02*
X004912Y007171D01*
X004912Y007330D02*
X004948Y007330D01*
X005112Y007488D02*
X003677Y007488D01*
X003518Y007330D02*
X004392Y007330D01*
X004380Y007171D02*
X003360Y007171D01*
X003201Y007013D02*
X004380Y007013D01*
X004380Y006854D02*
X003043Y006854D01*
X002731Y006854D02*
X001680Y006854D01*
X001668Y007013D02*
X002890Y007013D01*
X003048Y007171D02*
X001605Y007171D01*
X001463Y007330D02*
X003207Y007330D01*
X003365Y007488D02*
X001777Y007488D01*
X001780Y007647D02*
X003524Y007647D01*
X004887Y007805D02*
X001780Y007805D01*
X001780Y007912D02*
X001250Y007912D01*
X001250Y008442D01*
X001624Y008442D01*
X001669Y008430D01*
X001711Y008406D01*
X001744Y008372D01*
X001768Y008331D01*
X001780Y008286D01*
X001780Y007912D01*
X001780Y007964D02*
X004885Y007964D01*
X004880Y007935D02*
X004880Y007910D01*
X005412Y007910D01*
X005412Y008442D01*
X005387Y008442D01*
X005301Y008428D01*
X005219Y008402D01*
X005142Y008362D01*
X005072Y008311D01*
X005010Y008250D01*
X004960Y008180D01*
X004920Y008103D01*
X004894Y008021D01*
X004880Y007935D01*
X004930Y008122D02*
X001780Y008122D01*
X001250Y008122D02*
X001210Y008122D01*
X001210Y007964D02*
X001250Y007964D01*
X000680Y007964D02*
X000410Y007964D01*
X000410Y007805D02*
X000680Y007805D01*
X000680Y007647D02*
X000410Y007647D01*
X000410Y007488D02*
X000683Y007488D01*
X000797Y007330D02*
X000410Y007330D01*
X000410Y007171D02*
X000655Y007171D01*
X000592Y007013D02*
X000410Y007013D01*
X000410Y006854D02*
X000580Y006854D01*
X000615Y006696D02*
X000410Y006696D01*
X000410Y006537D02*
X000514Y006537D01*
X000667Y006379D02*
X000974Y006379D01*
X000789Y006220D02*
X000509Y006220D01*
X000473Y006062D02*
X000707Y006062D01*
X000464Y005903D02*
X001210Y005903D01*
X001250Y005903D02*
X008828Y005903D01*
X008992Y005745D02*
X001761Y005745D01*
X001688Y005586D02*
X009157Y005586D01*
X008433Y005111D02*
X004927Y005111D01*
X004917Y005121D02*
X004601Y005252D01*
X004259Y005252D01*
X003943Y005121D01*
X003701Y004879D01*
X003570Y004563D01*
X003570Y004221D01*
X003701Y003905D01*
X003943Y003663D01*
X004259Y003532D01*
X004601Y003532D01*
X004917Y003663D01*
X005159Y003905D01*
X005290Y004221D01*
X005290Y004563D01*
X005159Y004879D01*
X004917Y005121D01*
X005086Y004952D02*
X008274Y004952D01*
X008166Y004794D02*
X005194Y004794D01*
X005260Y004635D02*
X008100Y004635D01*
X008070Y004477D02*
X005290Y004477D01*
X005290Y004318D02*
X008070Y004318D01*
X008095Y004160D02*
X005265Y004160D01*
X005199Y004001D02*
X008161Y004001D01*
X008263Y003843D02*
X005097Y003843D01*
X004939Y003684D02*
X008421Y003684D01*
X003921Y003684D02*
X000410Y003684D01*
X000410Y003843D02*
X003763Y003843D01*
X003661Y004001D02*
X000410Y004001D01*
X000410Y004160D02*
X003595Y004160D01*
X003570Y004318D02*
X000410Y004318D01*
X000410Y004477D02*
X000767Y004477D01*
X001110Y004477D02*
X001150Y004477D01*
X001493Y004477D02*
X003570Y004477D01*
X003600Y004635D02*
X001617Y004635D01*
X001671Y004794D02*
X003666Y004794D01*
X003774Y004952D02*
X001677Y004952D01*
X001636Y005111D02*
X003933Y005111D01*
X001150Y004794D02*
X001110Y004794D01*
X001110Y004635D02*
X001150Y004635D01*
X000643Y004635D02*
X000410Y004635D01*
X000410Y004794D02*
X000589Y004794D01*
X000583Y004952D02*
X000410Y004952D01*
X000419Y005111D02*
X000624Y005111D01*
X000730Y005269D02*
X000428Y005269D01*
X000437Y005428D02*
X000933Y005428D01*
X000772Y005586D02*
X000446Y005586D01*
X000455Y005745D02*
X000699Y005745D01*
X001486Y006379D02*
X004448Y006379D01*
X004380Y006537D02*
X002726Y006537D01*
X002884Y006696D02*
X004380Y006696D01*
X004912Y006379D02*
X004948Y006379D01*
X006297Y006537D02*
X006563Y006537D01*
X006459Y006696D02*
X006401Y006696D01*
X007297Y006537D02*
X007508Y006537D01*
X007415Y006696D02*
X007401Y006696D01*
X007912Y006696D02*
X007948Y006696D01*
X007948Y006537D02*
X007912Y006537D01*
X008352Y006537D02*
X008580Y006537D01*
X008580Y006696D02*
X008445Y006696D01*
X008800Y006696D02*
X016873Y006696D01*
X017026Y006537D02*
X017880Y006537D01*
X017880Y006696D02*
X017184Y006696D01*
X017031Y006854D02*
X008800Y006854D01*
X008580Y006854D02*
X008480Y006854D01*
X008468Y007013D02*
X008559Y007013D01*
X008712Y007171D02*
X011464Y007171D01*
X011469Y007161D02*
X011583Y007047D01*
X011733Y006985D01*
X011895Y006985D01*
X012044Y007047D01*
X012159Y007161D01*
X012221Y007311D01*
X012221Y007473D01*
X012159Y007623D01*
X012044Y007737D01*
X011895Y007799D01*
X011733Y007799D01*
X011583Y007737D01*
X011469Y007623D01*
X011407Y007473D01*
X011407Y007311D01*
X011469Y007161D01*
X011665Y007013D02*
X008800Y007013D01*
X008553Y007330D02*
X011407Y007330D01*
X011413Y007488D02*
X008804Y007488D01*
X008922Y007647D02*
X011493Y007647D01*
X012135Y007647D02*
X013225Y007647D01*
X013201Y007623D02*
X013139Y007473D01*
X013139Y007311D01*
X013201Y007161D01*
X013316Y007047D01*
X013465Y006985D01*
X013627Y006985D01*
X013777Y007047D01*
X013891Y007161D01*
X013953Y007311D01*
X013953Y007473D01*
X013891Y007623D01*
X013777Y007737D01*
X013627Y007799D01*
X013465Y007799D01*
X013316Y007737D01*
X013201Y007623D01*
X013145Y007488D02*
X012215Y007488D01*
X012221Y007330D02*
X013139Y007330D01*
X013197Y007171D02*
X012163Y007171D01*
X011963Y007013D02*
X013397Y007013D01*
X013695Y007013D02*
X017190Y007013D01*
X017348Y007171D02*
X013896Y007171D01*
X013953Y007330D02*
X017507Y007330D01*
X017665Y007488D02*
X013947Y007488D01*
X013867Y007647D02*
X017824Y007647D01*
X017760Y007583D02*
X017760Y007583D01*
X017977Y007488D02*
X018612Y007488D01*
X018448Y007330D02*
X018412Y007330D01*
X018412Y007171D02*
X018448Y007171D01*
X018448Y007013D02*
X018412Y007013D01*
X018412Y006854D02*
X018448Y006854D01*
X018448Y006696D02*
X018412Y006696D01*
X018412Y006537D02*
X018448Y006537D01*
X018448Y006379D02*
X018412Y006379D01*
X017948Y006379D02*
X016867Y006379D01*
X016709Y006220D02*
X022180Y006220D01*
X022180Y006379D02*
X021631Y006379D01*
X021448Y006379D02*
X021412Y006379D01*
X021229Y006379D02*
X018912Y006379D01*
X018980Y006537D02*
X019063Y006537D01*
X019797Y006537D02*
X020063Y006537D01*
X019959Y006696D02*
X019901Y006696D01*
X020797Y006537D02*
X021008Y006537D01*
X020915Y006696D02*
X020901Y006696D01*
X021412Y006696D02*
X021448Y006696D01*
X021448Y006537D02*
X021412Y006537D01*
X021852Y006537D02*
X022180Y006537D01*
X022180Y006696D02*
X021945Y006696D01*
X021980Y006854D02*
X022180Y006854D01*
X022400Y006854D02*
X029442Y006854D01*
X029442Y006696D02*
X022400Y006696D01*
X022400Y006537D02*
X029442Y006537D01*
X029442Y006379D02*
X022400Y006379D01*
X022400Y006220D02*
X029442Y006220D01*
X029442Y006062D02*
X022400Y006062D01*
X022180Y006062D02*
X016550Y006062D01*
X016397Y006220D02*
X008816Y006220D01*
X008800Y006379D02*
X016556Y006379D01*
X016714Y006537D02*
X008800Y006537D01*
X007948Y006854D02*
X007912Y006854D01*
X007912Y006910D02*
X007912Y007442D01*
X007887Y007442D01*
X007801Y007428D01*
X007719Y007402D01*
X007642Y007362D01*
X007572Y007311D01*
X007510Y007250D01*
X007460Y007180D01*
X007420Y007103D01*
X007409Y007068D01*
X007362Y007181D01*
X007219Y007324D01*
X007031Y007402D01*
X006829Y007402D01*
X006641Y007324D01*
X006498Y007181D01*
X006430Y007018D01*
X006362Y007181D01*
X006219Y007324D01*
X006031Y007402D01*
X005829Y007402D01*
X005641Y007324D01*
X005498Y007181D01*
X005480Y007138D01*
X005480Y007286D01*
X005468Y007331D01*
X005444Y007372D01*
X005435Y007382D01*
X005531Y007382D01*
X005719Y007460D01*
X005751Y007492D01*
X006109Y007492D01*
X006141Y007460D01*
X006329Y007382D01*
X006531Y007382D01*
X006719Y007460D01*
X006751Y007492D01*
X007109Y007492D01*
X007141Y007460D01*
X007329Y007382D01*
X007531Y007382D01*
X007719Y007460D01*
X007751Y007492D01*
X008080Y007492D01*
X008201Y007371D01*
X008141Y007402D01*
X008059Y007428D01*
X007973Y007442D01*
X007948Y007442D01*
X007948Y006910D01*
X007912Y006910D01*
X007912Y007013D02*
X007948Y007013D01*
X007948Y007171D02*
X007912Y007171D01*
X007912Y007330D02*
X007948Y007330D01*
X008083Y007488D02*
X007748Y007488D01*
X007597Y007330D02*
X007205Y007330D01*
X007112Y007488D02*
X006748Y007488D01*
X006655Y007330D02*
X006205Y007330D01*
X006112Y007488D02*
X005748Y007488D01*
X005655Y007330D02*
X005468Y007330D01*
X005480Y007171D02*
X005494Y007171D01*
X006366Y007171D02*
X006494Y007171D01*
X007366Y007171D02*
X007455Y007171D01*
X006412Y007874D02*
X005448Y007874D01*
X005448Y007910D01*
X005980Y007910D01*
X006412Y007910D01*
X006412Y007874D01*
X006412Y007964D02*
X006448Y007964D01*
X006448Y008122D02*
X006412Y008122D01*
X006412Y008281D02*
X006448Y008281D01*
X006448Y008439D02*
X006412Y008439D01*
X006371Y008439D02*
X005489Y008439D01*
X005448Y008439D02*
X005412Y008439D01*
X005371Y008439D02*
X001633Y008439D01*
X001780Y008281D02*
X005041Y008281D01*
X005412Y008281D02*
X005448Y008281D01*
X005819Y008281D02*
X006041Y008281D01*
X006489Y008439D02*
X008371Y008439D01*
X008412Y008439D02*
X008448Y008439D01*
X008448Y008442D02*
X008448Y007910D01*
X008980Y007910D01*
X008980Y007935D01*
X008966Y008021D01*
X008940Y008103D01*
X008900Y008180D01*
X008850Y008250D01*
X008788Y008311D01*
X008718Y008362D01*
X008641Y008402D01*
X008559Y008428D01*
X008473Y008442D01*
X008448Y008442D01*
X008489Y008439D02*
X018871Y008439D01*
X018887Y008442D02*
X018801Y008428D01*
X018719Y008402D01*
X018642Y008362D01*
X018572Y008311D01*
X018510Y008250D01*
X018460Y008180D01*
X018420Y008103D01*
X018394Y008021D01*
X018380Y007935D01*
X018380Y007910D01*
X018912Y007910D01*
X018912Y008442D01*
X018887Y008442D01*
X018912Y008439D02*
X018948Y008439D01*
X018989Y008439D02*
X019871Y008439D01*
X019912Y008439D02*
X019948Y008439D01*
X019989Y008439D02*
X021871Y008439D01*
X021912Y008439D02*
X021948Y008439D01*
X021948Y008442D02*
X021948Y007910D01*
X022480Y007910D01*
X022480Y007935D01*
X022466Y008021D01*
X022440Y008103D01*
X022400Y008180D01*
X022350Y008250D01*
X022288Y008311D01*
X022218Y008362D01*
X022141Y008402D01*
X022059Y008428D01*
X021973Y008442D01*
X021948Y008442D01*
X021989Y008439D02*
X029442Y008439D01*
X029442Y008281D02*
X022319Y008281D01*
X021948Y008281D02*
X021912Y008281D01*
X021541Y008281D02*
X021262Y008281D01*
X021387Y008122D02*
X021430Y008122D01*
X021912Y008122D02*
X021948Y008122D01*
X021948Y007964D02*
X021912Y007964D01*
X022430Y008122D02*
X029442Y008122D01*
X029442Y007964D02*
X022475Y007964D01*
X022473Y007805D02*
X029442Y007805D01*
X029442Y007647D02*
X027367Y007647D01*
X027391Y007623D02*
X027277Y007737D01*
X027127Y007799D01*
X026965Y007799D01*
X026816Y007737D01*
X026701Y007623D01*
X026639Y007473D01*
X026639Y007311D01*
X026701Y007161D01*
X026816Y007047D01*
X026965Y006985D01*
X027127Y006985D01*
X027277Y007047D01*
X027391Y007161D01*
X027453Y007311D01*
X027453Y007473D01*
X027391Y007623D01*
X027447Y007488D02*
X029442Y007488D01*
X029442Y007330D02*
X027453Y007330D01*
X027396Y007171D02*
X029442Y007171D01*
X029442Y007013D02*
X027195Y007013D01*
X026897Y007013D02*
X025463Y007013D01*
X025395Y006985D02*
X025544Y007047D01*
X025659Y007161D01*
X025721Y007311D01*
X025721Y007473D01*
X025659Y007623D01*
X025544Y007737D01*
X025395Y007799D01*
X025233Y007799D01*
X025083Y007737D01*
X024969Y007623D01*
X024907Y007473D01*
X024907Y007311D01*
X024969Y007161D01*
X025083Y007047D01*
X025233Y006985D01*
X025395Y006985D01*
X025165Y007013D02*
X022400Y007013D01*
X022400Y007171D02*
X024964Y007171D01*
X024907Y007330D02*
X022253Y007330D01*
X022304Y007488D02*
X024913Y007488D01*
X024993Y007647D02*
X022422Y007647D01*
X021942Y007330D02*
X021763Y007330D01*
X021612Y007488D02*
X021248Y007488D01*
X021097Y007330D02*
X020705Y007330D01*
X020612Y007488D02*
X020248Y007488D01*
X020155Y007330D02*
X019705Y007330D01*
X019612Y007488D02*
X019248Y007488D01*
X019155Y007330D02*
X018968Y007330D01*
X018980Y007171D02*
X018994Y007171D01*
X019866Y007171D02*
X019994Y007171D01*
X020866Y007171D02*
X020955Y007171D01*
X021412Y007171D02*
X021448Y007171D01*
X021448Y007013D02*
X021412Y007013D01*
X021412Y006854D02*
X021448Y006854D01*
X021968Y007013D02*
X022180Y007013D01*
X022100Y007171D02*
X021905Y007171D01*
X021448Y007330D02*
X021412Y007330D01*
X019948Y007964D02*
X019912Y007964D01*
X019912Y008122D02*
X019948Y008122D01*
X019430Y008122D02*
X019430Y008122D01*
X019319Y008281D02*
X019541Y008281D01*
X019912Y008281D02*
X019948Y008281D01*
X020319Y008281D02*
X020598Y008281D01*
X020473Y008122D02*
X020430Y008122D01*
X018948Y008122D02*
X018912Y008122D01*
X018912Y007964D02*
X018948Y007964D01*
X018430Y008122D02*
X008930Y008122D01*
X008448Y008122D02*
X008412Y008122D01*
X008412Y007964D02*
X008448Y007964D01*
X008975Y007964D02*
X018385Y007964D01*
X018387Y007805D02*
X008973Y007805D01*
X007930Y008122D02*
X007887Y008122D01*
X007762Y008281D02*
X008041Y008281D01*
X008412Y008281D02*
X008448Y008281D01*
X008819Y008281D02*
X018541Y008281D01*
X018912Y008281D02*
X018948Y008281D01*
X017892Y007330D02*
X017818Y007330D01*
X017880Y007171D02*
X017660Y007171D01*
X017501Y007013D02*
X017880Y007013D01*
X017880Y006854D02*
X017343Y006854D01*
X022127Y005428D02*
X029442Y005428D01*
X029442Y005586D02*
X022286Y005586D01*
X022400Y005745D02*
X029442Y005745D01*
X029442Y005903D02*
X022400Y005903D01*
X021933Y005111D02*
X021810Y005111D01*
X021774Y004952D02*
X021652Y004952D01*
X021666Y004794D02*
X021493Y004794D01*
X021600Y004635D02*
X021335Y004635D01*
X021763Y003843D02*
X020542Y003843D01*
X020384Y003684D02*
X021921Y003684D01*
X025663Y007171D02*
X026697Y007171D01*
X026639Y007330D02*
X025721Y007330D01*
X025715Y007488D02*
X026645Y007488D01*
X026725Y007647D02*
X025635Y007647D01*
X029442Y008598D02*
X000410Y008598D01*
X000410Y008756D02*
X029442Y008756D01*
X029442Y008915D02*
X000410Y008915D01*
X000410Y008439D02*
X000827Y008439D01*
X000680Y008281D02*
X000410Y008281D01*
X000410Y008122D02*
X000680Y008122D01*
X001210Y008281D02*
X001250Y008281D01*
X001250Y008439D02*
X001210Y008439D01*
X005412Y008122D02*
X005448Y008122D01*
X005930Y008122D02*
X005930Y008122D01*
X005448Y007964D02*
X005412Y007964D01*
X006819Y008281D02*
X007098Y008281D01*
X006973Y008122D02*
X006930Y008122D01*
D13*
X006630Y008792D03*
X009330Y007792D03*
X010680Y007492D03*
X009330Y006842D03*
X009330Y005892D03*
X012930Y005142D03*
X013680Y005642D03*
X014580Y007492D03*
X020230Y008842D03*
X022880Y007942D03*
X024180Y007492D03*
X022830Y006942D03*
X022830Y005842D03*
X023580Y004842D03*
X024480Y004842D03*
X025480Y004842D03*
X026380Y005042D03*
X027480Y005192D03*
X028080Y007492D03*
M02*
