G75*
G70*
%OFA0B0*%
%FSLAX24Y24*%
%IPPOS*%
%LPD*%
%AMOC8*
5,1,8,0,0,1.08239X$1,22.5*
%
%ADD10C,0.0040*%
%ADD11C,0.0080*%
%ADD12C,0.0010*%
D10*
X001220Y003237D02*
X001280Y003297D01*
X001280Y003357D01*
X001220Y003417D01*
X000920Y003417D01*
X000920Y003357D02*
X000920Y003477D01*
X000920Y003605D02*
X000920Y003785D01*
X000980Y003846D01*
X001100Y003846D01*
X001160Y003785D01*
X001160Y003605D01*
X001280Y003605D02*
X000920Y003605D01*
X001040Y003974D02*
X000920Y004094D01*
X001280Y004094D01*
X001280Y003974D02*
X001280Y004214D01*
X002000Y004965D02*
X002153Y004812D01*
X002460Y004812D02*
X002460Y005119D01*
X002460Y004965D02*
X002000Y004965D01*
X002076Y005272D02*
X002000Y005349D01*
X002000Y005503D01*
X002076Y005579D01*
X002153Y005579D01*
X002460Y005272D01*
X002460Y005579D01*
X002307Y005733D02*
X002000Y005733D01*
X002307Y005733D02*
X002460Y005886D01*
X002307Y006040D01*
X002000Y006040D01*
X002076Y006812D02*
X002383Y006812D01*
X002460Y006889D01*
X002460Y007042D01*
X002383Y007119D01*
X002230Y007119D01*
X002230Y006965D01*
X002076Y006812D02*
X002000Y006889D01*
X002000Y007042D01*
X002076Y007119D01*
X002000Y007272D02*
X002460Y007579D01*
X002000Y007579D01*
X002000Y007733D02*
X002000Y007963D01*
X002076Y008040D01*
X002383Y008040D01*
X002460Y007963D01*
X002460Y007733D01*
X002000Y007733D01*
X002000Y007272D02*
X002460Y007272D01*
D11*
X001680Y007142D02*
X001680Y006642D01*
X001430Y006392D01*
X001680Y006142D01*
X001680Y005642D01*
X001430Y005392D01*
X001680Y005142D01*
X001680Y004642D01*
X001430Y004392D01*
X000930Y004392D01*
X000680Y004642D01*
X000680Y005142D01*
X000930Y005392D01*
X000680Y005642D01*
X000680Y006142D01*
X000930Y006392D01*
X000680Y006642D01*
X000680Y007142D01*
X000930Y007392D01*
X000680Y007642D01*
X000680Y008142D01*
X000930Y008392D01*
X001430Y008392D01*
X001680Y008142D01*
X001680Y007642D01*
X001430Y007392D01*
X001680Y007142D01*
X003680Y008329D02*
X003680Y003211D01*
X009680Y003211D01*
X009680Y008329D01*
X003680Y008329D01*
X011184Y007904D02*
X011184Y007077D01*
X011460Y006093D02*
X011814Y006093D01*
X013546Y006093D02*
X013900Y006093D01*
X014176Y007077D02*
X014176Y007904D01*
X017180Y008329D02*
X017180Y003211D01*
X023180Y003211D01*
X023180Y008329D01*
X017180Y008329D01*
X024684Y007904D02*
X024684Y007077D01*
X024960Y006093D02*
X025314Y006093D01*
X027046Y006093D02*
X027400Y006093D01*
X027676Y007077D02*
X027676Y007904D01*
D12*
X026835Y008627D02*
X026835Y008677D01*
X026810Y008702D01*
X026685Y008702D01*
X026760Y008750D02*
X026760Y008850D01*
X026835Y008825D02*
X026685Y008825D01*
X026760Y008750D01*
X026835Y008627D02*
X026810Y008602D01*
X026685Y008602D01*
X013335Y008627D02*
X013335Y008677D01*
X013310Y008702D01*
X013185Y008702D01*
X013210Y008750D02*
X013185Y008775D01*
X013185Y008825D01*
X013210Y008850D01*
X013235Y008850D01*
X013260Y008825D01*
X013285Y008850D01*
X013310Y008850D01*
X013335Y008825D01*
X013335Y008775D01*
X013310Y008750D01*
X013260Y008800D02*
X013260Y008825D01*
X013335Y008627D02*
X013310Y008602D01*
X013185Y008602D01*
M02*
