G75*
G70*
%OFA0B0*%
%FSLAX24Y24*%
%IPPOS*%
%LPD*%
%AMOC8*
5,1,8,0,0,1.08239X$1,22.5*
%
%ADD10C,0.0030*%
D10*
X016787Y005530D02*
X016787Y005654D01*
X016911Y005777D01*
X017094Y005654D02*
X017032Y005592D01*
X017032Y005407D01*
X016911Y005407D02*
X016787Y005530D01*
X017094Y005654D02*
X017156Y005592D01*
X017156Y005407D01*
X017279Y005407D02*
X017279Y005654D01*
X017217Y005654D01*
X017156Y005592D01*
X017400Y005592D02*
X017400Y005469D01*
X017462Y005407D01*
X017586Y005407D01*
X017647Y005469D01*
X017647Y005592D01*
X017586Y005654D01*
X017462Y005654D01*
X017400Y005592D01*
X017769Y005654D02*
X017954Y005654D01*
X018016Y005592D01*
X018016Y005469D01*
X017954Y005407D01*
X017769Y005407D01*
X018138Y005407D02*
X018138Y005469D01*
X018200Y005469D01*
X018200Y005407D01*
X018138Y005407D01*
X018322Y005407D02*
X018445Y005407D01*
X018384Y005407D02*
X018384Y005777D01*
X018445Y005777D01*
X018629Y005777D02*
X018629Y005839D01*
X018629Y005654D02*
X018629Y005407D01*
X018691Y005407D02*
X018567Y005407D01*
X018812Y005407D02*
X018997Y005407D01*
X019059Y005469D01*
X018997Y005530D01*
X018812Y005530D01*
X018812Y005592D02*
X018812Y005407D01*
X019181Y005407D02*
X019181Y005592D01*
X019242Y005654D01*
X019304Y005592D01*
X019304Y005407D01*
X019427Y005407D02*
X019427Y005654D01*
X019366Y005654D01*
X019304Y005592D01*
X019549Y005654D02*
X019734Y005654D01*
X019796Y005592D01*
X019796Y005469D01*
X019734Y005407D01*
X019549Y005407D01*
X019549Y005345D02*
X019549Y005654D01*
X019917Y005716D02*
X019917Y005592D01*
X019979Y005530D01*
X019979Y005654D01*
X020102Y005654D01*
X020102Y005530D01*
X019979Y005530D01*
X019917Y005469D02*
X019979Y005407D01*
X020102Y005407D01*
X020164Y005469D01*
X020164Y005716D01*
X020102Y005777D01*
X019979Y005777D01*
X019917Y005716D01*
X020286Y005592D02*
X020286Y005530D01*
X020532Y005530D01*
X020532Y005469D02*
X020532Y005592D01*
X020471Y005654D01*
X020347Y005654D01*
X020286Y005592D01*
X020471Y005407D02*
X020532Y005469D01*
X020471Y005407D02*
X020347Y005407D01*
X020654Y005407D02*
X020654Y005592D01*
X020716Y005654D01*
X020901Y005654D01*
X020901Y005407D01*
X021023Y005407D02*
X021146Y005407D01*
X021085Y005407D02*
X021085Y005654D01*
X021146Y005654D01*
X021268Y005654D02*
X021268Y005407D01*
X021453Y005407D01*
X021515Y005469D01*
X021515Y005654D01*
X021636Y005654D02*
X021821Y005654D01*
X021883Y005592D01*
X021883Y005469D01*
X021821Y005407D01*
X021636Y005407D01*
X021636Y005345D02*
X021636Y005654D01*
X022004Y005592D02*
X022004Y005407D01*
X022251Y005407D02*
X022251Y005654D01*
X022066Y005654D01*
X022004Y005592D01*
X022373Y005592D02*
X022373Y005530D01*
X022619Y005530D01*
X022619Y005469D02*
X022619Y005592D01*
X022558Y005654D01*
X022434Y005654D01*
X022373Y005592D01*
X022558Y005407D02*
X022619Y005469D01*
X022558Y005407D02*
X022434Y005407D01*
X022741Y005469D02*
X022803Y005407D01*
X022988Y005407D01*
X022988Y005284D02*
X022988Y005654D01*
X022803Y005654D01*
X022741Y005592D01*
X022741Y005469D01*
X023109Y005530D02*
X023356Y005530D01*
X023356Y005469D02*
X023356Y005592D01*
X023294Y005654D01*
X023171Y005654D01*
X023109Y005592D01*
X023109Y005530D01*
X023294Y005407D02*
X023356Y005469D01*
X023294Y005407D02*
X023171Y005407D01*
X023478Y005407D02*
X023663Y005407D01*
X023724Y005469D01*
X023724Y005592D01*
X023663Y005654D01*
X023478Y005654D01*
X023846Y005592D02*
X023846Y005407D01*
X024031Y005407D01*
X024093Y005469D01*
X024031Y005530D01*
X023846Y005530D01*
X023846Y005592D02*
X023908Y005654D01*
X024031Y005654D01*
X024214Y005592D02*
X024214Y005469D01*
X024276Y005407D01*
X024461Y005407D01*
X024461Y005284D02*
X024461Y005654D01*
X024276Y005654D01*
X024214Y005592D01*
X024583Y005654D02*
X024768Y005654D01*
X024829Y005592D01*
X024768Y005530D01*
X024644Y005530D01*
X024583Y005469D01*
X024644Y005407D01*
X024829Y005407D01*
X024951Y005407D02*
X025075Y005530D01*
X025075Y005654D01*
X024951Y005777D01*
X024828Y006007D02*
X024951Y006130D01*
X024890Y006130D02*
X025075Y006130D01*
X024890Y006130D02*
X024828Y006192D01*
X024828Y006316D01*
X024890Y006377D01*
X025075Y006377D01*
X025075Y006007D01*
X024707Y006069D02*
X024645Y006007D01*
X024583Y006007D01*
X024521Y006069D01*
X024521Y006377D01*
X024460Y006377D02*
X024583Y006377D01*
X024338Y006192D02*
X024091Y006192D01*
X023970Y006192D02*
X023847Y006254D01*
X023785Y006254D01*
X023723Y006192D01*
X023723Y006069D01*
X023785Y006007D01*
X023908Y006007D01*
X023970Y006069D01*
X023970Y006192D02*
X023970Y006377D01*
X023723Y006377D01*
X024153Y006377D02*
X024338Y006192D01*
X024153Y006007D02*
X024153Y006377D01*
X023233Y006377D02*
X023048Y006377D01*
X022986Y006316D01*
X022986Y006254D01*
X023048Y006192D01*
X023233Y006192D01*
X023048Y006192D02*
X022986Y006130D01*
X022986Y006069D01*
X023048Y006007D01*
X023233Y006007D01*
X023233Y006377D01*
X022865Y006254D02*
X022865Y006007D01*
X022558Y006069D02*
X022558Y006192D01*
X022496Y006254D01*
X022373Y006254D01*
X022311Y006192D01*
X022311Y006130D01*
X022558Y006130D01*
X022558Y006069D02*
X022496Y006007D01*
X022373Y006007D01*
X022190Y006069D02*
X022128Y006007D01*
X021943Y006007D01*
X021943Y006192D01*
X022005Y006254D01*
X022128Y006254D01*
X022128Y006130D02*
X021943Y006130D01*
X021821Y006130D02*
X021636Y006254D01*
X021515Y006192D02*
X021515Y006069D01*
X021453Y006007D01*
X021329Y006007D01*
X021268Y006069D01*
X021268Y006192D01*
X021329Y006254D01*
X021453Y006254D01*
X021515Y006192D01*
X021636Y006007D02*
X021821Y006130D01*
X022128Y006130D02*
X022190Y006069D01*
X021821Y006007D02*
X021821Y006377D01*
X022680Y006254D02*
X022742Y006254D01*
X022865Y006130D01*
X021146Y006069D02*
X021085Y006007D01*
X020899Y006007D01*
X020899Y006254D01*
X020778Y006254D02*
X020654Y006254D01*
X020716Y006316D02*
X020716Y006069D01*
X020654Y006007D01*
X021085Y005839D02*
X021085Y005777D01*
X021146Y006069D02*
X021146Y006254D01*
X018997Y005654D02*
X018874Y005654D01*
X018812Y005592D01*
X018691Y005654D02*
X018629Y005654D01*
X019549Y005345D02*
X019611Y005284D01*
X019672Y005284D01*
X021636Y005345D02*
X021698Y005284D01*
X021759Y005284D01*
X025565Y005345D02*
X025626Y005284D01*
X025688Y005284D01*
X025750Y005407D02*
X025565Y005407D01*
X025565Y005345D02*
X025565Y005654D01*
X025750Y005654D01*
X025812Y005592D01*
X025812Y005469D01*
X025750Y005407D01*
X025934Y005407D02*
X026057Y005407D01*
X025995Y005407D02*
X025995Y005654D01*
X026057Y005654D01*
X026179Y005654D02*
X026179Y005469D01*
X026240Y005407D01*
X026302Y005469D01*
X026364Y005407D01*
X026425Y005469D01*
X026425Y005654D01*
X026548Y005654D02*
X026671Y005654D01*
X026609Y005716D02*
X026609Y005469D01*
X026548Y005407D01*
X026854Y005654D02*
X026978Y005530D01*
X027099Y005530D02*
X027284Y005530D01*
X027346Y005469D01*
X027284Y005407D01*
X027099Y005407D01*
X027099Y005592D01*
X027161Y005654D01*
X027284Y005654D01*
X027468Y005592D02*
X027715Y005592D01*
X027715Y005407D02*
X027715Y005777D01*
X027468Y005777D02*
X027468Y005407D01*
X026978Y005407D02*
X026978Y005654D01*
X026854Y005654D02*
X026793Y005654D01*
X025995Y005777D02*
X025995Y005839D01*
X025812Y006007D02*
X025565Y006254D01*
X025565Y006316D01*
X025626Y006377D01*
X025750Y006377D01*
X025812Y006316D01*
X026302Y006254D02*
X026363Y006254D01*
X026487Y006130D01*
X026487Y006007D02*
X026487Y006254D01*
X026608Y006192D02*
X026670Y006254D01*
X026793Y006254D01*
X026855Y006192D01*
X026855Y006069D01*
X026793Y006007D01*
X026670Y006007D01*
X026608Y006069D01*
X026608Y006192D01*
X026977Y006192D02*
X026977Y006069D01*
X027038Y006007D01*
X027162Y006007D01*
X027223Y006069D01*
X027223Y006192D01*
X027162Y006254D01*
X027038Y006254D01*
X026977Y006192D01*
X027345Y006069D02*
X027345Y006316D01*
X027407Y006377D01*
X027592Y006377D01*
X027592Y006007D01*
X027407Y006007D01*
X027345Y006069D01*
X028081Y006377D02*
X028328Y006377D01*
X028450Y006377D02*
X028573Y006254D01*
X028697Y006377D01*
X028697Y006007D01*
X028818Y006007D02*
X028818Y006254D01*
X028942Y006377D01*
X029065Y006254D01*
X029065Y006007D01*
X029065Y006192D02*
X028818Y006192D01*
X028450Y006377D02*
X028450Y006007D01*
X028205Y006007D02*
X028205Y006377D01*
X028942Y005777D02*
X029065Y005777D01*
X029003Y005777D02*
X029003Y005407D01*
X028942Y005407D02*
X029065Y005407D01*
X028819Y005469D02*
X028758Y005530D01*
X028573Y005530D01*
X028573Y005592D02*
X028573Y005407D01*
X028758Y005407D01*
X028819Y005469D01*
X028634Y005654D02*
X028573Y005592D01*
X028634Y005654D02*
X028758Y005654D01*
X028451Y005654D02*
X028266Y005654D01*
X028204Y005592D01*
X028204Y005407D01*
X028451Y005407D02*
X028451Y005654D01*
X025812Y006007D02*
X025565Y006007D01*
M02*
