G75*
G70*
%OFA0B0*%
%FSLAX24Y24*%
%IPPOS*%
%LPD*%
%AMOC8*
5,1,8,0,0,1.08239X$1,22.5*
%
%ADD10C,0.0800*%
%ADD11R,0.0800X0.0800*%
%ADD12C,0.1320*%
%ADD13R,0.0257X0.1044*%
%ADD14R,0.0847X0.1044*%
%ADD15C,0.0414*%
%ADD16C,0.0436*%
D10*
X001130Y004892D03*
X001230Y005892D03*
X001130Y006892D03*
X005430Y007892D03*
X006430Y007892D03*
X007430Y007892D03*
X008430Y007892D03*
X007930Y006892D03*
X006930Y006892D03*
X005930Y006892D03*
X018930Y007892D03*
X019930Y007892D03*
X020930Y007892D03*
X021930Y007892D03*
X021430Y006892D03*
X020430Y006892D03*
X019430Y006892D03*
D11*
X018430Y006892D03*
X004930Y006892D03*
X001230Y007892D03*
D12*
X004430Y004392D03*
X008930Y004392D03*
X017930Y004392D03*
X022430Y004392D03*
D13*
X025550Y006408D03*
X025865Y006408D03*
X026180Y006408D03*
X026495Y006408D03*
X026810Y006408D03*
X013310Y006408D03*
X012995Y006408D03*
X012680Y006408D03*
X012365Y006408D03*
X012050Y006408D03*
D14*
X010908Y006408D03*
X014452Y006408D03*
X014452Y008573D03*
X010908Y008573D03*
X024408Y008573D03*
X027952Y008573D03*
X027952Y006408D03*
X024408Y006408D03*
D15*
X025314Y007392D03*
X027046Y007392D03*
X013546Y007392D03*
X011814Y007392D03*
D16*
X010680Y007492D03*
X009330Y007792D03*
X009330Y006842D03*
X009330Y005892D03*
X012930Y005142D03*
X013680Y005642D03*
X014580Y007492D03*
X020230Y008842D03*
X022880Y007942D03*
X024180Y007492D03*
X022830Y006942D03*
X022830Y005842D03*
X023580Y004842D03*
X024480Y004842D03*
X025480Y004842D03*
X026380Y005042D03*
X027480Y005192D03*
X028080Y007492D03*
X006630Y008792D03*
M02*
