G75*
G70*
%OFA0B0*%
%FSLAX24Y24*%
%IPPOS*%
%LPD*%
%AMOC8*
5,1,8,0,0,1.08239X$1,22.5*
%
%ADD10C,0.0000*%
D10*
X000180Y002892D02*
X000180Y009262D01*
X029672Y009262D01*
X029672Y002892D01*
X000180Y002892D01*
X003800Y004392D02*
X003802Y004442D01*
X003808Y004492D01*
X003818Y004541D01*
X003832Y004589D01*
X003849Y004636D01*
X003870Y004681D01*
X003895Y004725D01*
X003923Y004766D01*
X003955Y004805D01*
X003989Y004842D01*
X004026Y004876D01*
X004066Y004906D01*
X004108Y004933D01*
X004152Y004957D01*
X004198Y004978D01*
X004245Y004994D01*
X004293Y005007D01*
X004343Y005016D01*
X004392Y005021D01*
X004443Y005022D01*
X004493Y005019D01*
X004542Y005012D01*
X004591Y005001D01*
X004639Y004986D01*
X004685Y004968D01*
X004730Y004946D01*
X004773Y004920D01*
X004814Y004891D01*
X004853Y004859D01*
X004889Y004824D01*
X004921Y004786D01*
X004951Y004746D01*
X004978Y004703D01*
X005001Y004659D01*
X005020Y004613D01*
X005036Y004565D01*
X005048Y004516D01*
X005056Y004467D01*
X005060Y004417D01*
X005060Y004367D01*
X005056Y004317D01*
X005048Y004268D01*
X005036Y004219D01*
X005020Y004171D01*
X005001Y004125D01*
X004978Y004081D01*
X004951Y004038D01*
X004921Y003998D01*
X004889Y003960D01*
X004853Y003925D01*
X004814Y003893D01*
X004773Y003864D01*
X004730Y003838D01*
X004685Y003816D01*
X004639Y003798D01*
X004591Y003783D01*
X004542Y003772D01*
X004493Y003765D01*
X004443Y003762D01*
X004392Y003763D01*
X004343Y003768D01*
X004293Y003777D01*
X004245Y003790D01*
X004198Y003806D01*
X004152Y003827D01*
X004108Y003851D01*
X004066Y003878D01*
X004026Y003908D01*
X003989Y003942D01*
X003955Y003979D01*
X003923Y004018D01*
X003895Y004059D01*
X003870Y004103D01*
X003849Y004148D01*
X003832Y004195D01*
X003818Y004243D01*
X003808Y004292D01*
X003802Y004342D01*
X003800Y004392D01*
X008300Y004392D02*
X008302Y004442D01*
X008308Y004492D01*
X008318Y004541D01*
X008332Y004589D01*
X008349Y004636D01*
X008370Y004681D01*
X008395Y004725D01*
X008423Y004766D01*
X008455Y004805D01*
X008489Y004842D01*
X008526Y004876D01*
X008566Y004906D01*
X008608Y004933D01*
X008652Y004957D01*
X008698Y004978D01*
X008745Y004994D01*
X008793Y005007D01*
X008843Y005016D01*
X008892Y005021D01*
X008943Y005022D01*
X008993Y005019D01*
X009042Y005012D01*
X009091Y005001D01*
X009139Y004986D01*
X009185Y004968D01*
X009230Y004946D01*
X009273Y004920D01*
X009314Y004891D01*
X009353Y004859D01*
X009389Y004824D01*
X009421Y004786D01*
X009451Y004746D01*
X009478Y004703D01*
X009501Y004659D01*
X009520Y004613D01*
X009536Y004565D01*
X009548Y004516D01*
X009556Y004467D01*
X009560Y004417D01*
X009560Y004367D01*
X009556Y004317D01*
X009548Y004268D01*
X009536Y004219D01*
X009520Y004171D01*
X009501Y004125D01*
X009478Y004081D01*
X009451Y004038D01*
X009421Y003998D01*
X009389Y003960D01*
X009353Y003925D01*
X009314Y003893D01*
X009273Y003864D01*
X009230Y003838D01*
X009185Y003816D01*
X009139Y003798D01*
X009091Y003783D01*
X009042Y003772D01*
X008993Y003765D01*
X008943Y003762D01*
X008892Y003763D01*
X008843Y003768D01*
X008793Y003777D01*
X008745Y003790D01*
X008698Y003806D01*
X008652Y003827D01*
X008608Y003851D01*
X008566Y003878D01*
X008526Y003908D01*
X008489Y003942D01*
X008455Y003979D01*
X008423Y004018D01*
X008395Y004059D01*
X008370Y004103D01*
X008349Y004148D01*
X008332Y004195D01*
X008318Y004243D01*
X008308Y004292D01*
X008302Y004342D01*
X008300Y004392D01*
X011637Y007392D02*
X011639Y007418D01*
X011645Y007444D01*
X011655Y007469D01*
X011668Y007492D01*
X011684Y007512D01*
X011704Y007530D01*
X011726Y007545D01*
X011749Y007557D01*
X011775Y007565D01*
X011801Y007569D01*
X011827Y007569D01*
X011853Y007565D01*
X011879Y007557D01*
X011903Y007545D01*
X011924Y007530D01*
X011944Y007512D01*
X011960Y007492D01*
X011973Y007469D01*
X011983Y007444D01*
X011989Y007418D01*
X011991Y007392D01*
X011989Y007366D01*
X011983Y007340D01*
X011973Y007315D01*
X011960Y007292D01*
X011944Y007272D01*
X011924Y007254D01*
X011902Y007239D01*
X011879Y007227D01*
X011853Y007219D01*
X011827Y007215D01*
X011801Y007215D01*
X011775Y007219D01*
X011749Y007227D01*
X011725Y007239D01*
X011704Y007254D01*
X011684Y007272D01*
X011668Y007292D01*
X011655Y007315D01*
X011645Y007340D01*
X011639Y007366D01*
X011637Y007392D01*
X013369Y007392D02*
X013371Y007418D01*
X013377Y007444D01*
X013387Y007469D01*
X013400Y007492D01*
X013416Y007512D01*
X013436Y007530D01*
X013458Y007545D01*
X013481Y007557D01*
X013507Y007565D01*
X013533Y007569D01*
X013559Y007569D01*
X013585Y007565D01*
X013611Y007557D01*
X013635Y007545D01*
X013656Y007530D01*
X013676Y007512D01*
X013692Y007492D01*
X013705Y007469D01*
X013715Y007444D01*
X013721Y007418D01*
X013723Y007392D01*
X013721Y007366D01*
X013715Y007340D01*
X013705Y007315D01*
X013692Y007292D01*
X013676Y007272D01*
X013656Y007254D01*
X013634Y007239D01*
X013611Y007227D01*
X013585Y007219D01*
X013559Y007215D01*
X013533Y007215D01*
X013507Y007219D01*
X013481Y007227D01*
X013457Y007239D01*
X013436Y007254D01*
X013416Y007272D01*
X013400Y007292D01*
X013387Y007315D01*
X013377Y007340D01*
X013371Y007366D01*
X013369Y007392D01*
X017300Y004392D02*
X017302Y004442D01*
X017308Y004492D01*
X017318Y004541D01*
X017332Y004589D01*
X017349Y004636D01*
X017370Y004681D01*
X017395Y004725D01*
X017423Y004766D01*
X017455Y004805D01*
X017489Y004842D01*
X017526Y004876D01*
X017566Y004906D01*
X017608Y004933D01*
X017652Y004957D01*
X017698Y004978D01*
X017745Y004994D01*
X017793Y005007D01*
X017843Y005016D01*
X017892Y005021D01*
X017943Y005022D01*
X017993Y005019D01*
X018042Y005012D01*
X018091Y005001D01*
X018139Y004986D01*
X018185Y004968D01*
X018230Y004946D01*
X018273Y004920D01*
X018314Y004891D01*
X018353Y004859D01*
X018389Y004824D01*
X018421Y004786D01*
X018451Y004746D01*
X018478Y004703D01*
X018501Y004659D01*
X018520Y004613D01*
X018536Y004565D01*
X018548Y004516D01*
X018556Y004467D01*
X018560Y004417D01*
X018560Y004367D01*
X018556Y004317D01*
X018548Y004268D01*
X018536Y004219D01*
X018520Y004171D01*
X018501Y004125D01*
X018478Y004081D01*
X018451Y004038D01*
X018421Y003998D01*
X018389Y003960D01*
X018353Y003925D01*
X018314Y003893D01*
X018273Y003864D01*
X018230Y003838D01*
X018185Y003816D01*
X018139Y003798D01*
X018091Y003783D01*
X018042Y003772D01*
X017993Y003765D01*
X017943Y003762D01*
X017892Y003763D01*
X017843Y003768D01*
X017793Y003777D01*
X017745Y003790D01*
X017698Y003806D01*
X017652Y003827D01*
X017608Y003851D01*
X017566Y003878D01*
X017526Y003908D01*
X017489Y003942D01*
X017455Y003979D01*
X017423Y004018D01*
X017395Y004059D01*
X017370Y004103D01*
X017349Y004148D01*
X017332Y004195D01*
X017318Y004243D01*
X017308Y004292D01*
X017302Y004342D01*
X017300Y004392D01*
X021800Y004392D02*
X021802Y004442D01*
X021808Y004492D01*
X021818Y004541D01*
X021832Y004589D01*
X021849Y004636D01*
X021870Y004681D01*
X021895Y004725D01*
X021923Y004766D01*
X021955Y004805D01*
X021989Y004842D01*
X022026Y004876D01*
X022066Y004906D01*
X022108Y004933D01*
X022152Y004957D01*
X022198Y004978D01*
X022245Y004994D01*
X022293Y005007D01*
X022343Y005016D01*
X022392Y005021D01*
X022443Y005022D01*
X022493Y005019D01*
X022542Y005012D01*
X022591Y005001D01*
X022639Y004986D01*
X022685Y004968D01*
X022730Y004946D01*
X022773Y004920D01*
X022814Y004891D01*
X022853Y004859D01*
X022889Y004824D01*
X022921Y004786D01*
X022951Y004746D01*
X022978Y004703D01*
X023001Y004659D01*
X023020Y004613D01*
X023036Y004565D01*
X023048Y004516D01*
X023056Y004467D01*
X023060Y004417D01*
X023060Y004367D01*
X023056Y004317D01*
X023048Y004268D01*
X023036Y004219D01*
X023020Y004171D01*
X023001Y004125D01*
X022978Y004081D01*
X022951Y004038D01*
X022921Y003998D01*
X022889Y003960D01*
X022853Y003925D01*
X022814Y003893D01*
X022773Y003864D01*
X022730Y003838D01*
X022685Y003816D01*
X022639Y003798D01*
X022591Y003783D01*
X022542Y003772D01*
X022493Y003765D01*
X022443Y003762D01*
X022392Y003763D01*
X022343Y003768D01*
X022293Y003777D01*
X022245Y003790D01*
X022198Y003806D01*
X022152Y003827D01*
X022108Y003851D01*
X022066Y003878D01*
X022026Y003908D01*
X021989Y003942D01*
X021955Y003979D01*
X021923Y004018D01*
X021895Y004059D01*
X021870Y004103D01*
X021849Y004148D01*
X021832Y004195D01*
X021818Y004243D01*
X021808Y004292D01*
X021802Y004342D01*
X021800Y004392D01*
X025137Y007392D02*
X025139Y007418D01*
X025145Y007444D01*
X025155Y007469D01*
X025168Y007492D01*
X025184Y007512D01*
X025204Y007530D01*
X025226Y007545D01*
X025249Y007557D01*
X025275Y007565D01*
X025301Y007569D01*
X025327Y007569D01*
X025353Y007565D01*
X025379Y007557D01*
X025403Y007545D01*
X025424Y007530D01*
X025444Y007512D01*
X025460Y007492D01*
X025473Y007469D01*
X025483Y007444D01*
X025489Y007418D01*
X025491Y007392D01*
X025489Y007366D01*
X025483Y007340D01*
X025473Y007315D01*
X025460Y007292D01*
X025444Y007272D01*
X025424Y007254D01*
X025402Y007239D01*
X025379Y007227D01*
X025353Y007219D01*
X025327Y007215D01*
X025301Y007215D01*
X025275Y007219D01*
X025249Y007227D01*
X025225Y007239D01*
X025204Y007254D01*
X025184Y007272D01*
X025168Y007292D01*
X025155Y007315D01*
X025145Y007340D01*
X025139Y007366D01*
X025137Y007392D01*
X026869Y007392D02*
X026871Y007418D01*
X026877Y007444D01*
X026887Y007469D01*
X026900Y007492D01*
X026916Y007512D01*
X026936Y007530D01*
X026958Y007545D01*
X026981Y007557D01*
X027007Y007565D01*
X027033Y007569D01*
X027059Y007569D01*
X027085Y007565D01*
X027111Y007557D01*
X027135Y007545D01*
X027156Y007530D01*
X027176Y007512D01*
X027192Y007492D01*
X027205Y007469D01*
X027215Y007444D01*
X027221Y007418D01*
X027223Y007392D01*
X027221Y007366D01*
X027215Y007340D01*
X027205Y007315D01*
X027192Y007292D01*
X027176Y007272D01*
X027156Y007254D01*
X027134Y007239D01*
X027111Y007227D01*
X027085Y007219D01*
X027059Y007215D01*
X027033Y007215D01*
X027007Y007219D01*
X026981Y007227D01*
X026957Y007239D01*
X026936Y007254D01*
X026916Y007272D01*
X026900Y007292D01*
X026887Y007315D01*
X026877Y007340D01*
X026871Y007366D01*
X026869Y007392D01*
M02*
